<?xml version="1.0" encoding="UTF-8"?>
<svg id="Layer_1" data-name="Layer 1" xmlns="http://www.w3.org/2000/svg" width="24" height="24" viewBox="0 0 24 24">
  <circle cx="13" cy="10" r="1.4" fill="#f93d44"/>
  <path d="M13,3c-3.8,0-6.8,2.9-7,6.6l-1.9,2.6c-.2.3,0,.8.4.8h1.5v3c0,1.1.9,2,2,2h1v3h7v-4.7c2.4-1.1,4-3.5,4-6.3s-3.1-7-7-7ZM16,10v.4l.8.7v.2l-.8,1.4s-.2.1-.2,0l-1-.4c-.2.2-.4.3-.7.4l-.2,1.1s0,.2-.2.2h-1.6c-.1,0-.2,0-.2-.2l-.2-1.1c-.2-.1-.5-.2-.7-.4l-1,.4h-.2l-.8-1.4v-.2l.8-.7v-.8l-.8-.7v-.3l.8-1.4s.2-.1.2,0l1,.4c.2-.2.4-.3.7-.4l.2-1.1s0-.2.2-.2h1.6c.1,0,.2,0,.2.2l.2,1.1c.2.1.5.2.7.4l1-.4h.2l.8,1.4v.3l-.8.7c0,.1,0,.2,0,.4Z" fill="#f93d44"/>
</svg>