<?xml version="1.0" encoding="UTF-8"?>
<svg id="Capa_1" data-name="Capa 1" xmlns="http://www.w3.org/2000/svg" viewBox="0 0 709.16 240.64">
  <path d="M275.14,103.16l-25.06,45.2h12.05l4.56-8.38h18.11l1.91,8.38h13.29l-11.1-45.2h-13.76ZM270.98,131.74l4.81-8.49c1.45-2.59,2.72-5.28,3.79-8.04h.16c.14,2.54.54,5.05,1.2,7.51l2.19,9.03h-12.14Z" fill="#b1b2b4"/>
  <path d="M344.36,118.02c-.7,4.28-1.52,10.25-1.75,14.13-1.3-3.47-2.85-7.43-4.57-11.1l-8.62-17.89h-15.55l-7.33,45.2h11.66l2.79-17.21c.7-4.28,1.27-8.84,1.57-12.19,1.07,3.39,2.35,6.7,3.84,9.93l9.21,19.48h15.48l7.33-45.2h-11.67l-2.4,14.86Z" fill="#b1b2b4"/>
  <path d="M436.7,102.83c-6.3,0-11.98.07-16.46.33l-7.33,45.2h12.13l2.85-17.68h.47l9.58,17.68h14.78s-8.76-14.54-8.76-14.54c-1.07-1.67-2.11-3.34-3.22-5.09,7.23-1.47,12.62-6.43,13.62-12.52,1.54-9.57-5.3-13.39-17.66-13.39ZM441.54,117.09c-.62,3.81-4.27,6.16-9.39,6.16-1.17,0-2.4-.07-3.01-.13l1.88-11.58c.72-.06,2.12-.13,3.36-.13,5.67,0,7.74,2.14,7.16,5.69Z" fill="#b1b2b4"/>
  <polygon points="494.44 111.92 495.86 103.16 466.31 103.16 458.98 148.36 488.54 148.36 489.98 139.38 472.57 139.38 474.18 129.41 490.67 129.41 492.05 120.9 475.57 120.9 477.02 111.92 494.44 111.92" fill="#b1b2b4"/>
  <path d="M519.91,103.16l-25.06,45.2h12.05l4.55-8.38h18.12l1.91,8.38h13.31l-11.1-45.2h-13.77ZM515.74,131.74l4.8-8.49c1.45-2.59,2.72-5.28,3.79-8.04h.16c.15,2.53.55,5.05,1.19,7.51l2.2,9.03h-12.13Z" fill="#b1b2b4"/>
  <path d="M587.51,118.02c-.7,4.28-1.5,10.25-1.74,14.13-1.31-3.47-2.84-7.43-4.58-11.1l-8.61-17.89h-15.56l-7.33,45.2h11.66l2.8-17.21c.69-4.28,1.28-8.84,1.59-12.19,1.06,3.39,2.34,6.7,3.83,9.93l9.21,19.48h15.47l7.34-45.2h-11.66l-2.42,14.86Z" fill="#b1b2b4"/>
  <polygon points="613.73 103.16 606.39 148.36 618.52 148.36 625.86 103.16 613.73 103.16" fill="#b1b2b4"/>
  <path d="M222.59,84.69c-2.71-7.17-8.58-12.97-16.97-16.76-7.9-3.58-17.86-5.3-28.79-4.99-23.95,1.05-46.93,9.73-65.6,24.77-8.4,6.99-14.74,14.86-18.3,22.77-3.8,8.4-4.37,16.63-1.66,23.8,4,10.61,14.65,17.96,29.97,20.67,15.15,2.69,33.11.53,50.57-6.05,11.17-4.15,21.58-10.11,30.83-17.64,8.4-6.98,14.73-14.87,18.29-22.77,2.13-4.51,3.27-9.42,3.34-14.4.01-3.21-.56-6.39-1.68-9.39h0ZM175.44,140.32c-.63.25-1.24.49-1.86.73-10.97,4.26-22.68,6.29-34.44,5.95-2.19-.68-2.71-2.26-.81-5.51l9.76-16.49h26.81l2.34,10.41c.36,1.84-.34,3.73-1.8,4.9ZM151.98,118.93l15.34-25.34,6.11,25.34h-21.45ZM196.69,128.4h0c-1.11.7-2.59.37-3.29-.75-.13-.21-.23-.43-.29-.67l-11.43-44.04s-1.59-7.71-8.35-7.71h-1.84l-9.6,16.3-30.76,49.11c-2.03,3.21-4.2,4.14-6.41,3.95-9.44-2.94-16.48-8.45-19.41-16.21-7.02-18.59,12.16-43.04,42.83-54.64,30.68-11.61,61.25-5.94,68.25,12.65,5.02,13.28-3.33,29.56-19.71,42Z" fill="#b1b2b4"/>
  <path d="M386.41,103.16h0c-5.5-.04-11.44.13-14.63.22l-1.54.03-7.58,45.26,4.69.17c3.27.13,6.68.29,11.08.32,9.88.07,17.97-3,23.38-8.86,4.82-5.19,7.26-12.36,6.88-20.17-.52-10.85-8.43-16.88-22.3-16.98ZM379.3,139.5h0c-.75,0-1.74-.06-2.6-.14.38-2.39,4.02-24.83,4.29-26.58,1.26-.06,2.83-.09,4.68-.08,9.05.07,10.46,4.17,10.65,8.18.31,6.49-2.85,18.71-17.02,18.62Z" fill="#b1b2b4"/>
</svg>