<?xml version="1.0" encoding="UTF-8"?>
<svg id="Layer_1" data-name="Layer 1" xmlns="http://www.w3.org/2000/svg" viewBox="0 0 240 91">
  <path d="M222.7,12.83v45.11c-.24-.27-.36-.41-.48-.55-11.83-14.71-23.64-29.43-35.46-44.15-.22-.31-.59-.48-.97-.45h-13.47c-.2,0-.41.02-.61.02v76.19h16.8v-44.58c0-.7.02-1.39.02-2.09v-.17s.01,0,.01,0v.16s.12-.05.12-.05c3.52,4.35,7.03,8.71,10.54,13.07,8.92,11.09,17.84,22.18,26.75,33.28.2.29.55.45.9.42h12.65V12.83h-16.8Z" fill="#b1b2b4"/>
  <path d="M121.98,11.1c-9.65.72-17.95,4.62-24.79,11.49-7.59,7.63-11.59,16.9-11.75,27.71-.16,11.16,3.74,20.78,11.52,28.72,7.71,7.86,17.22,11.67,26.38,11.93,24.11-.11,41.71-18.03,41.74-39.91.02-10.75-3.69-20.16-11.19-27.87-8.72-8.98-19.45-13-31.91-12.08ZM127.48,73.91c-7.29.66-13.52-1.73-18.66-6.91-3.63-3.6-5.9-8.36-6.41-13.45-.8-7.37,1.5-13.77,6.71-19.01,4.45-4.47,9.94-6.73,16.23-6.68,6.29.05,11.78,2.33,16.18,6.8,4.41,4.46,6.66,9.88,6.66,18.1.18,10.67-9.77,20.15-20.71,21.15Z" fill="#b1b2b4"/>
  <path d="M71.73,42.82c-6.07-14.03-12.13-28.06-18.18-42.1-.21-.49-.44-.68-1-.68-4.31.03-8.61.03-12.91,0-.55,0-.79.18-1.01.67-6.62,15.36-13.25,30.71-19.89,46.05-6.02,13.91-12.04,27.83-18.05,41.74-.07.18-.13.35-.18.53.14.02.2.02.26.02,5.86-.02,11.72-.02,17.58,0,.43,0,.55-.21.7-.55,1.93-4.67,3.87-9.34,5.8-14.02.21-.5.43-.72,1.04-.72,10.38.01,20.75.02,31.11.02h.8c-.11-.29-.18-.48-.27-.67-2.12-4.83-4.23-9.66-6.32-14.49-.11-.39-.48-.63-.87-.57h-18.66c4.8-11.55,9.55-23.02,14.35-34.61.14.27.23.43.31.59,2.19,5.34,4.39,10.69,6.59,16.03,1.06,2.56,2.12,5.11,3.2,7.67,1.16,2.77,2.34,5.53,3.5,8.29,4.5,10.82,8.99,21.66,13.47,32.49.11.36.46.58.83.53h17.77c-.12-.29-.2-.5-.28-.7-6.55-15.18-13.11-30.36-19.67-45.52Z" fill="#b1b2b4"/>
</svg>