<?xml version="1.0" encoding="UTF-8"?>
<svg id="Layer_1" data-name="Layer 1" xmlns="http://www.w3.org/2000/svg" viewBox="0 0 57 56">
  <path d="M27.3,39.6c0,1.1.8,1.7,2.1,1.7s2.5-1,2.5-2.5v-1.1h-1c-2.3,0-3.5.7-3.5,2l-.1-.1Z" fill="#b1b2b4"/>
  <path d="M55,7.3c-.6-2.8-2.2-4.6-5.4-5.3C44.5.8,36.8.1,28.5.1S12.5.7,7.4,1.9c-3.2.7-4.8,2.5-5.4,5.3C.8,12.1,0,19.8,0,28s.8,15.9,2,20.7c.6,2.8,2.2,4.6,5.4,5.3,5.1,1.3,12.8,2,21.1,2s16-.7,21.1-2c3.2-.7,4.8-2.5,5.4-5.3,1.2-4.8,2-12.5,2-20.7s-.8-15.9-2-20.7ZM41.1,25.7l7-1.2v3.6h-7v-2.4ZM10.5,43.9h-4.2v-14h4.2v14ZM8.4,28.5c-1.5,0-2.5-1-2.5-2.4s1-2.4,2.5-2.4,2.5,1,2.5,2.4-1,2.4-2.5,2.4ZM22,33.1h-3.6v5.7c0,1.5.6,2.1,2,2.1s1.2,0,1.5-.2v3.1c-.5.1-1.4.3-2.6.3-3.2,0-5-1.7-5-5.1v-6h-2.1v-3.2h2.1v-3.5l4.2-.7v4.2h3.6v3.2l-.1.1ZM35.9,43.9h-3.9v-1.5c-.9,1.1-2.1,1.8-3.8,1.8-3,0-4.9-1.7-4.9-4.3s2.8-4.8,7.2-4.8,1.1,0,1.4,0c0-1.5-1.1-2.4-3-2.4s-3.2.4-4.8,1v-3.3c1.7-.6,3.4-.9,5.5-.9h0c4.1,0,6.4,2.1,6.4,6.1v8.2l-.1.1ZM50.7,43.9h-4v-1.5c-1,1.2-2.2,1.9-3.9,1.9-2.9,0-4.8-2.1-4.8-5.3v-9.1h4.2v8.4c0,1.7.7,2.6,2.1,2.6s2.3-1.1,2.3-2.8v-8.3h4.2v14l-.1.1Z" fill="#b1b2b4"/>
</svg>