<?xml version="1.0" encoding="UTF-8"?>
<svg id="Layer_1" data-name="Layer 1" xmlns="http://www.w3.org/2000/svg" viewBox="0 0 850.4 186.7">
  <path d="M332.4,61c-5.9,0-11.1,2.3-15.9,6.3h-.5v-5.4h-12.2v60.5h12.8v-46.8c3.8-2.6,8.9-3.8,10.9-3.8,5.6,0,7.6,2.8,7.6,8.6v41.9h12.8v-45.6c0-9.7-5.2-15.7-15.5-15.7h0Z" fill="#b1b2b4"/>
  <path d="M373.5,92.6v-1c0-10.6,2-20,12.8-20s9.2.9,12.7,2.5v-10.6c-3.8-1.6-9.4-2.6-13.8-2.6-17.5,0-24.8,12.4-24.8,29.6v3c0,16.5,6.6,29.7,24.2,29.7s10.9-1.7,14.9-4.5v-9.7c-3.9,1.8-8.3,3.5-13.6,3.5-10.4,0-12.4-9.4-12.4-19.9h0Z" fill="#b1b2b4"/>
  <path d="M220.4,80.5v-.5c7.5-2.6,10.2-9.6,10.2-17.9,0-13.1-8-20-24-20h-25.6v80.3h25.8c14.5,0,26.3-5.8,26.3-22.5s-4.1-16.4-12.7-19.4ZM194.6,52.7h10.8c7.1,0,11,3.9,11,11.7s-3,12.1-11,12.1h-10.8v-23.8ZM206.4,111.7h-11.8v-25.8h11.8c8,0,12.5,4.6,12.5,12.4s-3.5,13.4-12.5,13.4Z" fill="#b1b2b4"/>
  <path d="M266.9,61c-6.5,0-13,1.2-18.5,3v9.7c4.4-1.1,9.1-2.1,13.7-2.1,6.7,0,13,2,13,9.7v4.7l-13.8,1.3c-10.7,1.2-17.7,6.6-17.7,18.7s5.9,17.3,16.7,17.3,12-2.6,15.4-5.9h.6l1.1,4.9h10.6v-43.3c0-12.5-8.7-18-21.1-18h0ZM275.1,110.1c-2.1,1.8-7.4,3.4-10.4,3.4-5.5,0-8.1-2.8-8.1-8.3s2.8-8.9,8.5-9.6l10-.9v15.4Z" fill="#b1b2b4"/>
  <path d="M646.3,37.1v27.5c-2.7-2-7.7-3.7-12.2-3.7-16.6,0-23,13.1-23,29.6v3c0,12.9,4.5,29.7,20.5,29.7s11-2.6,14.9-6.3h.6l1.2,5.3h10.8V37.1h-12.8ZM646.3,109c-2,1.9-6.5,3.6-9.7,3.6-10.2,0-12.5-9.7-12.5-19.9v-1.1c0-10.2,3.1-20,13.4-20s6.5.8,8.8,2v35.4Z" fill="#b1b2b4"/>
  <path d="M692.9,61c-6.5,0-13,1.2-18.5,3v9.7c4.4-1.1,9.1-2.1,13.7-2.1,6.7,0,13,2,13,9.7v4.7l-13.8,1.3c-10.7,1.2-17.7,6.6-17.7,18.7s5.9,17.3,16.7,17.3,12-2.6,15.4-5.9h.6l1.1,4.9h10.6v-43.3c0-12.5-8.8-18-21.1-18ZM690.7,113.5c-5.5,0-8.1-2.8-8.1-8.3s2.8-8.9,8.5-9.6l10-.9v15.4h0c-2.1,1.8-7.4,3.4-10.4,3.4Z" fill="#b1b2b4"/>
  <path d="M585.7,108.6c-3.8,2.6-8.3,3.8-10.3,3.8-5.6,0-7.6-2.8-7.6-8.6v-42h-12.8v45.6c0,9.7,5.2,15.8,15.5,15.8s10.5-2.3,15.4-6.3h.4v5.4h12.2v-60.5h-12.8v46.8h0Z" fill="#b1b2b4"/>
  <path d="M431.4,61c-17.3,0-24.9,12.4-24.9,29.6v3c0,17.2,7.6,29.7,24.9,29.7s24.9-12.6,24.9-29.9v-2.9c0-17.1-7.7-29.5-24.9-29.5ZM443,92.8c0,10.1-1.9,19.8-11.7,19.8s-12-9.8-12-19.9v-1.2c0-10.1,2.1-19.9,11.9-19.9s11.8,9.8,11.8,19.9v1.3h0Z" fill="#b1b2b4"/>
  <path d="M761.8,37.1v27.5c-2.7-2-7.7-3.7-12.2-3.7-16.6,0-23,13.1-23,29.6v3c0,12.9,4.5,29.7,20.5,29.7s11-2.6,14.9-6.3h.6l1.2,5.3h10.8V37.1h-12.8ZM761.8,109c-2,1.9-6.5,3.6-9.7,3.6-10.2,0-12.5-9.7-12.5-19.9v-1.1c0-10.2,3.1-20,13.4-20s6.5.8,8.8,2v35.4Z" fill="#b1b2b4"/>
  <path d="M482.8,82.5v-1.3c0-14.1,3.6-29.3,17.7-29.3s10.3.7,14.8,2.5v-11.2c-4.9-2-10.8-2.6-16.3-2.6-21.8,0-30.9,16.4-30.9,39.2v4c0,21.9,8.2,39.5,30.2,39.5s12.5-1.7,17.5-5.4v-10.5c-4.8,2.3-9.2,4-15.8,4-14.1,0-17.2-14.8-17.2-28.9h0Z" fill="#b1b2b4"/>
  <rect x="526.6" y="39.9" width="12.9" height="12" fill="#b1b2b4"/>
  <rect x="526.6" y="61.8" width="12.8" height="60.5" fill="#b1b2b4"/>
  <path d="M95.6,92.6c-10.4,13.3-31,36.4-45.4,52.4,9.1,10.7,22.7,16.8,41.1,16.8,41.1,0,57.5-30.7,57.5-71.8s-3.8-38.5-13.4-51.3c-12.2,17.6-29.8,41.1-39.8,53.9Z" fill="#b1b2b4"/>
  <path d="M132,34.4c-9.1-10.4-22.7-16.5-40.8-16.5-41.2,0-57.5,30.9-57.5,72.1s4.2,38,13.3,51c12.2-17.6,29.9-42,40.3-54.8,9.1-11.7,29.8-35.4,44.7-51.8Z" fill="#48494c"/>
</svg>