<?xml version="1.0" encoding="UTF-8"?>
<svg id="Layer_1" data-name="Layer 1" xmlns="http://www.w3.org/2000/svg" viewBox="0 0 155.8 184.2">
  <polygon points="92.2 145.6 145 145.6 145 92.8 92.2 145.6" fill="#48494c"/>
  <g>
    <path d="M28.3,102.8c-.9,0-2.2,2.5-2.2,5.8s.2,1.1.5,1.1c.5,0,1.3-.9,2.5-2.5l.5-2.5c-.4-1.2-.8-1.9-1.3-1.9Z" fill="#b1b2b4"/>
    <path d="M39.9,103.5c0-.6-.2-.9-.7-.9-.8,0-1.4,1.3-2,4,1.7-.4,2.7-1.7,2.7-3.1Z" fill="#b1b2b4"/>
    <path d="M57,125.4h0c.4-.1.7-.4,1-1,.6-1.3.9-2.7.9-3.9s-.3-1.9-1-1.9-2.1,1.9-2.1,4.7.5,2.1,1.2,2.1Z" fill="#b1b2b4"/>
    <path d="M52.4,131c0,.9,1.2,1.7,3.1,1.7s2.6-.4,2.6-.8c0-.7-1.7-1-3.7-2.9-1.3.4-2,1.2-2,2Z" fill="#b1b2b4"/>
    <polygon points="66.4 63.8 62.3 72.7 70.4 72.7 66.4 63.8" fill="#b1b2b4"/>
    <path d="M54.7,103.3h-.2c-2.3,0-4.1,2.3-4.1,5s.5,1.6,1,1.6.8-.3,1.4-.8l.9-.8,1-4.9v-.1Z" fill="#b1b2b4"/>
    <polygon points="89 31.5 84.9 40.4 93 40.4 89 31.5" fill="#b1b2b4"/>
    <path d="M75.2,111.1h-.1c1,0,2.4-2.2,2.4-5.2s-.5-3.1-1.3-3.1-2.3,2.1-2.3,5.4.5,2.9,1.3,2.9Z" fill="#b1b2b4"/>
    <path d="M50.5,119.5c0-.6-.2-.9-.7-.9-.8,0-1.4,1.3-2,4,1.7-.4,2.7-1.7,2.7-3.1Z" fill="#b1b2b4"/>
    <path d="M85.6,118.9c-.8,0-2.3,2.1-2.3,5.4s.5,2.9,1.3,2.9h0c1,0,2.4-2.2,2.4-5.2s-.5-3.1-1.3-3.1h-.1Z" fill="#b1b2b4"/>
    <polygon points="107.6 72.7 115.7 72.7 111.7 63.8 107.6 72.7" fill="#b1b2b4"/>
    <path d="M5.8,6.3v144.1h81.6l62.4-62.4V6.3H5.8ZM50.5,53.2h1c1.6,0,2.6-.2,3.2-.8s.6-1,.6-1.9v-19.4c0-.9-.2-1.6-.6-2-.6-.6-1.6-.9-3.2-.9h-1v-2.1h16.8v2.1h-1.8c-3.4,0-4.1,1.1-4.1,2.9v19.2c0,1.2.2,1.9.6,2.3s1.2.6,2.6.6h6.9c4.5,0,6.5-5.2,6.5-5.2l8.7-19.2c.5-.8.5-1.3.5-1.5s0-.4-.2-.7l-.4-.6h6.4l10.7,24c1.2,2.4,1.8,3.5,4.2,3.5h1v2.1h-16.1v-2.1h2.3c1.6,0,2.6-.2,3-.6s.2-.3.2-.6,0-.6-.5-1.5c0,0-2.9-6.4-3.5-7.7h-10.5l-3.6,7.7c-.4.9-.4,1.1-.4,1.4s0,.5.3.7c.4.4,1.2.6,2.6.6h2.2v-.2,2.2h-34.3v-2.2l-.1-.1ZM83,104c-.2,0-.6.4-1.2,1.2l-.5-.3h.1c1.5-2.2,2.8-3.3,3.6-3.3s.7.3.7,1-.2,2.2-.6,4.4c1.4-3.5,2.4-5.3,3.7-5.3s.9.3.9,1c0,1.2-.5,1.9-1.3,1.9s-.4,0-.6,0c-1.3,0-2.2,2.1-3.1,6.3v.6c-.2.3-.4.5-.8.5h-1.2c-.5,0-.7,0-.7-.4v-.2h0l.8-5c.2-1.1.3-1.8.3-2s0-.4-.1-.4ZM89.4,94.5c-2.1,2.1-5,3.1-8.6,3.1s-4.8-1.1-4.8-2.7.2-1.1.6-1.5,1.2-.6,1.7-.6.9,0,1.1.2c.4.2.7.3,1,.5,1.4.7,2.5,1.2,3.6,1.2s1.9-.3,2.5-.9c.9-.9,1.3-2.6,1.3-5.3v-25.3c0-.9-.2-1.6-.6-2-.6-.5-1.6-.8-3.2-.8h-1v-2h15.4v2h-1c-3.2,0-3.8,1.1-3.8,2.8v17.2c0,6.6-1.4,11.2-4.2,14v.1ZM77.5,101.8c1.2,0,2.7,1.2,2.7,3.4s-.5,2.9-1.4,4.2c-1.4,1.8-3.3,2.8-5.1,2.8s-2.7-1.2-2.7-3.5.8-3.8,2.4-5.2h0c1.4-1.1,2.9-1.7,4.1-1.7ZM26.8,64.6c3.9-4.4,9.2-6.7,15.2-6.5,3.1.1,6.7.8,10.4,1.6h.5c.5.2,1,.2,1.5.2s.6,0,1-.2h.5l.6,7.5h-2.2v-.2c-2.5-4.6-6.5-6.9-11.8-6.9s-6.9,1.1-9.3,3.1c-2.6,2.2-4,4.6-4,8.7s1.3,7.4,3.8,9.9,4.4,3.9,10.4,3.9,10.3-2.2,12.3-6l8.4-18.5c.5-.8.5-1.3.5-1.5s0-.4-.2-.7l-.4-.6h6.4l10.7,24c1.1,2.4,1.7,3.5,4.1,3.5h1v2.1h-16.1v-2.1h2.3c1.6,0,2.6-.1,3-.5.2-.2.2-.3.2-.6s-.1-.6-.5-1.5c0,0-2.9-6.4-3.5-7.7h-10.4l-3.6,7.7c-.4.9-.4,1.1-.4,1.4s0,.5.3.7c.4.4,1.2.6,2.6.6h2.2v2.2h-19.4c-5.7,0-10.2-1.2-13.7-3.6-3.9-2.7-6.1-7.4-6.1-10.7s1.2-6.4,3.7-9.2v-.1ZM66.1,104c-.5,0-1.4,1.2-3.1,3.3l-.7,3.2c-.3,1.2-.3,1.4-1.2,1.4h-.9c-.5,0-.7-.2-.7-.3v-.9l2.6-12.2v-.5c0-.3,0-.5-.3-.5s-.5,0-.8.2l-.2-.6c2.4-.9,3.8-1.5,4.1-1.5s.3,0,.3.3v.4l-2,9.4c2-2.7,3.8-4,5-4s1.1.5,1.1,1.4,0,.7-.2,1.1l-1.4,5.2v.5c0,.2,0,.3.2.3s.8-.5,1.6-1.5l.5.4c-1.4,1.9-2.6,2.8-3.9,2.8s-1.1-.4-1.1-1.2.1-1.1.3-1.8l1-4v-.5c0-.3-.1-.4-.3-.4h.1ZM52.2,110v.3c-1.1,1.1-1.8,1.6-2.5,1.6s-1.5-.8-1.5-2.3c0-2.5,1.3-4.7,3.6-6.5,1.3-1,2.9-1.5,4.7-1.5h1.2l-1.7,7.7v.5c0,.13.07.2.2.2.2,0,.7-.4,1.5-1.2l.4.4c-1.7,1.6-2.8,2.5-3.7,2.5s-1.1-.5-1.1-1.5,0-.8.1-1.3c0,0-1.2,1.1-1.2,1.1ZM29.9,125.8c-2.1,3.6-2.9,5.7-2.9,6.2s.4.5,1.2.6v.6h-6.3v-.6h.2c1.2,0,1.8-.2,2.3-1,.3-.5.8-1.5,1.3-3.2.3-1,.4-2,.4-3.1,0-3.7-.5-5.6-1.1-5.6s-.7.3-1.1.9l-.6-.3c1-1.7,2.2-2.7,3.3-2.7s2.2,2.1,2.2,6,0,1.9-.2,3.5c1.4-3.2,2.3-5.2,2.3-6.4s-.5-1-.5-1.6c0-.9.7-1.5,1.6-1.5s1.5.6,1.5,1.4c0,1.5-1.6,3.5-3.6,6.8h0ZM33.9,96.7l-2.7,13v.2s0,.2.2.2.7-.4,1.3-1.2l.4.4c-1.3,1.9-2.5,2.8-3.5,2.8s-1-.4-1-1.3,0-1.1.3-2c-1.6,2.2-2.8,3.3-3.6,3.3h-.2c-1,0-1.8-1.1-1.8-2.9s.9-3.8,2.6-5.7c1.1-1.2,2.2-1.8,2.8-1.8s.8.2,1.3.7l.9-4.1v-.4c0-.2,0-.3-.2-.3s-.4,0-.8.2l-.3-.6c2.3-1,3.6-1.5,3.9-1.5s.4.2.4.3v.7ZM36.8,112.1c-1.8,0-2.7-1.1-2.7-3.2s.7-3.5,2-5,2.7-2.2,4-2.2,2.1.8,2.1,1.8c0,1.7-1.7,2.8-5.2,3.7v1.2c0,1.3.6,2.1,1.7,2.1s1.6-.4,2.6-1l.3.4c-1.8,1.4-3.3,2.1-4.7,2.1h0l-.1.1ZM42.7,122.2c.7.8,1.4,1.4,1.4,2.6,0,1.9-1.7,3.4-4.4,3.4s-2.3-.6-2.3-1.5.5-1.4,1.3-1.4h-.2c.7,0,1.2.4,1.9,1,.5.4.9.6,1.3.6s.7-.2.7-.7-.5-1-1.3-1.8c-1.2-1.3-2-2.1-2-3.4s1.8-3.2,3.9-3.2,2,.6,2,1.6-.5,1.4-1.3,1.4-.9-.3-1.2-.8-.3-1-.9-1-.6.3-.6.7c0,.7.7,1.4,1.7,2.5ZM47.5,128.1c-1.8,0-2.7-1.1-2.7-3.2s.7-3.5,2-5,2.7-2.2,4-2.2,2.1.7,2.1,1.8c0,1.7-1.7,2.8-5.2,3.7,0,.5-.1.9-.1,1.2,0,1.3.6,2.1,1.7,2.1s1.6-.4,2.6-1l.3.4c-1.8,1.4-3.3,2.1-4.7,2.1h0v.1ZM57.7,128.2c1.6,1,2.8,1.6,2.8,2.8s-2.1,2.4-5.5,2.4-5.2-.9-5.2-1.8,1.4-2,4.2-3.2v-.6c0-.7.5-1.3,1.5-1.6-1.5-.6-2.3-1.8-2.3-3.3h0c0-1.4.7-2.8,2.1-3.8,1.1-.9,2.6-1.4,4.1-1.4s1.8,0,2.9.3v1.4h-1.2c.3.6.5,1.2.5,1.9,0,1.8-1.2,3.5-3.5,4.4-1.2.5-2.1.5-2.1,1s.6.8,1.8,1.5h-.1ZM69,128.3c-1,0-.9-.3-.9-1s0-.7.1-1.2l.5-2.6c-2.2,3.3-4.1,4.8-5.1,4.8h.1c-.6,0-.9-.5-.9-1.2s0-.8.2-1.6l.9-4.5v-.8c0-.2,0-.3-.2-.3s-.5.4-1.1,1.3l-.5-.3c1.4-2,2.3-3,3.6-3s1.1.4,1.1,1.2-.1,1-.3,2l-.8,3.6v.7c0,.3.1.4.3.4.4,0,1.7-1.4,3.2-4.4l.4-1.8c.3-1.2.3-1.4,1.2-1.4h.8c.5,0,.7,0,.7.3s0,.6-.1.9l-1.2,5.9v.5c0,.2,0,.3.2.3.3,0,.7-.4,1.4-1.3l.4.4c-1.6,2.1-3.1,3.1-4.1,3.1h.1ZM76.7,127v.6c-.2.3-.4.5-.8.5h-1.2c-.5,0-.7-.1-.7-.4v-.2h0l.8-5c.2-1.1.3-1.8.3-2s0-.4-.1-.4c-.2,0-.6.4-1.2,1.2l-.5-.3h.1c1.5-2.2,2.8-3.3,3.6-3.3s.7.3.7,1-.2,2.2-.6,4.4c1.4-3.5,2.4-5.3,3.7-5.3s.9.3.9,1c0,1.3-.5,1.9-1.3,1.9s-.4,0-.6,0c-1.3,0-2.2,2.1-3.1,6.3ZM88.2,125.4c-1.4,1.8-3.3,2.8-5.1,2.8s-2.7-1.2-2.7-3.5.8-3.8,2.4-5.2h0c1.4-1.1,2.9-1.7,4.1-1.7s2.7,1.2,2.7,3.4-.5,2.9-1.4,4.2ZM92.9,110.9v.6c-.2.3-.4.5-.8.5h-1.2c-.5,0-.7,0-.7-.4v-.2h0l.8-5c.2-1.1.3-1.8.3-2v-.4c-.2,0-.6.4-1.2,1.2l-.5-.3h0c1.5-2.2,2.8-3.3,3.6-3.3s.7.3.7,1-.2,2.2-.6,4.4c1.4-3.5,2.4-5.3,3.7-5.3s.9.3.9,1c0,1.2-.5,1.9-1.3,1.9s-.4,0-.6,0c-1.3,0-2.2,2.1-3.1,6.3ZM104.4,109.4c-1.4,1.8-3.3,2.8-5.1,2.8s-2.7-1.2-2.7-3.5.8-3.8,2.4-5.2h0c1.4-1.1,2.9-1.7,4.1-1.7s2.7,1.2,2.7,3.4-.5,2.9-1.4,4.2ZM131.4,87.8h-16.1v-2.1h2.4c1.6,0,2.6-.2,3-.6.2-.2.2-.3.2-.6s-.1-.6-.5-1.5c0,0-2.9-6.4-3.5-7.7h-10.4l-3.6,7.7c-.4.9-.4,1.1-.4,1.4s.1.5.3.7c.4.4,1.2.6,2.6.6h2.2v2.2h-13.1v-2.1h.4c3.3,0,3.7-1,4.8-3.3l9.7-21.3c.5-.8.5-1.3.5-1.5s0-.4-.2-.7l-.4-.6h6.4l10.7,24c1.1,2.4,1.7,3.5,4.1,3.5h1v2.1l-.1-.2Z" fill="#b1b2b4"/>
    <path d="M101.8,102.8c-.8,0-2.3,2.1-2.3,5.4s.5,2.9,1.2,2.9c1,0,2.4-2.2,2.4-5.2s-.5-3.1-1.3-3.1Z" fill="#b1b2b4"/>
  </g>
</svg>