<?xml version="1.0" encoding="UTF-8"?>
<svg id="Layer_1" data-name="Layer 1" xmlns="http://www.w3.org/2000/svg" viewBox="0 0 1277 192">
  <g isolation="isolate">
    <g id="Layer_1-2" data-name="Layer 1">
      <circle cx="1183.6" cy="94.8" r="82.3" fill="#b1b2b4"/>
      <g>
        <g>
          <path d="M523.7,96.6c0,12.6,3.3,53.7,45,53.7s37.9-7.9,40.3-30.3l.2-1.9h-19.1l-.3,1.4c-.3,2-1.1,6.3-4.6,10-3.6,3.7-8.8,5.6-15.5,5.6-18.2,0-27.4-13-27.4-38.7s3.6-40.9,27.6-40.9,19.9,12.2,20.6,16.2l.2,1.5,1.5.2h17.2l-.2-1.8c-2.2-28.6-30.1-30.9-38.6-30.9-43.5,0-46.9,42.8-46.9,55.9h0Z" fill="#b1b2b4"/>
          <path d="M666.2,39.5c-10.2,0-24.7,2.5-35.7,14.4-9,9.7-13.8,24.3-13.8,42.3,0,35.5,17.2,55,48.3,55s49.4-20.7,49.4-56.7-17.6-55-48.2-55h0ZM687,126.8c-4.9,5.8-12.2,8.8-21.5,8.8s-16.8-3-21.5-8.8c-5.8-7.2-8.8-17.8-8.8-31.5,0-26.8,10.5-40.4,31.2-40.4s29.6,12.9,29.6,39.4c0,8.1-1.3,23.1-9,32.5h0Z" fill="#b1b2b4"/>
          <path d="M810,42.2s-25.7,73.2-28.6,81.5c-2.9-8.3-28-81.5-28-81.5h-28.2v106.6h17.3v-84c5.4,15.2,29.7,84,29.7,84h16s25.5-70.1,31-84.9v84.9h17.4V42.2h-26.6Z" fill="#b1b2b4"/>
          <path d="M904.4,42.2h-17.6l-44.9,106.6h18.5s10.3-24.9,11.1-26.9h45.6c.8,2,11.2,26.9,11.2,26.9h19.3l-43.2-106.6h0ZM877.4,106.9c1.5-3.9,14.8-37.5,17.5-44.1,2.5,6.7,15.1,40.2,16.6,44.1h-34.1Z" fill="#b1b2b4"/>
          <path d="M953.9,42.2v106.6h18v-46.9h44.2v-15.4h-44.2v-28.8h46.9v-15.5h-64.9Z" fill="#b1b2b4"/>
          <rect x="1032.4" y="42.2" width="17.7" height="106.6" fill="#b1b2b4"/>
        </g>
        <g>
          <path d="M59.3,94.6c6-2.8,14.3-8.9,14.3-23.1s-2.6-14.6-7.8-19.7c-7-6.8-14.6-8.1-27.2-8.1H0v106.6h39.3c8.2,0,16.7,0,24.2-5,4-2.7,13.2-10.4,13.2-24.9s-10.2-23.1-17.4-25.8h0ZM17.3,58.9h18.9c10.1,0,19.2,1.1,19.2,13.9s-6.5,14.6-19.7,14.6h-18.4s0-28.5,0-28.5ZM40,135.4h-22.7v-32.3h23.3c11.1,0,18,6.2,18,16.2s-9.6,16.1-18.6,16.1h0Z" fill="#b1b2b4"/>
          <path d="M140.3,43.8h-17.6l-44.8,106.6h18.5s10.3-24.9,11.2-26.9h45.4c.8,2,11.1,26.9,11.1,26.9h19.3l-43.1-106.6h0ZM113.4,108.5c1.5-3.9,14.8-37.5,17.5-44.1,2.5,6.7,15.1,40.2,16.6,44.1h-34.1Z" fill="#b1b2b4"/>
          <path d="M259.1,43.8v80.8c-5.6-9.4-48-80.8-48-80.8h-22.6v106.6h16.4v-83.1c5.6,9.4,49.8,83.1,49.8,83.1h21V43.8h-16.6Z" fill="#b1b2b4"/>
          <path d="M285.3,98.2c0,12.6,3.3,53.7,45,53.7s37.9-7.9,40.3-30.3l.2-1.9h-19.1l-.3,1.4c-.3,2-1.1,6.3-4.6,10-3.6,3.7-8.8,5.6-15.5,5.6-12.5,0-27.4-6.7-27.4-38.7s3.6-40.9,27.6-40.9,19.9,12.2,20.6,16.2l.2,1.5,1.5.2h17.2l-.2-1.8c-2.3-28.7-30.2-30.9-38.7-30.9-43.4.1-46.7,42.8-46.8,55.9h0Z" fill="#b1b2b4"/>
          <path d="M427.8,41.1c-10.2,0-24.7,2.5-35.7,14.4-9,9.7-13.8,24.3-13.8,42.3,0,35.5,17.2,55,48.3,55s49.4-20.7,49.4-56.7-17.5-55-48.2-55h0ZM448.6,128.4c-4.9,5.8-12.2,8.8-21.5,8.8s-16.9-3-21.5-8.8h0c-5.8-7.2-8.8-17.8-8.8-31.5,0-26.8,10.5-40.4,31.2-40.4s29.6,12.9,29.6,39.4c-.1,8.1-1.2,23.1-9,32.5h0Z" fill="#b1b2b4"/>
        </g>
      </g>
      <path d="M1181,191.1h1.7c50.6,0,91.9-40.8,94.3-92.9h-96v92.9h0Z" fill="#b1b2b4" isolation="isolate" mix-blend-mode="multiply" opacity=".6"/>
      <path d="M1277,92.3c-1-51.1-42.8-92.3-94.3-92.3h-1.7v92.3h96Z" fill="#b1b2b4" isolation="isolate" mix-blend-mode="multiply" opacity=".6"/>
    </g>
  </g>
</svg>