<?xml version="1.0" encoding="UTF-8"?>
<svg id="Layer_1" data-name="Layer 1" xmlns="http://www.w3.org/2000/svg" viewBox="0 0 156 38">
  <path d="M2.1,14.3c0-2.1-1.1-1.9-2.1-1.9v-.6h6.6c5.9,0,9.1,4,9.1,8,0,2.3-1.3,8-9.4,8H-.1v-.6c1.4-.1,2-.2,2.1-1.7v-11.1h0l.1-.1ZM4.4,25.1c0,1.8,1.3,2,2.4,2,4.9,0,6.5-3.8,6.5-7.2,0-4.3-2.8-7.4-7.2-7.4h-1.8v12.5h0l.1.1Z" fill="#b1b2b4"/>
  <path d="M16.6,27.2h.4c.6,0,1.1,0,1.1-.8v-6.2c0-1-.4-1.1-1.2-1.6v-.4c1.1-.3,2.3-.8,2.4-.8.2,0,.3-.1.4-.1s.2.1.2.3v8.8c0,.8.5.8,1.2.8h.4v.6h-4.9v-.6h0ZM19,13.8c-.6,0-1.1-.5-1.1-1.1s.5-1.1,1.1-1.1,1.1.5,1.1,1.1-.5,1.1-1.1,1.1h0Z" fill="#b1b2b4"/>
  <path d="M23.6,20.3c0-.8-.3-1.1-1.3-1.5v-.4c1-.3,1.9-.6,3-1.1,0,0,.1,0,.1.2v1.5c1.3-.9,2.4-1.7,4-1.7,1.9,0,2.6,1.4,2.6,3.2v5.9c0,.8.5.8,1.2.8h.4v.6h-4.9v-.6h.4c.6,0,1.1,0,1.1-.8v-5.9c0-1.3-.8-2-2.1-2-.7,0-1.9.6-2.6,1.1v6.8c0,.8.5.8,1.2.8h.4v.6h-4.9v-.6h.4c.6,0,1.1,0,1.1-.8v-6.1h-.1Z" fill="#b1b2b4"/>
  <path d="M35.3,21.4v1.3c.1,2.2,1.5,4,3.4,4,1.3,0,2.2-.7,3.1-1.5l.3.3c-1,1.4-2.3,2.6-4.2,2.6-3.6,0-4.4-3.5-4.4-5,0-4.5,3-5.8,4.6-5.8,1.8,0,3.8,1.2,3.9,3.6v.4h-.2c0,.1-6.4.1-6.4.1h-.1ZM39.4,20.7c.6,0,.6-.3.6-.6,0-1.2-.7-2.1-2-2.1-1.4,0-2.3,1-2.6,2.7h4Z" fill="#b1b2b4"/>
  <path d="M42.5,27.1h.6c.6,0,1.1,0,1.1-.8v-6.4c0-.7-.9-.8-1.2-1v-.3c1.7-.7,2.6-1.3,2.8-1.3s.2,0,.2.3v2.1h0c.6-.9,1.5-2.4,2.9-2.4.6,0,1.3.4,1.3,1.2,0,.6-.4,1.2-1.1,1.2s-.7-.6-1.5-.5c-.4,0-1.7.5-1.7,1.9v5.4c0,.8.5.8,1.1.8h1.3v.6h-5.9v-.6h0l.1-.2Z" fill="#b1b2b4"/>
  <path d="M51.3,24.5c.3,1.5,1.2,2.8,2.9,2.8,1.3,0,1.8-.8,1.8-1.6,0-2.7-5-1.8-5-5.5,0-1.3,1-2.9,3.5-2.9.7,0,1.7.2,2.6.7l.2,2.3h-.5c-.2-1.4-1-2.3-2.5-2.3-.9,0-1.8.5-1.8,1.5,0,2.7,5.3,1.9,5.3,5.5,0,1.5-1.2,3.1-3.9,3.1-.9,0-2-.3-2.8-.8l-.3-2.6h.4v-.1l.1-.1Z" fill="#b1b2b4"/>
  <path d="M78.4,15.8h-.6c-.4-2.7-2.3-3.8-4.9-3.8s-6.4,1.8-6.4,7.3c0,4.6,3.3,8,6.8,8,2.3,0,4.1-1.6,4.6-4h.5c0,.1-.5,3.5-.5,3.5-1,.6-3.5,1.2-5,1.2-5.3,0-8.7-3.5-8.7-8.6,0-4.7,4.2-8.1,8.6-8.1,1.9,0,3.6.6,5.4,1.2l.2,3.3h0Z" fill="#b1b2b4"/>
  <path d="M79.3,27.1h.4c.6,0,1.1,0,1.1-.8v-12.8c0-1.5-.4-1.5-1.2-1.8v-.4c.9-.3,1.9-.7,2.3-1,.2-.1.4-.3.5-.3s.2.1.2.3v15.9c0,.8.5.8,1.2.8h.4v.6h-4.9v-.6h0v.1Z" fill="#b1b2b4"/>
  <path d="M93.9,26.4c0,.4.2.4.6.4h.9v.5c-1,0-2.9.6-3.3.7h-.1v-1.9c-1.4,1.1-2.4,1.9-4,1.9-1.2,0-2.5-.8-2.5-2.7v-5.9c0-.6-.1-1.2-1.4-1.3v-.4c.8,0,2.6-.2,2.9-.2s.3.2.3.7v5.9c0,.7,0,2.7,2,2.7.8,0,1.8-.6,2.8-1.4v-6.2c0-.5-1.1-.7-1.9-.9v-.4c2.1-.1,3.3-.3,3.6-.3s.2.2.2.4v8.5h0l-.1-.1Z" fill="#b1b2b4"/>
  <path d="M98.5,18.8c.9-.8,2.1-1.7,3.4-1.7,2.6,0,4.2,2.3,4.3,4.8,0,3-2.2,6-5.4,6-1.7,0-2.6-.5-3.2-.8l-.7.5-.5-.2c.2-1.4.3-2.7.3-4.1v-9.9c0-1.5-.4-1.5-1.2-1.8v-.4c.9-.3,1.9-.7,2.3-1,.2-.1.4-.3.5-.3s.2.1.2.3v8.4h0v.2ZM98.5,25c0,.9.8,2.3,2.4,2.3,2.4,0,3.5-2.4,3.5-4.5,0-2.5-1.9-4.5-3.7-4.5-.8,0-1.6.6-2.2,1.1v5.6h0Z" fill="#b1b2b4"/>
  <path d="M106.1,14.9c.7,0,1.3.6,1.3,1.3s-.6,1.3-1.3,1.3-1.3-.6-1.3-1.3.6-1.3,1.3-1.3ZM106.1,17.2c.6,0,1-.5,1-1.1s-.4-1.1-1-1.1-1,.5-1,1.1.5,1.1,1,1.1ZM105.4,16.9h0q.2,0,.2-.2v-1c0-.1,0-.2-.2-.2h.7c.2,0,.4.1.4.3s-.1.3-.3.4l.2.3c.1.1.2.3.3.3h-.3c-.1,0-.2-.3-.5-.6h-.1v.4l.2.1h-.6v.2ZM105.9,16.2h.2c.2,0,.2-.1.2-.3s-.1-.3-.3-.3h-.1v.6h0Z" fill="#b1b2b4"/>
</svg>