<?xml version="1.0" encoding="UTF-8"?>
<svg id="svg3049" xmlns="http://www.w3.org/2000/svg" viewBox="0 0 550 160">
  <path d="M131.3,123.4c.13-.33,1.13-1.7,3-4.1,5.6-8.5,9.2-17.1,11.2-27.2.3-2.6.6-5.1.9-7.7-.1-3.4-.2-6.7-.3-10-1-6.3-2.4-11.8-4.2-17.9-1.4-2.8-2.7-5.5-4-8.3-3.7-5.9-7.6-10.9-12.4-15.9-9.9-8.5-20.5-14.6-33.5-17-.2-.2-3-.5-3.2-.7-2.4-.2-4.8-.4-7.2-.5h-.7.7c-23,0-46,0-68.9.1h0c22.7,0,45.5,0,68.2-.1H12.4v133.6h69.1c6.4-.3,12.7-1.5,18.7-3.3,2.3-.9,4.6-1.8,7-2.7,9.5-4.9,16.6-10.5,24-18.3h.1ZM99,58.9c-5.4-2.7-12.1-3.1-18.1-3.3.4,3.7.8,17.3,6.5,18.7-.3,3-.5,3.2-6.3,46.7-.2.2-1.8,12.2-2,12.5h0c-2.8-19.7-6-39.5-8.1-59.3,3.1-1.6,4-4.9,5-8.1.6-3.4,1.5-7.2,1.3-10.7-6,.2-12.5.8-17.9,3.4-6.7,0-7.1-9.4-.2-10,6,2.3,12,3.2,18.3,3.4-.3-6.3-1-12.2-3.3-18,0-1.7.4-2.7,1.5-3.9,4-2.6,7.8-.9,8.5,3.8-2.5,6-2.8,11.5-3.3,17.9.1,0,.2.1.4.2,6.1-.3,12.3-.9,18-3.4,6.9.7,6.5,10-.2,10l-.1.1Z" fill="#48494c" fill-rule="evenodd"/>
  <g>
    <path d="M108.3,147.4c-.2,0-.3.1-.4.2,142.2,0,284.5.1,426.8.2,0-.1.1-.2.2-.3-142.2,0-284.4-.1-426.6-.1h0Z" fill="#b1b2b4" fill-rule="evenodd"/>
    <path d="M534.7,14.1c-136.8,0-273.6,0-410.3.1,2,1.7,4,3.3,6,5,7.8,7.5,13.7,15.6,18.6,25.2.9,2.2,1.7,4.4,2.6,6.6,5.2,16.5,5.5,32.6.5,49.2-.9,2.3-1.8,4.7-2.7,7-3,6.1-6.4,11.5-10.3,17-4.3,5-6.8,7.4-7.1,7.9-7.2,6.4-14.8,11.4-23.6,15.3,142.2,0,284.3,0,426.6.1V14.3c-.1,0-.2-.1-.2-.2h-.1ZM251.4,119.3c-4.3,1-8.3,2-12.8,2.5-6.1.3-11.2-.3-17.1-2-11.2-4.7-17.9-12.6-21.3-24.3-1.7-9.2-1.7-17,1-26.1,1.8-4.5,4.3-8.1,7.2-12,5.4-5.4,10.7-8.1,17.9-10.6,10.4-2.3,20.4-1,30.6,1.8-1.2,3.4-2.4,6.8-3.5,10.2-4.53-.73-8.23-1.23-11.1-1.5h-4c-9,0-16.3,5.2-21.3,12.2-1.5,3.2-2.2,5.4-2.4,5.6-1.8,7.3-1.3,13.9,1.1,20.9,3.6,6.8,7.4,10.4,14.5,13.2,1.5.3,3,.6,4.6.9,3.2,0,8.3.4,11-1,0-5.6,0-11.2.1-16.9h-13c0-.1-.1-.2-.1-.3,0-3.6,0-7.1.1-10.7h0v-.1l26.1-.1c26.1-.1,0,0,0,0v35.8c-2.5.9-5,1.7-7.5,2.6l-.1-.1ZM310.8,120.7c-10.8,0-10.9,0-10.7,0,0-.3-.2-.6-1-5.9-.2,0-.2-.1-.3-.1-5.7,5.2-11.2,8.3-19,6.9-5.4-2.1-8.1-4.8-10.6-10-1-4.4-1.2-8.1.5-12.4,1.1-2,2.9-3.5,4.4-5.1,7.6-5.1,16-5.2,24.8-5.8-.2-4.8-.4-8.7-5.3-10.8-3.1-.6-6.7-.4-9.8.3-2.9.9-5.7,1.8-8.5,2.7-1-2.6-2-5.2-2.9-7.8,6.5-2.6,12.8-5.1,19.2-5.3,3.9-.1,7.8.5,11.9,2.4,4.8,3.4,6.6,7.2,7.6,13,0,12.7.1,25.4.2,38.1h-.6l.1-.2ZM337.5,120.7h-13.5c0-26.5.1-53,.3-79.4v-.3c0-.2.1-.3.2-.4h12.8c0,.1.1.2.2.4h0v79.7ZM351.7,120.8c4.2,0,8.4-.1,12.7-.1-4.3,0-8.5,0-12.7.1h-.4c-.13,0-.13-17.47,0-52.4h12.9c0,17.4.1,34.9.2,52.3-.7.7-11.1.1-12.7.1h0ZM364.3,52.5c-1.7,2.8-3.6,3.9-6.8,4.2h0c-6.6-.8-8.3-7.9-4.2-12.6,6.5-4.1,12.9.9,11,8.3v.1ZM397.7,122.2h0c-8.8-.8-14.6-3.8-19.5-11.3-.8-1.6-1.5-3.1-2.2-4.7-4.7-18.2,4.2-37,23.9-39.2,5.5,0,10.6,1.3,15.8,3-.07.53-1.1,3.4-3.1,8.6-1-.07-2.63-.37-4.9-.9h-5.9c-4.1,1-6.8,2.2-9.7,5.3-5.6,8.2-6.6,19.4,2,26,1.1.5,2.2,1,3.3,1.5,5.1.7,10,.4,15-1.2.73-.33,1.2-.5,1.4-.5,1.1,2,3,4.6,3.4,6.8-6.1,3.6-12.4,5.6-19.4,6.4l-.1.2ZM427.1,120.7v-52.2c4.3,0,8.6-.1,12.9-.1h0c-4.3,0-8.6,0-12.9.1,0-.07,4.3-.1,12.9-.1,12.9,0,0,0,0,0,0,17.4.1,34.9.2,52.3-8.73.13-13.1.13-13.1,0ZM435.1,56.6c-.7,0-1.3.1-1.9.2-5.6-1.1-8.1-5.9-5.4-11.2,3.2-3.6,8.1-4,11.5-.2,2.4,5,.9,9.2-4.1,11.1l-.1.1ZM491.8,120.7c-.2,0-.3.1-.5.2-3.6,0-7.2-.1-10.7-.1h.6-.6c-.4-1-.3-1-1.1-6.3h-.5c-4.5,4.5-9.5,7.4-16.1,7.4-10.6-1.6-15.8-10.7-13.7-20.9,4.5-12.3,19.2-12.2,30.1-12.9-.4-4.7-.4-8.4-4.8-10.7q-2-.4-2.2-.6c-6,0-10.8,1.4-16.5,3.5-1-1.6-3.3-6.6-2.9-7.8,5.6-2.7,11.6-4.8,17.8-5.5,2.4.1,4.7.2,7.1.3.2.2,1.7.4,5.1,1.8,6.2,4.1,8,8.4,8.7,15.7v25.8-25.8c0,12,0,23.9.1,35.9h-.1.2Z" fill="#b1b2b4" fill-rule="evenodd"/>
    <path d="M280.7,107.5c1.3,2.9,3.3,3.7,6.1,4.5,4.2-.5,9.9-2.2,12.2-6.1,0-3.2,0-6.4-.1-9.6-7.4.2-19.9.7-18.2,11.2Z" fill="#b1b2b4" fill-rule="evenodd"/>
    <path d="M245.7,92.1c-.2-.1-1.6-.1-12.9-.3h0c11.3.2,12.7.2,12.9.3Z" fill="#b1b2b4" fill-rule="evenodd"/>
    <path d="M479.3,96.3h0c-7.1.2-22.5,1.7-17.5,12.6,4.7,6.6,13.2,1.2,17.6-2.5v-10.1h-.1Z" fill="#b1b2b4" fill-rule="evenodd"/>
    <path d="M300.1,120.6h11.3c-3.8,0-7.5-.1-11.3-.1v.1Z" fill="#b1b2b4" fill-rule="evenodd"/>
    <path d="M258.8,81h0c0,11.9,0,23.8.1,35.8h0v-35.8h-.1Z" fill="#b1b2b4" fill-rule="evenodd"/>
    <path d="M479.3,101.9v4.4h0c0-3.3,0-6.6.1-9.9h-.2v5.6l.1-.1Z" fill="#b1b2b4" fill-rule="evenodd"/>
    <path d="M258.8,81h0s0-.1.1-.1h0s-.1,0-.1.1Z" fill="#b1b2b4" fill-rule="evenodd"/>
    <path d="M124.3,14.2c136.7,0,273.5-.1,410.3-.1-273.53,0-410.3.03-410.3.1h0Z" fill="#b1b2b4" fill-rule="evenodd"/>
  </g>
</svg>