<?xml version="1.0" encoding="UTF-8"?>
<svg id="Capa_1" data-name="Capa 1" xmlns="http://www.w3.org/2000/svg" viewBox="0 0 160 72">
  <path d="M30.89,17.57c-.39-.09-.84-.18-1.23-.36-.18-.09-.38-.2-.5-.22-.51-.15-1.09-.42-1.57-.54-.42-.06-.94-.11-1.45-.06-.75-.12-1.09-.28-1.84.06-.35.15-1.12.51-1.65.39-1.12-.29-1.61.33-1.77.61-.19.31-.63.46-.79.69-.48.19-1.05.46-1.23.66-.16.21-.49.11-.64.28,0,.21-.32.51-.63.69-.1.05-.26.15-.37.21-.12.05-.26.12-.3.15-.27.43-.67,1.09-.75,1.95-.17.4-.4,1-.4,1.9-.21.51-.15.75-.08,1,.14.51.2.97.53,1.42.23,1.41-.13,1.96,1.14,2.77.88.37.3.99,1.02,1.41.49.12.61.51.39,1.36-.06.51.23,1.24.36,1.93-.12.39-1.07,1.06-.99,2.49-.35.57-.35,1.14-.39,1.6-.05.49-.67.42-1.41.49-.37.08-.81.18-1.11.26-.66.15-1.2.36-1.74.79-.47.21-1.01.46-1.17.64-.09.07.02.7-.03,1.05-.05.17.03.45.32.78.09.4.3.72.57.72l.38-.07c.31.14,1.92,1.96,2.71,2.16.39.2,1.84,2.03,2.5,2.35,1.12.49,2.44,1.62,3.51,1.69.46.4.77.9,1.26,1.19.45.24,1.12.25,1.32.24.23.12.01.21-.28.35-.43.02-1.12.39-1.57.67-.34.22-1.38.63-1.93.9-.03.44.91.34,1.66.46.27,0,.93-.79.93-.79.79-.47,1.12-.64,1.65-.88.64-.27,2.34.46,3.45,1.33.63.48.54.84,1.27.27.3-.18.52-.6-.12-.54-.25-.12-.52-.3-.81-.46-.39-.26-2.47-1.1-3.27-1.29-.12-.04-.03-.16,0-.21.65.28,1.53.63,2.49.66.39.14,1.11.36,1.71.21,1.81-.51,1.5.49,2.71.18,1.24-.32,2.62-1.43,2.79-2.79-.21-.41.76-.08,1.67-.17.43-.12.87-.45,1.48-.45.44,0,.71-.52,1.57-.52.26,0,.52-.24.18-.39-.74-.31-1.44-.58-2.14-.28-.47-.16-1.02-.07-1.24-.09.13-.06.18-.24.61-.21.25,0-.03-.3.6-.36.25.19.61.13.85-.35-.29-.35-.22-.41.45-.45.24-.02.9-.18,1.78-1.06.16-.12.52-.6.88-1,.51-.29.73-.64.82-.79.03-.06.17-.39.27-.5.24-.21.72-.48.5-.7-.38,0-.71.39-1.07.35-.67-.12-.99.1-1.44.36-.31.15-.59.29-.83.36-.41.5-1.09.64-1.18,1.22-.28.45-.56.63-.56.28,0-.4.59-.99.42-1.26-.18,0-.24.08-.31.29-.17.75-.6.76-.59.45.35-.27.52-1.23.54-1.86.02-.37-.12-.51-.19-.66-.02-.34.04-.63.09-.72-.02-.1-.17-.52-.31-.12,0,.28-.3.88-.54,1.35-.67.58-.57,1.17-.8,1.23-.12-.2-1.08-.75-1.69-1.65-.61-.88-1.36-1.51-1.69-1.98-.09,0-.25-.17-.33-.3-.3-.15-.35-.66-2.47-.96-.88,0-1.33-.18-1.33-1.15,0-.42.46-.73.96-.73.85-.03,2.11-.72,1.51-1.83-1.03-1.04.6-.63.07-1.77-.04-.07,0-.25.08-.31.25-.24.52-.53.09-1.26-.12-.69.09-.97.55-.94,1.45.1,1.59-.44,1.31-1.44-.2-.33-.52-.81-.65-1.24-.17-.61-.68-1.39-.87-1.66-.24-.38.4-.93.31-1.74.03-.49-.35-1.38-.35-1.95,0-.47-.09-.85-.31-1.13.3-.79-.29-1.75-.52-2.05-.07-.15-.65-.66-.83-.61M38.3,45.13c.21,0,.36.14.33.24-.99.3-1.11.09-.96-.27.2-.48.91-1.04,1.03-.54-.03.15-.4.22-.55.33l-.09.16c.09,0,.15.08.24.08M28.48,41.06c-.26,0-.6.44-.47.57.15.07.38-.14.41-.27.03-.1.16-.26.06-.3M27.63,41.11c-.1.08-.12.14-.12.3.08,0,.25-.12.41-.16.11-.08.09-.21,0-.21,0,0-.24-.03-.29.07M27.63,40.95c.14-.03.09-.14-.04-.15-.17-.12-.32.05-.32.21.06.04.24.03.36-.06M28.88,41.58s-.11-.09-.18-.08c-.16.06-.51.26-.54.39l.09.16c.16.1.63-.32.63-.47M27.35,40.27c-.02-.07-.33.09-.32.22l.09.09c.07,0,.21-.06.28-.16l-.05-.15M16.58,40.11c-.12.19-.57.12-.91.22-.42.12-1.29.33-1.75.47-.54.16-1.01.69-1.22.66-.49-.08-.36-.58.64-.78.25-.05.48-.25.48-.33-.05-.23-.46-.11-.59.02-.33.33-.54.28-.54.22s.23-.26.49-.33c.13-.11.36-.26.48-.28.24-.27.49-.45,1.02-.62.58-.17,1.23-.31,1.9-.31.51-.08.97-.09,1.21-.22.32.08.27.37.47.56l-.24.25c.01.15.39.12.36.28-.06.35-.76.27-1.14.06-.81-.47-.66.04-.66.13M19.29,38.55c.61.27.68,1.35-.76.56-.34-.21-.6-.56-.36-1.04-.25-1.3.21-1.45.33-.54.06.34.76.6.79,1.02M21.27,37.59c.18.64.8,1.26.49,1.89-.25.54-.75.21-.75-.8,0-.28-.25-.53-.42-.69-.16-.14-.39-.24-.48-.32-.16-.13-.39-.4-.24-.6.05-.51.31-.92.49-.64.2.32.76.77.91,1.16M21.25,38.61c-.28,0,.03.48.14.68.13-.11.1-.56-.14-.68M20.14,40.2c-.06.04-.3.18-.39.22-1.08.54-1.06-.49-.51-.8.36-.2.93-.04.9.58M38.32,44.09c-.42.25-.84.64-.99,1.08-.31.95-1.08,2.04-1.65.46-.03-.15,0-.38-.24-.59-.35-.36-.72-.88-.82-1.48-.09-.28-.18-.55-.42-.81-.08-.09-.31-.21-.28-.49-.24-.37-.55-.76-.93-1.08-.6-.5-1.41-1.96-.43-1,.12.06.09-.51,0-.6-.18-.18-.46-.18-.55-.26-.41-.22,0-.25.14-.21.03,0,.22,0,.15-.11-.5-.16-1.31-.45-1.72-.86-.8-.13-1.02-.66-.18-.39,1.05.32,2.23-.06,3.95,2.2,1.17,1.53,2.11,2.29,2.46,2.58.18.16,1.38.74,1.38,1.05.23.02.14.42.14.51M37.2,44.93c0-.15-.02-.21-.12-.2-.24,0-.47.72-.47.88.15,0,.59-.51.59-.68M36.73,44.46c-.16-.09-.54.45-.54.6l.09.09c.17,0,.76-.53.45-.69M35.25,42.46c-.28-.16-.25-.51-.47-.61-.16,0-.49-.25-.66-.55-.52-.24-1.42-1.42-1.41-.93,0,.25.36.57.54.79.48.6,1.35,1.06,1.62,1.72.24.54.81,1.53,1.06,1.75.22.09.28,0,.35-.06.15-.08.24-.31.1-.41-.57,0-.12-.3-.12-.54-.02,0-.29,0-.29-.13,0-.25-.15-.43-.31-.35-.11-.21-.15-.37-.36-.4-.11,0-.05-.22-.05-.28M14.46,41.81c-.96,1.02-1.93.14-.81-.4.24-.12.78-.3,1.24-.48.66-.25,1.35-.53,1.8-.3.06.11-.63.27-.94.39-.64.04-.9.41-1.29.79M21.6,40.03c.59.17,1.12.39,1.5.72.35.25.73.43,1.09.58.61.27,1.42,1.07,1.71,1.57.57.49.79.7.97,1.18-.33,0-.74-.33-1.03-.74-.44-.33-.96-.61-1.02-1.08-.04-.42-.39-.61-.54-.39,0,.09.15.33.24.4-.24.09-.99-.56-1.29-.92-.27-.15-.68-.67-1.02-.81-.49-.1-1.74-.46-1.76-.54-.04-.3,1.15.03,1.15.03M24.31,48.66c-.14-.18-.35-.17-.45-.11-.03.12.06.3.41.44.21.07.42.59.49.28.1-.16-.29-.44-.45-.61M25.22,48.75c-.09-.09-.18-.21-.27-.28-.12-.15-.3-.34-.43-.25-.17.12-.09.22.06.33.34.15.6.88.84.97l.15-.14c.07-.16-.2-.48-.35-.63M22.24,45.38c.12.16.15.21.21.3.09.14.13.35.18.39-.01.12-.21.2-.26.05-.07-.31-.42-.33-.42-.55-.41-.68.34-.4.29-.19M22.96,43.79c-.12-.12-.45-.42-.61-.66-.49-.8-.94-2.43-1.41-1.89,0,.09.08.16.18.31.33.51.71,1.33,1.02,2.15.4.69.63,1.56.76,2.16.35,1.2,1.1,1.5-.27,1.65-.05,0-.27.07-.22.21.49.51,1.3.18,1.41-.09.29.27.33,0,.35-.09.03-.15-.09-.25-.31-.3-.09-.03-.27-.61-.42-.9-.01-.05-.08-.15,0-.21l.18.18c.17.11.32,0,.17-.21-.03-.06-.17-.18-.29-.3-.51-.56-1.05-2.09-.01-.68.26.35.31.9.81,1.14.62-.01-1.07-1.93-1.34-2.47M23.74,43.16c-.08-.07-.18-.2-.33-.37-.85-1.15-1.45-1.8-1.89-1.64-.07.08,0,.17.07.18.51.12,1.29,1.56,1.64,1.83.25.18.97,1.32,1.37,1.32l.14-.14c.06-.06-.11-.18-.2-.27-.25-.19-.58-.59-.8-.91M25.24,44.93c-.09-.18-.33-.39-.46-.2.09.18.22.37.27.52.23.24.53.13.19-.32M26.08,45.5c-.14-.14-.33-.18-.51-.04,0,.16.08.24.18.28.27.06.49.25.66.42.18.15.42-.06.36-.27-.05-.1-.26-.27-.69-.39M30.17,46.13c-.09,0,.06.34.19.34.26-.05.05-.52-.19-.34M28.58,48.13c-1.07.03-1.44-.14-2.08-.41-.42-.18-.87-.39-1.15-.63-.27-.24-.42-.28-.5-.07,0,.18.16.36.66.51,1.17,1.2,2.35,1.67,2.83,1.67.23.1.32-.27.05-.24-.17,0-.79-.43-.96-.6.94.04,2.49.75,3.63.45.62-.15,1.44-1.04,1.74-1.29.18-.15.39-.35.46-.44.07-.14.35-.67.09-.46-.25.21-1.63,1.57-2.13,1.66-.32.06-.6.19-.92.19l-.33-.05c-.42.01-.99-.29-1.39-.29M33.97,47.33c-.33-.15-.06.32.03.4.29-.07.12-.23-.03-.4M33.77,47.54c-.15-.14-.27-.11-.33.03,0,.24.16.48.4.48.27.04,0-.42-.07-.51M34.57,49.43c-.36.81-1.18,1.24-1.78,1.33-.58.33-.69-.15-.88-.27-.27-.06-.82-.14-1.14,0-1.11.48-2.56,0-3.51-.21-.6-.12-1-.37-1.48-.49-.21-.04-.42.15-.6.09-.27-.09-.75-.02-1.35-.12-.4-.04-.9-.75-1.11-.93-.18-.13-.43-.3-.55-.4-.21-.16-.24-.54-.27-.81-.01-.09-.01-.5-.01-.57-.03-.33-.24-.65-.24-.95,0-.24-.16-.58-.16-.8,0-.15-.15-.45-.15-.57,0-.33-.12-.85-.12-1.03,0-.33-.3-.92-.3-1.44,0-.46-.2-1.14-.52-1.47,0-.27-.08-.39.57-.21.99.3,1.21.33,2.92,1.84.69.52,1.52.9,2.13,1.59.45.27.99.52,1.35.64.52.19,3.07,1.26,3.07.61.01-.57-1.39-.34-2.52-.82-.76-.32-.93-1.2-1.45-1.5-.15-.08-.36-.22-.48-.34.09-.02.21-.09.28-.04.28.15.72.39,1.17.57.15.06.4.12.51.19.42.27,1.04.45,1.46.57.24.04.57.27.61.4.21.72.64.2.64-.51,0-.15.14-.48.14-.9,0-.18-.09-.55-.17-.94.11-.45-.07-1.16-.33-1.43-.52-.55.52-.31.36-.46-.53-.4-.84-.54-1.08-.64-.33-.25-.18-.75.61-.14.81.03,1.53.66,1.56,1.48.02.23.59.99.59,1.47s-.18.21-.42-.12c-.21-.52-.36-1.68-.64-1.11,0,.63.48,1.12.45,1.8.12.45.03,1.05-.02,1.46-.03.16-.16.48-.12.88-.1.24-.27.33-.25.69,0,0,.06.12.03.23-.13.25-.09.54-.09.85.07.35-.26.38-.24.02-.02-.46-.28-.58-.42-.33.09.17.09.35-.06.48-.21-.28-.29-.12-.56,0-.22-.39-.37-.22-.51-.07-.07-.15-.06-.21-.06-.3h-.27c-.39-.02-.7-.32-1.17-.31-.35-.19-.81-.51-.96-.19,0,.57,2.45,1.09,2.93,1.21.76.24,1.4.12,1.55-.08.12-.13.16-.25.12-.4-.07-.3-.07-.42-.05-.61.48-1.01.66-2.07.72-2.34.12-.16.35-.12.28.33.06.24-.03,1.27-.18,1.6.02.33.14.41.15.41.24-.03.36-.41.33-1.74-.02-.56-.05-.87-.05-1.5-.06-.32-.09-.67-.16-.95-.4-1.21.13-.88.48-.34.36.58.4,1.53.28,2.1.1.49.49.24.4-.03-.48-1.29.33-1.17.26.15.04.36,0,.66-.08.9-.25.9.31,1.29.4-.66.69.81.35,1.35.18,1.68-.04.15-.12.3-.12.36-.03.08-.12.15-.19.17.03.22.28.38.28.52,0,.23-.15.27-.37-.06l.02.41c.24.42.22.84.03,1.21.09.09.24.08.33-.03,0-.4.21-1.12.29-1.48.1-.34.15-.75.16-.97.03-.68.48-1.21.48.33,0,.39-.15.96-.33,1.48-.05.63-.28,1.2-.6,1.56M19.71,43.55c-.16-.09-.24-.06-.3.05,0,.24.39.39.57.39.04-.18-.12-.32-.27-.44M19.96,44.29c-.14-.1-.36-.36-.4-.12,0,.24.18.56.42.56.16-.17.15-.37-.02-.44M19.65,44.89c-.24,0-.14.71.27.54.08-.2-.03-.57-.27-.54M19.89,45.88c.03-.23-.09-.2-.23-.16-.09,0-.21.06-.33.16,0,.15,0,.39.09.57.06-.09.47-.48.47-.57M19.9,43.53c.17.04.57.3.69.48.09.16.37.33.37.71,0,.07.07.43.07.48,0,.07-.25,0-.57-.05-.15-.04-.2.28.07.33.08.02.53.23.6.24.12.03.3.27.03.27-.06,0-.33-.1-.39-.19-.06-.07-.24-.15-.31,0-.09.15.14.35.37.41,0,0,.15.04.18.06.06.03.24.19.24.19.06,0,.06.12.09.15-.2.05-.52-.15-.63-.15-.18,0-.48.12-.04.31,0,0,.19.12.4.12.24,0,.39.15.35.27-.02.12-.35,0-.35,0,0-.05-.33-.2-.4-.21-.02,0-.18-.14-.29.03.04.12.31.25.45.33.08.04.42.22.45.24.06.05.11.18.15.21-.21.11-.3-.18-.57-.25-.03,0-.39-.12-.57-.12-.17,0-.37-.09-.51-.09-.11,0-.2-.12-.3-.12-.01,0-.34-.08-.34-.08-.16-.11-.42-.34-.61-.48-.17-.13-.39-.33-.45-.4-.09-.06-.43-.45-.48-.51-.04-.06-.25-.04-.25-.32,0-.06-.18-.37-.18-.37-.13-.14-.48-.5-.87-.62-.24-.08-.63-.43-.81-.56-.03-.03-.34-.42-.37-.45-.06-.04-.38-.23-.39-.24-.35-.21-.27-.77.3-1.16.33-.22.51-.28.6-.6.08-.24.74.08,1.27.26.18-.14-.24-.39-.39-.4-.19-.05-.19-.47.18-.32.63.24.84-.11.96-.15.58.18.79.56,1.6.56,0-.04.19-.28-.75-.46-.63-.29-.48-.75.23-.45.24.41.85.28,1.09.47.33.22.61.79.81,2.05.12.28.18.57.18.76-.06,0-.22-.16-.22-.16-.08-.27-.08-.57-.08-.69l-.09-.22s-.24-.18-.38-.18c-.06,0-.15-.06-.22.04.04.09.17.16.17.16.04.07.26.38.31.48,0,0-.11.08-.24.08-.03,0-.22-.2-.22-.2-.18-.21-.54-.43-1.05-.63-.67-.67-.88-.06-.28.18,0,0,.53.4.77.52.17.06.53.45.62.45M29.55,42.54c.24,0,.51-.34.64-.08-.3.09-.78.44-1.15.69-.21.31-.42.24-.54.12-.03-.07.18-.18.12-.31h-.21c-.45.2-.59-.1.15-.49.48-.25.99-.78,1.31-.78.61,0,.31.53-.14.57-.13,0-.25.2-.18.28M30.44,43.35c0,.31-.51.39-.82.33-.66-.13-.62-.15.11-.64.23-.19,1.04-.46.71.31M30.69,38.65c.49.56-.24.33-.48.18-.09-.06-.34-.03-.42-.04-.42-.06-.38-.4-.12-.51.26-.09.89.18,1.02.37M30.69,29.54c.31-.31.45-.26.64-.14.25.08.66.21.61.84.05.44.59.79-.12,1.24-.2-.02-.22-.3-.52-.13-.12.13-.29.21-.5.21-.12,0-.28-.27-.52-.24-.16.16-.33.49-.42.66l.15.15c.24-.12.39-.38.84-.21.69-.23.98.01,1,.24.05.25-.1.39-.29.3-.04,0-.34-.25-.49-.08,0,.14-.11.39-.23.65.11,0,.27.06.41.18.04.14.16.33.31.51.3.32.36,1.26-.73,1.35-.19,0-.56.02-.94.02-.25.15-.46-.02-.68-.02-.18.3-.23.12-.46.12,0,.1.04.27-.05.3-.09,0-.27-.09-.42-.17-.3.17-.8.2-1.15.12-.06-.19-.27-.15-.42-.03-.07-.09-.03-.23-.18-.28-.09,0-.17.07-.24.07-.09-.14-.14-.35-.28-.14,0,.24.22.47.36.24.08.06.2.3.52.33.21.3.65.55.92.57-.06.28.57.24.66.4-.15.06-.24.15-.15.3-.11.11-.06.27-.03.35.03.09.21.13.37.13,0,0-.47,0-.22.27.1.11.54.04.54.17-.06.12-.33,0-.42.15-.06.11.08.24.22.22.3,0,.26.19.12.16-.12-.03-.35-.06-.43.11l.09.17c.18,0,.32-.03.35.07.06.08-.27.02-.35.16-.06.29.35.23.35.33-.11,0-.16.08-.26.08-.09.24.3.18.26.33-.05.15-.31,0-.35.15,0,.12.11.18.36.33.05.15-.25.12-.33.17-.06.07-.08.3.14.31.01,0-.17.18.06.38.2.09.87.76.86.07-.65,0-.66-1.09-.25-1.26.18-.06.36.14.39.25.12.28.39.8.35.99,0,.14-.14.37-.67.49-.36.09-.73.78-1.26.74-.69.61-.81.57-1.32.32l-.97-.48c-.7-.64-1.54-1.09-2.26-1.39-.61-.24-1.21-.78-1.49-.88.07-.27.07-.71.02-1-.04-.39-.28-.93-.52-1.36-.58-.72-1.62-1.26-1.32-2.09.1-.24-.02-1.26-.05-1.45.03-.27.35-.15.51-.29v-.07c-.84-.09-1.45-.26-1.17-1.71,0-.29-.14-.57-.19-.82.12,0,.21.16.3.49.18.08.2-.27.18-.54.24.03.36.18.41.54,0,.08-.12.21-.07.4.04.05.15.06.24,0-.04-.27.12-.24.29-.07.72.32.36.48.36.72.09.08.21.05.27-.05.12-.15.46-.51.83-.85.07-.63.6-1,.93-1.03l.09-.12c-.39-.09-.62-.12-.71-.57-.03-.21-.12-.42-.22-.55-.36-.47-.88-.71-.88-1.34-.12-.37-.12-.94-.09-1.63.03-.45.43-1.05.81-1.08.38-.15.74-.36,1.14-.14.22.14.63.69.43,1.29-.24.82-.14,1.42.72,1.47.3.08.49-.14.64-.21.3-.04.42-.12.67-.43.96-.32,1.11-1.03.87-2.11-.02-.52.34-.39.33-.72.15-.21.33-.39.51-.44.3-.04.61-.18.9-.49.33-.77.73-.74.88-.77.69-.09.66-.94,1.45-1.41,1.18-1.18,1.48-1.02,1.48.27,0,.48.22,1.21.3,1.42.18.42-.09.93-.27,1.66-.11.41.6.97.67,1.41.19,1.04,2.04,2.95.24,3.07-.28-.14-.78-.16-.91,0-.26.28-.9.18-.99-.37.01-.08,0-.17.04-.29.45-.55-.51-.64-.33,0,.12.3-.41.81-.41,1.09l.14-.08M22.15,23.53c.18.19.47.34.6.42.25.14-.04.27-.43.09-.27-.14-.75-.46-.87-.64-.05-.06-.03-.12.06-.15.28,0,.39.21.64.28M19.34,31.99c.03.37-.11.73-.17.54-.11-.45-.17-.87,0-1.27.15-.07.19.21.17.73M21.76,31.74c-.13.09-.24.21-.45.08-1-.49-.45-.69.03-.44.38.07.57.17.42.36M18.57,29.47c0,.15.02.36.03.46.21.63-.32.61-.51-.37.05-.18.19-.45-.08-.58-.12-.06-.31.08-.6-.08-.39-.4-.79-1-.79-1.59.01-.87.09-.94-.25-1.84.06-.27.36-.16.72.31.04.06.15.29.17.42,0,.12.03.31.19.31.04,0,.15-.03.21.04.03.03.04.28.09.32.08-.2.24-.29.25-.12.09.22.03.45.16.57.11-.06.12-.21.12-.3.39-.02.41,1.11.18,1.2-.33.12-.87.01-.72-.8.09-.49-.18-.42-.23-.28-.06.21,0,.88.57,1.39.35.07.49.53.49.94M19.13,29.26c-.08.29-.06.56.09.72.13.15.04.47-.08.47-.48-.06-.33-.84-.4-1.21-.11-.52.39-.63.39.02M17.46,23.91c.06,0,.11.08.11.15,0,.09-.05.15-.11.15-.04,0-.09-.06-.09-.15,0-.08.05-.15.09-.15M16.58,24.36c.06.2.33.63.02.71-.76-.35-.38-1.9-.05-1.18-.09.15.03.3.03.47M17.3,21.36c-.09.27-.12.61-.03.82.39.84.55,1.21.11,1.24-.01,0-.16-.16-.22-.16-.11.15-.06.34,0,.45.06.17-.14.22-.27.22-.25-.09-.66-1.36-.15-1.36.26.03-.03-.75.03-1.2.06-.48.27-.94.75-1.06.21-.06.25-.24.53-.26.12,0,.37.15.06.28-.11.03-.33.28-.21.35.4.19.01.81-.11,1.26-.04.2-.03.3-.17.26-.28-.08-.18-.83.02-1.08.16-.23.12-.41,0-.24-.18.15-.25.31-.34.48M26.44,25.8c.11.75-.27,1.06-.24.76.03-.48-.03-.64-.16-1.17-.06-.22,0-.54.03-.72.07-.24.21-.12.21.18-.01.28.16.83.16.95M24.4,26.63c.03.36-.48.48-.21.11,0,0-.07,0-.07-.03-.08.04-.14.09-.23.06-.09-.51.6-.65.51-.14M23.98,25.63c-.14-.23-.21-.18-.24.03.07.12.07.23.22.27.24-.15.05-.33.02-.3M24.74,24.19c-.21-.16-.29-.1-.24.04.08.11.06.14.21.2.24-.16.06-.25.03-.24M26.54,22.84c-.25.06-.25.17-.09.21.12,0,.14.03.27-.08,0-.26-.18-.17-.18-.13M20.79,27.1c-.22,0-.24.09-.09.21.14,0,.14.02.25-.08,0-.18-.16-.15-.16-.13M20.74,26.62c-.21,0-.21.07-.08.16.11,0,.11.03.21-.04.01-.17-.13-.13-.13-.12M24.92,23.8c-.25,0-.25.1-.09.22.14,0,.15.01.28-.07.01-.19-.19-.16-.19-.15M24.51,19.78h-.2v.03h-.01s-.06.13-.06.18l.07.11h.01s.01.01.01.01h.09s.27.03.27,0h.02s.01-.01.01-.01l.02-.02s0-.15-.03-.15c0-.02-.03-.03-.03-.05v-.02c-.06,0-.03-.06-.07-.06,0-.02-.01,0-.01-.02-.04.02-.05-.01-.09,0M21.43,28.73c.55.57.37.71-.18.45-.16-.08-.39-.38-.39-.75,0-.39-.17-.6-.28-.72-.09-.11.04-.2.04-.2.68-.16.41.79.81,1.22M20.41,29.77c-.07-.15-.12-.29-.12-.45v-.34c-.08-.72-.66-1.18-.78-.89.18.66.11.57.3.64.09,0,.18-.06.05-.27.04-.12.18-.06.18.14,0,.15.13.43.09.61-.08.42-.19.27-.33.07-.12-.07-.08.27-.02.4.18.42.75.82,1.17.82,0-.04.05-.13.08-.18.06-.07.16-.13.16-.22-.28-.06-.63-.17-.78-.33M20.05,20.88c0,.24-.13,1.2.22,1.53.56.64-.03.74-.4.3-.19-.24-.33-.67-.25-.94.07-.25,0-.48-.14-.4-.14.52-.22,1.36.39,1.65.33.14.24.4.12.4-.57,0-.77-.61-.77-.77-.09-.12-.25-.09-.25.07.01.09.16.17.16.24.08.25.17.45.44.52.15.05.15.25.15.37-.01.24-.21.37-.3.37-.25-.04-.27.18-.16.42.28.05.22.49.46.51.11,0,.2-.3-.03-.33-.27-.03-.06-.54.38.06.12.12.28.36.55.59.06.03-.01.21.04.29.04.06.02.15.21.2.4.15.16.52-.31.31-.2-.1-.57-.39-.69-.57,0-.19-.39-.15-.38.01-.07.19,1.02.48.41,1.17.17.24.18.6.49.96.42.45.31.49.29.81-.24.14-.2.38-.07.52.21,0,.3.24.51.3.18.03.64.05.78.12.27.11.22.39-.21.76l.14.14c.13.09.43-.03.54,0,.32-.03-.07.69-.43.78-.34.09-.91-.44-.96-.44-.46-.09-.72-.25-1.06-.25-.17-.06-.28-.2-.36-.41-.12-.33-.36-.75-.12-1.2.03-.02-.08-.72-.27-.6-.33.21-.45.03-.42-.16,0-.25.04-.6.01-.72-.09-.49-.04-.49.39-.13-.1-1.48-1.81-.48-2.2-2.41-.06-.47.15-.57.27.12.15.27.31.57.4.57.2.03.08-.21.03-.27-.56-.54-.15-1.23.09-.33.07.08.16.21.27.2.15-.05.03-.22-.03-.28-.09-.06-.24-.35-.21-.61.02-.16-.06-.36-.03-.44.21-.01.3.2.39.2.16,0,0-.25-.03-.3-.45-.6.05-.47.24-.08.03.06.06.21.12.3.29.28.46.9.46.96.22.3.18-.26.15-.38-.21-1.28-1.59-1.29-.91-3.3.09-.28.22-.49.22-.57.08-.57.44-.6.23,0-.03.14-.24.51-.15.78.06.04.33-.36.34-.75.02-.19.18-.48.15-.7-.2-1.05.63-1.23.63-.02.06.14.23-.11.24-.48.23-.2.25.61.23,1.31M23.99,22.74c0,.06.06.19.16.21.11.02.44.28.56.34.21.11.22.23-.08.2,0,0-.12-.09-.27-.15-.16-.07-.3-.15-.48-.19-.18-.03-.2.07-.09.15.08,0,.32.25.39.33-.03.07-.09.17-.15.17-.19,0-.54-.09-.79-.08-.33.02-.81.03-1.01-.24-.22-.3-.4-.41-.63-.46-.22-.08-.24-.34-.21-.44.06-.41-.11-.42-.28-.41-.17,0-.09.2,0,.32.09.12.09.14.04.45.02.61.14.92.87,1.17.15.03.44.22.66.22.24,0,.52-.21.74-.3.42-.15,1.02.21,1.09.6.03.17-.01.29-.15.3-.15.03-.16-.27-.42-.18.45.63.07.64-.14.32-.01-.03-.07-.06-.16-.02,0,.15-.16.18-.22.02-.38-.44-1.35-.17-1.6.07-.19.12-.36.51-.57.47-.45-.24-1.17-.8-1.27-1.09-.32-.63.21-.63.49.09.15-.08-.12-.7-.2-.94.33-.33.67.54,1.08.54.04-.14-.11-.31-.38-.45-.27-.14-.16-.58-.16-.84.01-.2-.02-.32-.06-.39-.78-.42-.47-1.36-.57-2.55-.06-.81-.6-.88-.34-1.14.16-.14.57.43.73,1.03.11.35.11.87.13,1.27,0,0,.02.46.63.86.27.16.51.82.91.82.04-.08.03-.12-.12-.23-.18-.09-.25-.16-.19-.24.09-.09.19-.06.27-.06-.03-.41.18-.45.58-.45,0-.63.69-.22.79.3.06.33.42.21.42.6M27.85,23.71c-.46.17-1.52.36-1.69.47-.51.27-.5.43-.54.82.24.23.22.48.22.71.14.46.14,1.12-.09,1.09-.16-.17-.25-.02-.27.04-.03.12-.13.28-.2.32-.06.03-.13-.02-.22-.02-.12.02-.12.35-.26.39,0,0-.76.16-.76-.33-.02-.08.02-.15.26-.15.19,0,.45-.33.29-.72-.27-.63.03-.96.25-1.33.14-.66.54-1.08.88-1.38.25-.23,1.14-.36,1.51-.71.23-.07.39-.1.4.08-.01.11-.12.18-.03.27.16.03.39-.2.39-.2.37-.01.07.4-.14.65M29.16,22.21s-.15,0-.07.21c.03.09-.04.13-.18.18-.24.09-1.53.12-1.48-.12.06-.27.66-.81.9-.81.09-.03.17-.18.08-.35.27-.84,1.24-.8,1.72-.8.45,0,.44.15.39.18,0,0-.34.06-.45.12-.09.08-.15.37-.34.43,0,.08-.09.29-.26.42.07.23-.14.51-.31.54M25.97,21.27c.21,0,.42.1.4.3.73.36-.09.47-.71.25-.16-.05-.42-.06-.6-.18-.14-.06-.23-.15-.31-.3-.11-.09-.32-.15-.33.02.33.81,1.68.81,2.28.79.28,0,.58-.46.72-.24-.03.32-.25.45-.71.47-.09,0-.31.24-.52.24-.3,0-.57-.03-.68.05-.04,0-.1.15-.04.16.28.08.15.32.02.32-.51,0-1.08-.05-1.28-.53-.47-1.11-1.09-.94-.56-1.68.27-.06.29-.21.08-.23-.38-.39.13-.46.35-.36.3.06.57.66.67.4.01-.72,1.22.52,1.22.52M29.13,20.06c0,.87-.9.55-.85.14.02-.14-.12-.21-.27-.28-.15-.09-.45-.22-.27-.33.33-.27,1.39-.17,1.39.47M28.17,20.64c.14.57-.12.6-.3.48-.13-.12-.34-.23-.43-.16l.09.16c-.02.09-.11.15-.2.15-1.48.01-2.44-1.18-2.41-1.35.01-.09.12-.09.25.07.33.35,1.12.72,1.59.72.04-.1.19-.28-.58-.3-.2-.09-.29-.16-.36-.25-.11-.04-.23-.07-.29-.13-.26-.25-.15-.39.13-.17.16.12.29.24.56.33.18.06.33.14.51-.03.93-.6,1.44,0,1.44.48M28.41,18.11c-.11-.03-.2-.04-.33.03.03.12.37.3.58.22.01-.15-.16-.25-.25-.25M29.3,18.77c-.15.09-.39-.12-.68-.12-.31,0-.6.02-.72.12,0,.01,0,.09.24.09.33,0,.66.05.66.16,0,.09-.25.15-.52.18-.21.24-1.09.3-1.41.13-.25-.17-.39-.12-.35,0,.09.11.24.14.36.23.26.18-.18.18-.63-.08-.05-.11-.28.02-.09.05.12,0,.33.46-.19.33-.24-.12-.61-.38-.76-.45-.42-.24-.49-.85.03-.85.25,0,.49,0,.66-.42.03-.09.15-.17.34-.12.18.03.36.01.54,0,.21-.03.45-.24.63-.3.66-.2,1.14-.07,1.21.15-.03.12.54.05.57.36-.09,0-.11-.03-.29.01-.08.04-.03.14.04.2.26.03.51.16.36.33M21.91,19.66c-.15-.15-.35-.43-.44-.54-.09-.12-.17-.21-.21-.12-.02.2.18.36.17.57-.04.56.78.86.48.09M26.11,17.13h-.02c0,.05-.11.1-.03.19l.09.12s.28.02.28.02c0,.01.18.06.2.06.11-.04.06-.1-.04-.18-.11,0-.2-.21-.48-.21M24.47,19.29c0,.49-.52.53-.94.53-.15.1.25.25.07.43s-.56.26-.75.14c-.69-.44-.79.24-.35.49.09.04.09.24-.11.18-.19-.03-.56-.39-.76-.67-.34.07.57.72.45.9.42-.01.53.24.12.24-.08,0-.26.03-.38-.02.09.07-.23.06-.15.12.31.33,0,.52-.5-.03-.06,0-.35-.4-.36-.85-.01-.43.2-1.21-.63-2.14-.06-.1.18,0,.18,0,.13.12.25.28.38.49.12.14.19.27.21.48.11.28.22.57.39.73,0-.05.28-.06.14-.17-.29-.24-.31-.73-.45-1.02-.28-.51-.54-.76-.33-.96.26-.24.62.12.74.44.48-.1.09-.45-.18-.57-.18-.27.9-.19,1.07-.01.24.3.24.53.48.51.24.03.05-.24.09-.27.15-.1.71-.12.89.06-.06.12-.39.12-.49.09-.19-.07-.25.12-.22.14.24.19.52.22.88.01.6-.43.37-.66.54-.97.34-.51,1-.54,1.29-.27.11-.04.12-.12.11-.16-.11-.16-.72-.14-.72-.25.2-.24.72,0,1.14,0h.51c.45-.03.72.01.84.18.16.2-.06.33-.42.4-.71.54-1.14.36-1.67.15,0,0-.13.01-.12.04.05.08-.06.33-.39.08-.03,0-.09.02-.14.03-.02.01-.08.09-.08.14,0,.21-.13.78-.34.85-.41.12-.34.12-.04.51M24.28,17.58c-.22.39-.57.45-1.08.45-.27,0-1.11-.4-1.5-.45-.12,0-.18-.09-.18-.15-.01-.16.42-.21,1.02-.21.23,0,.51.02.75.02.69-.23.63.03.63.12.03.06.18.06.22-.04.26-.58.5-.47.14.26M31.43,18.89c-.04.21-.22.45-.4.47-.3.06-.25.15-.25.3.12.09.17.03.36,0,.14-.03.28-.2.28-.21,0-.03.09-.15.09-.21v-.19c-.01-.28-.08-.14-.08-.16M30,18.28c-.08-.12.18-.25.21-.15.03.06.22.34.36.15.08-.15.3.09.36.15l.16-.07c.07-.08.01-.14-.16-.21-.5-1.15,1.84.82.54,1.86-.17-.12-.38.12-.47.18-.4.12-.93.12-1.15.12-.24,0-.42-.18-.33-.24.17-.12.57-.78.57-1.09,0-.33.08-.57-.09-.7M31.83,21.97c-.33-.06-.51.02-.42.11.03.03.24.07.33.07.06.06.3-.13.09-.18M31.83,21.63c-.18-.06-.33-.05-.49-.02v.15c.21.05.43.05.62,0l-.13-.13M31.85,20.88c-.09-.09-.15-.09-.27-.01-.1.09-.31.16-.31.48.06.06.31.15.48.09l.14-.12c-.01-.1-.04-.28-.04-.44M31.23,25.48c.21-.04.48-.09.08-.43.31-.27.17-.49-.08-.51-.12-.07-.25-.03-.3.21-.24-.08-.68-.19-.98-.08-.1.05-.48.22-.72.22-.2,0-.36.09-.44.18,0,.09-.78.73-.87.73-.06.2.06.27.17.46.27.06.77-.21.42-.27-.18,0-.3-.05-.37-.05.28-.14.45-.36.66-.69.24-.09.24.22.59-.23.3-.1.81-.06,1.31.21-.74,0-1.07.15-1.47.55,2.08-.43,1.33.12,1.09.18-.24.02-.84.06-1.09.33v.06c.41-.06,1.04-.14.96.19-.06.17.11.36-.13.46-.32.17.65.79.67-.41,0-.19.21-.51.39-.51.2,0,.23-.12.2-.28.09-.09.06-.2-.09-.32M22.81,26.71c0,.22-.01.37-.09.43-.12.09-.3.17-.39.24-.14.12-.24-.12-.17-.52.02-.06.09-.21.09-.29.04-.7.4-.49.55-.02v.16M22.21,26.03c-.2.61-.23,1.44-.14,1.54.11.35.32.5.48.71.15.15.09.42.49.42.11-.17.11-.25-.06-.46-.09-.03-.24-.07-.34-.12-.05-.11.07-.42.14-.54.16-.37.3-.43.3-.94,0-.27-.14-.82-.56-.82l-.31.21M25.81,35.16c.24-.3,0-.42-.22-.48-.2.17.07.5.22.48M25.24,34.52c-.24-.09-.15.4.09.4,0-.07,0-.4-.09-.4M24.76,34.2c-.15,0,.09.47.09.47.13.04.24-.5-.09-.47M24.28,33.92c0,.16.11.49.27.49.06,0,.12-.12,0-.25,0-.2-.15-.42-.27-.24M23.52,32.84c-.32-.42-.19.18-.11.33.03.03.19.03.24.11,0,0,.01.24.1.29.18.11.32.31.35.37.15-.15.12-.35-.24-.54-.01-.18-.13-.28-.25-.33-.05-.04-.08-.17-.09-.23M22.97,32.23c-.08.16.06.3.15.42.09-.23.09-.56-.15-.42M40.15,21.9c0-.24-.46-.36-.6-.36-.16.3.45,1.08.84,1.08.07-.02-.15-.66-.24-.72M43.52,35.88c0-.15.12-.39.1-.64-.15-.07-.33.26-.46.39-.19.22-.4.42-.4.59,0,.39.38.59.76-.34M42.84,30.61c-.15-.54-.25-1.47-.76-1.81-.3-.23-.8-.81-.85-.71,0,.42.07.87.18,1.34-.11.84,0,1.84.54,2.43.14.14-.06.32.03.45,0,.24.15.02.45.03-.06.35.11.61.18.72.04,0,.19-.09.18-.27-.06-.46.05-.98.14-1.25.15-.44-.02-.83-.09-.93M45.2,31.95c.29-.35.56-1.35.5-2.43,0-.26.3-.74.24-.9.16-.16.24-.48,0-.72.09-.09.21-.15.21-.31-.05-.17-.26-.2-.39-.08-.06.24-.36.57-.51.88-.27.21-.66.25-.74.45-.12.21-.24.88-.58,1.2-.4.36-.42,1.11-.43,1.6-.65.66-.41,1.78-.74,2.53.36.52.49-.75.74-.99.3.02.12.51-.22,1.04-.29.48-.63,1.21-.51,1.32.33.12.64-.58.9-.75.15-.12.25-.2.37-.36.14-.24.69-.46.88-.78.14-.57.47-.66.28-1.04.09-.22.1-.36,0-.66M42.05,33.57c-.08-.96-.81-1.68-.93-2.1-.08-.06-.15.28-.08.52,0,.21-.11.49,0,1.17.03.27-.21.89-.12,1.11-.18.39.38.81.21,1.22.03.27.09.57.15.73.14.07.28-.18.14-.71-.08-.4.43.02.46.57,0,.4-.21.91-.09,1.26.29.08.46-.79.51-1.57.18-.34.18-1.9-.25-2.2M44.4,38c.13-.27.34-.92.32-1.47.75-1.29.55-1.25.22-1.12-.37.25-.75.78-.88.93-.3.36-1.24.56-1.63,1.1-.3.37-.73,1.38-.81,1.98-.03.22-.29.45-.39.52.06.19.16.18.39,0,.31.03.12.31.06.53-.15.43-.96.63-1.06.9l.04.21c.48,0,1.04-.73,1.53-.97.22-.15.49-.57,1.02-.93.7-1.36,1.15-1.21,1.19-1.68M40.85,38.93c.18-.57.45-1.45.09-2.12,0-.72-.31-1.52-.51-1.32-.06.24-.1.27-.18.39.09.2,0,.54-.15.92-.13.27-.37.61-.42.9-.25.33-.3.81-.33,1.16,0,.26-.17.57-.17.75.03.66.18,1.29.09,1.87.12.12.22-.09.28-.09.24,0,.05.17.02.62.03.03.15.15.24.06-.08-.38.36-.91.8-1.29.13-.12.27-.81.19-1.17.05-.28.05-.52.05-.68M44.48,25.74c.28-.46.24-1.16.1-1.77-.35-.49-.45-1.2-.6-1.3-.15-.12-.37,1.21-.87,1.75-.2.49-.3.91-.3.99,0,.27-.03.54-.06.77-.17.25-.04.43,0,.57.53,1.29-.33,1.63-.24.24.08-1.02-.45-2.28-1.26-2.91-.27-.19-.39-.49-.75-.7-.06-.09-.13-.25-.16-.33-.22-.16-.22-.04-.32-.04-.06.02-.09.25.15.37.14.08.21.32.33.52.09.63.24.79.21,1.6.15.71.38,1.22.69,1.63.33,0,.42,1.05.49,1.08.28.15.22-.04.39-.25,0,0,.11.02.15.09-.06.33.11.57.3.65.07.01,0,.24,0,.37.07.12.21.19.3.24.15,0,.24-.31.15-.66-.06-.33.36-.41.17.49-.07.33-.15.75-.07,1.06.27.08.27-.9.69-1.32.33-.32.48-1.01.53-1.24.08-.63.08-1.29-.01-1.9M42.13,21.09c0-.72-.39-.88-.89-1.71-.09-.24-.22-.27-.27-.13,0,.33-.18.97-.25,1.23-.06.57,0,1.69.25,2.1.13.19.48.85.58,1.05.12.09.25.06.25-.12,0-.15.21.08.26.24.09.76.22.87.39.94.12.12.24-.3.1-.88.16-.69.45-1.33-.18-2.02-.04-.23-.14-.46-.24-.7M40.34,19.73c.22-.08.22-.36-.07-.8-.24-.6-.6-.6-.75-.49,0,.24.37.54.42.9-.03.09-.21.11-.31-.01-.19-.33-.61-.78-1.05-.96-.07-.06-.12-.27-.3-.26-.11,0-.17.11-.21.24,0,.12.18.35.22.63.09.48.37,1.03.6,1.18.06.08.21.18.21.18,0,0,.08.12.26.33.03.04.25.24.46.29.31.07.3.54.63.43.08-.03.08-.29-.06-.51,0-.32-.05-.75-.05-1.15M37.78,17.76c0-.2-.35-.49-1.05-.49-.3-.06-.59-.24-.69-.12,0,.16.27.3.33.54.06.23.21.46.45.63.52.13.82.54,1,.54.12-.05.09-.41,0-.55.09-.17.05-.4-.04-.55M19.9,35.88c0,.57-.45,1.21-.24,1.78.08.21.51.4.85.6.33.09.35,1.33.28,1.19-.04-.08-.24-1.01-.42-.65.48,1.11-.38,1.02-.32.68.12-.63-.24-.93-.56-1.22-.13-.24-.27-.4-.4-.45-1.3-1.15-.28-2.8-.09-3.28.43-1.09,1.12-1.08.88.21.1.27.1.9.02,1.14M7.08,24.18c-.06-.11-.18-.16-.32-.06-.07.03-.11.24-.09.4l.18.08c.05-.01.32-.15.23-.42M11.54,42.82c0-.09-.08-.35-.17-.45-.04-.12-.27-.11-.39,0,0,.25.24.56.24.74.09,0,.15.08.15.15.26,0,.32.61.56.61.18-.42-.25-.69-.39-1.06M8.9,39.66c-.06-.13-.7-.55-1.23-.78-.25-.12-.45-.46-.55-.58-.18-.25-.54-.27-.71-.3-.25-.04-.41-.13-.46,0,.09.42,0,.92.32,1.2.4.39.78.72,1,1.45.06.21.18.36.24.43.18.15.63.4.91.66.21.18.9.45,1.04.28.09-.12-.06-.21-.1-.28-.09-.27.18-.32.42.07.08.08.14.21.24.27.16.06.29.13.45.13.02-.24-.48-.69-.82-1.13-.34-.41-.25-1.06-.75-1.43M7.96,35.69c-.07-.17.03-.56-.16-.57-.33,0,.11,1.28.18,1.42.19,0,.15-.25-.02-.85M8.9,34.62c.18-.28.36-.81-.18-.61,0,.09-.04.3-.04.39l-.11.28c0,.41.33.32.33-.06M8.8,36.17c0-.16.02-.42-.24-.51-.66.33.03,1.63.24.51M10.73,36.84c-.06-.94-.56-1.18-.42-2.17-.95.07-1.14,1.32-1.08,2.01-.04.45-.37.85-.44,1.42,0,.15.09.45.11.79.08.38.52.59.62.97.16.69.61,1.54.93,1.54.09-.54-.35-1.08-.45-1.6-.11-.43.07-.63.15-.37.06.15.22.46.42.89.06.12.19,1.5.48,1.58.18,0,.25-.46.15-.93.3-.18.02-.93,0-1.63.39-1.11-.51-1.48-.47-2.5M8.1,37.2c-.52-.43-.43-.81-.78-1.02-.38-.21-.79-.62-1-.77-.09-.06-.25-.3-.33-.3,0,.21-.12.49.03.64.03.02.15.12.2.18.06.05.12.15.12.2,0,.21-.03.52.01.66.11.28.3.52.47.73.18.21.39.51.54.51.2,0,.41-.12.45-.06.19.17.16.39.45.45.3-.02-.06-.45-.06-.54.08-.23-.01-.44-.1-.68M9.3,29.39c.11-.63.48-.78.37-1.48-.15-.03-.33.27-.41.27-.04.06-.4.35-.46.35-.18.13-.52.76-.82.96-.18.17-.64.82-.54,1.35-.27.42-.34,1.05-.2,1.56.15.44.17.93.09,1.45.03.11.24.35.33-.06,0-.24-.11-.66.08-.82.03,0,.21.08.13.27-.2.51-.06.84.1,1.27.14,0,.24-.3.3-.54.06-.42.49-.84.59-1.18.12-.51.21-1.13.15-1.63-.04-.49.51-.84.29-1.77M6.73,32.08c0-.41-.22-1.11-.75-1.37-.33-.17-.45-.53-.66-.67-.27-.21-.51-.28-.64-.21-.03.19.22.64.2.93.21.36.18.75.18,1.19,0,.48.3.76.51,1.12.05.06.11.47.32.72.36.42.71,1.2.96,1.2,0-.6.29-.15.33.34.02.14.12.25.15.3.37-.35-.13-1.53-.27-2.07.11-.79-.12-1.28-.33-1.48M9.43,25.51c0-.35-.02-.72,0-1.04.02-.24.15-.46.11-.58-.33-.15-.68.58-1.04,1.02-.61.71-1.11,1.84-1.14,2.25.03.05.06.15.06.25v.44c0,.18,0,.39.09.57.1.21.03.49.04.74.08.06.13-.12.35-.39.21-.26.4-.64.51-1.01.6-.51.95-1.34,1.02-2.25M6.76,26.23c0-.98-.48-1.98-1.21-2.68-.2.47.13,1.31.03,1.6-.22.66-.48,1.38-.03,2.41.07.16.21,1.26.58,1.63.09.08.14.49-.06.51-.49.03.44.93.78,1.14.19.04-.06-.54-.14-1.16-.04-.33.24-.19.18.14.06.1.12.24.19.37.41-.03-.18-1.39-.08-1.74.32-1.02-.24-2.19-.24-2.22M9.32,22.23c-.15-1.57.12-2.11,0-2.11-.1,0-.25.24-.54.48-.31.3-.79.72-1.06,1.17-.22.34-.14.69-.3,1.15-.06.2-.18.42-.11.65.14.57-.21,1.48,0,1.84.21.21.37-.52.47-.84.07-.22.43-.39.01.45.39.06.49-.33.64-.87.13-.12.33-.37.31-.67.36-.46.58-1.09.58-1.25M10.1,19.23c0-.15-.02-.7-.25-.7-.06.22-.3.49-.4.72-.11.25-.14.66.24.69.17,0,.43-.28.41-.71M13.94,43.46c-.15-.4-1.23-.6-1.53-1.02-.11-.2-.3-.23-.39-.06,0,.25.31.32.31,1.11,0,.3.22.67.31.75.61.43,1.08,1.71,1.48,1.71.23-.14-.03-.44-.09-.72.21-.04.35.17.45.39.2.37.54.6.74.77.1.06.14-.12.14-.21.06-.57-.34-1.44-.66-1.8-.31-.35-.64-.65-.76-.92M22.24,49.29c-.52-.04-.6-.58-1.45-.6-.22,0-.45-.27-.62-.32-.24-.07-.87.12-1.33-.14-.68-.4-1.96.09-2.11.21,0,.57-1.68.24-1.62.9.35.23.28-.16,1.32,0,.37.16.69.3,1.29.42.45.48,1.71.78,2.17.66.6-.18,1.98,0,2.31-.4.09-.27-.54-.27-.78-.18-.07,0-.24-.05-.17-.18.24.03.57,0,.89.03.37.05.51-.39.1-.39M17.04,48.13c0-.06.09-.04.11-.12.01-.09-.04-.33-.04-.33-.04-.07-.17-.22-.27-.26-.11,0-.29-.13-.38-.16-.11-.06-.58-.52-.64-.52-.45-.12-1.17-.24-1.26-.15-.06.21.11.35.23.42.21.15.68.2.87.22.14,0,.18.23-.07.23-.15,0-.45-.12-.66-.12-.25,0-.64-.11-.78-.16-.21-.06-.97.12-1.03.18-.2.15-.3,0-.43.18-.09-.04-.34.05-.48.11-.08.05-.11.12-.17.18.2.03.42.07.57.07.08,0,.22,0,.3.06.6.57,1.23.86,2.24.63,0,0,.14.05.58-.09.19-.06.52-.36.69-.4.28-.1.62.03.62.03M17.4,46.28c-.39-.43-.84-.92-1.17-1.07-.18-.07-.35-.19-.35-.19-.12-.12-.67-.3-.56-.15,0,0-.02.08.03.23.09.16.35.52.48.92.05.12.39.27.53.46.07.09.36.42.46.54.09.12.23.39.45.51.2.11.51.17.68.17.11,0,.11.12.21.13.21.03.42.08.62.08,0-.06,0-.19-.09-.32-.12-.16-.41-.39-.57-.52-.28-.25-.61-.68-.72-.79M12.98,46.07c-.09.08-.12.2-.05.32.09.06.2.09.29.12,0,.05.14.12.15.24.14.08.27.15.42.15.08,0,.15-.05.21-.09.02-.12.02-.24-.07-.36-.06-.15-.39-.19-.51-.28-.08-.11-.18-.17-.44-.1M11.54,43.88c-.43-.52-1.47-1.02-2.17-1.23-.58-.09-1.27,0-1.84.06-.1.02-.33-.12-.43,0l.07.3c.18.15.23.14.8.38.57.24.61.82,1,1,.78.45,1.56,1.14,1.69,1.24.24.18.75.06,1.08.09.27.18.63.11.87.31l.18-.14c-.09-.12-.54-.43-.9-.6-.48-.19-.48-.55-.44-.48.26-.03.9.51,1.41.64.29-.45-1.36-1.02-1.32-1.56M11.3,19.98c.75-.56,1.6-1.8,0-.97-.18.96-.43.08-.82.48-.26.38-.69.96-.57,1.47.06.28-.36.91-.23,1.36.23.05.27-.49.62-.76.45-.37,1.08-1.01,1-1.58M12.44,17.87c.12-.14.23-.28.32-.4.08-.12.18-.26.26-.33.57-.57-.32-.27-1.21.16-.14.14-.9.62-.99,1.14-.01.24-.25.64.57.24.18-.09,1.05-.48,1.05-.81" fill="#b1b2b4" fill-rule="evenodd"/>
  <path d="M58.55,40.56l-1.94-5.23-1.97,5.23h3.91M53.93,42.5l-1.55,4.01h-2.11l5.38-13.76h1.94l5.38,13.76h-2.18l-1.51-4.01h-5.35M65.69,46.51h-1.87v-10.4h1.8v1.18c.39-.47.82-.81,1.29-1.02.47-.22,1.01-.33,1.61-.33,1.36,0,2.41.4,3.14,1.2.72.8,1.09,1.95,1.09,3.44v5.92h-1.88v-5.52c0-1.11-.2-1.92-.61-2.46-.41-.53-1.05-.8-1.9-.8-.93,0-1.6.31-2.02.94-.42.63-.64,1.66-.64,3.11v4.74M75.57,41.24c0,1.05.35,1.93,1.04,2.64s1.54,1.07,2.56,1.07c.91,0,1.72-.36,2.43-1.07.7-.72,1.05-1.55,1.05-2.51,0-1.02-.35-1.89-1.04-2.62-.7-.73-1.53-1.09-2.48-1.09s-1.83.34-2.52,1.04c-.7.7-1.04,1.54-1.04,2.54M82.56,46.51v-1.28c-.48.49-1.01.87-1.6,1.13-.59.25-1.22.38-1.88.38-1.56,0-2.86-.52-3.9-1.56-1.03-1.04-1.55-2.35-1.55-3.92,0-.73.13-1.43.39-2.08s.62-1.23,1.11-1.73c.52-.55,1.09-.95,1.71-1.21s1.33-.39,2.12-.39c.71,0,1.36.13,1.96.38s1.15.63,1.66,1.15v-4.63h1.87v13.76h-1.89M88.5,46.51h-1.87v-10.4h1.76v1.2c.31-.46.66-.8,1.07-1.02.4-.22.86-.34,1.39-.35v1.96c-.84.06-1.44.31-1.8.74s-.55,1.12-.55,2.08v5.79M93.54,41.3c0,1.04.33,1.91.99,2.6.66.69,1.48,1.04,2.46,1.04s1.77-.35,2.42-1.05.98-1.57.98-2.61-.33-1.92-.98-2.61c-.65-.69-1.47-1.03-2.45-1.03s-1.78.35-2.44,1.04c-.65.7-.98,1.58-.98,2.62M91.6,41.32c0-.74.13-1.42.38-2.06.25-.64.62-1.22,1.1-1.73.52-.56,1.11-.99,1.77-1.29.65-.3,1.33-.45,2.04-.45.76,0,1.46.14,2.1.4.65.27,1.24.67,1.76,1.2.51.52.9,1.11,1.17,1.77.27.65.41,1.33.41,2.03s-.13,1.4-.38,2.08c-.26.67-.61,1.26-1.07,1.77-.53.58-1.12,1.02-1.78,1.32-.66.3-1.36.45-2.1.45s-1.46-.13-2.11-.41c-.64-.28-1.22-.68-1.73-1.22-.48-.51-.86-1.1-1.14-1.78-.28-.68-.42-1.37-.42-2.08M95.66,34.78l1.93-3.29h1.9l-2.69,3.29h-1.14M110.32,41.26c0-1.27-.18-2.19-.53-2.76-.36-.57-.92-.86-1.71-.86s-1.39.29-1.77.86c-.39.58-.58,1.47-.58,2.68v5.32h-1.78v-10.4h1.66v1.22c.35-.47.74-.81,1.17-1.04.44-.23.94-.35,1.49-.35.76,0,1.38.15,1.88.44.5.29.91.74,1.23,1.36.32-.6.75-1.05,1.28-1.35s1.18-.45,1.94-.45c1.18,0,2.12.39,2.82,1.15.71.76,1.06,1.79,1.06,3.06v6.35h-1.88v-6.06c0-.89-.2-1.58-.58-2.07-.39-.49-.93-.74-1.63-.74-.81,0-1.39.26-1.74.78-.36.52-.53,1.41-.53,2.65v5.44h-1.82v-5.23M122.15,41.24c0,1.05.34,1.93,1.04,2.64.69.71,1.54,1.07,2.55,1.07.92,0,1.73-.36,2.44-1.07.7-.72,1.05-1.55,1.05-2.51,0-1.02-.35-1.89-1.04-2.62-.7-.73-1.52-1.09-2.48-1.09s-1.82.34-2.52,1.04c-.7.7-1.04,1.54-1.04,2.54M129.14,46.51v-1.28c-.48.49-1.01.87-1.6,1.13-.59.25-1.22.38-1.89.38-1.56,0-2.86-.52-3.9-1.56-1.03-1.04-1.55-2.35-1.55-3.92,0-.73.13-1.43.39-2.08s.63-1.23,1.11-1.73c.52-.55,1.09-.95,1.72-1.21.62-.26,1.33-.39,2.12-.39.71,0,1.37.13,1.96.38.6.25,1.15.63,1.64,1.15v-1.26h1.89v10.4h-1.89M143.07,42.96c-.44,1.25-1.08,2.2-1.94,2.85-.85.65-1.89.97-3.12.97-.77,0-1.48-.14-2.11-.4-.63-.27-1.2-.67-1.71-1.21-.49-.51-.86-1.1-1.14-1.78-.27-.68-.41-1.37-.41-2.08s.13-1.4.38-2.04c.25-.63.62-1.21,1.1-1.73.54-.57,1.14-1.01,1.81-1.31.66-.29,1.38-.44,2.14-.44,1.19,0,2.23.33,3.1.99.88.66,1.51,1.58,1.91,2.77h-2.05c-.33-.63-.75-1.11-1.26-1.43-.52-.32-1.14-.47-1.85-.47-.93,0-1.71.35-2.36,1.05s-.97,1.57-.97,2.59.33,1.91.98,2.6c.66.69,1.47,1.04,2.45,1.04.66,0,1.24-.17,1.77-.52.53-.34.94-.83,1.24-1.46h2.04M146.26,41.3c0,1.04.33,1.91.99,2.6s1.48,1.04,2.46,1.04,1.77-.35,2.42-1.05.98-1.57.98-2.61-.33-1.92-.98-2.61c-.65-.69-1.46-1.03-2.44-1.03s-1.78.35-2.44,1.04c-.66.7-.99,1.58-.99,2.62M144.33,41.32c0-.74.13-1.42.37-2.06.25-.64.62-1.22,1.1-1.73.52-.56,1.11-.99,1.77-1.29.65-.3,1.34-.45,2.04-.45.76,0,1.45.14,2.1.4.65.27,1.23.67,1.76,1.2.51.52.9,1.11,1.18,1.77.27.65.41,1.33.41,2.03s-.13,1.4-.38,2.08c-.25.67-.61,1.26-1.07,1.77-.53.58-1.12,1.02-1.78,1.32s-1.36.45-2.11.45-1.47-.13-2.11-.41-1.22-.68-1.73-1.22c-.48-.51-.87-1.1-1.14-1.78-.28-.68-.41-1.37-.41-2.08" fill="#b1b2b4" fill-rule="evenodd"/>
</svg>