<?xml version="1.0" encoding="UTF-8"?>
<svg id="Layer_1" data-name="Layer 1" xmlns="http://www.w3.org/2000/svg" viewBox="0 0 800 800">
  <path d="M286.5,400c0-77.1,33.5-150.4,92-200.9,1.5-1.7,3.5-3.3,5.5-5-39.1-26.1-86.2-41.3-136.8-41.3C110.7,152.8,0,263.5,0,400s110.7,247.2,247.2,247.2c50.6,0,97.7-15.2,136.9-41.3-2-1.6-4.1-3.2-6-4.9-58.2-50.7-91.6-124-91.6-201h0Z" fill="#b1b2b4"/>
  <path d="M552.8,152.8c-50.7,0-97.7,15.2-136.8,41.3,2,1.7,4,3.3,5.5,5,58.5,50.6,92,123.9,92,200.9s-33.4,150.2-91.6,201c-1.9,1.6-4,3.3-6,4.9,39.2,26.1,86.3,41.3,136.9,41.3,136.6,0,247.2-110.6,247.2-247.2s-110.7-247.2-247.2-247.2Z" fill="#b1b2b4"/>
  <path d="M494.4,400c0-74.5-32.9-141.2-85-186.5-3-2.7-6.1-5.2-9.3-7.7-3.2,2.5-6.3,5-9.3,7.7-52.1,45.3-85,112-85,186.5s32.9,141.2,85,186.5c3,2.7,6.2,5.3,9.3,7.7,3.2-2.5,6.3-5.1,9.3-7.7,52.1-45.3,85-112,85-186.5Z" fill="#b1b2b4"/>
</svg>