<?xml version="1.0" encoding="UTF-8"?>
<svg id="Layer_1" data-name="Layer 1" xmlns="http://www.w3.org/2000/svg" viewBox="0 0 324 341">
  <g id="Visual">
    <g>
      <path d="M196.1,142.1c-11.3,11.7-10.2,18.5-22.1,23-3,1.1-6.6,2.4-11.3,3.4-2.8-8.5-9.7-16.9-17-16.9s-10.9,2.6-17.7,5.6c-7.9,3.5-15.2,7.5-17.5,9l3.1,4.2c2.4-1.3,9.2-4.7,16-7.6,5.9-2.5,11.3-4.6,14.9-4.6,5.8,0,9.6,6.6,11.7,11.9-7.6,1.8-20.1,2.2-23.9,2.2s-2.4.3-3,.8-1,1.4-1.3,2.6l-.4,1.9h4.1c21.1,0,41-3.3,53.7-11.1,1.8.5,3.4.8,5.4.8,7.3,0,14.9-4,19.6-7.7,1.7-1.3,2.1-2.5,2.1-3.8s0-1.2-.1-1.8l-.2-2.2c-6.8,5.3-12.4,9.3-19.4,9.3s-2.1-.1-2.9-.3c6.8-10.9,12.9-20.6,27.8-28.5-1.6-1-3.8-2.4-5-3.2-5.8,2.5-11.6,7.6-16.5,12.7l-.1.3Z" fill="#b1b2b4"/>
      <path d="M172.9,145.3c-4.8,0-4.3-8.2-4.7-14.6-16.9,1.6-27.5,6.6-39.1,12.9l1.4,5.2c10.5-6.3,20.7-9.9,31.4-11,.1,6.2,2.8,14.5,9.8,14.5s16.7-11.8,27.5-25.7l2.8-3.7c-1.5-1.1-3.1-2.1-4.1-3.1-11,14.2-20.6,25.5-25,25.5h0Z" fill="#b1b2b4"/>
      <path d="M143.4,57.3c-2.8.6-4.8,1.1-7.2,1.1s-3.4-.2-5.5-.7c-1.6-.4-3.4-.7-5.8-.7-4.5,0-9.2,1.7-12.5,4.8-6,5.7-6.3,11.8-6.7,17.3-.5,7.3-1.9,9.1-5.8,14.4-3.2,4.3-7.6,10-11,16.1,1.1.5,4.6,2.4,5.9,3.1,3.9-5.8,9.3-13.1,12.8-18.5,3.2-4.9,4.5-7.1,4.7-13.7,0-1.1,0-2.2.2-3.3.3-3.4,1.2-6.9,4.5-10.1,2.4-2.4,5.9-3.7,9.4-3.7s5.3,1,8.3,1,3.6-.5,4.9-1l1.1-.4-2.6,6.2,6.1,2.5c-3.9,2.4-12.4,12.8-12.4,25.2s.7,8.6,1.6,12.2c.1.4.3.8.9.8s1-.3,1-.9v-1.3c.2-3.8.5-9.7,2-15.1,2.5-9,9.3-17.5,16.2-21.5l-9.7-4.2,4.2-10.2-4.6,1v-.4Z" fill="#b1b2b4"/>
      <path d="M172.6,16.3c-3.7,0-4.7,3.5-4.7,5.5s.6,3.4,2.5,3.4,3.7-1.2,5.2-2.5c1.5-1.2,2.5-2.2,2.5-3.3s-.9-1.9-2.3-2.5c-.9-.5-2.1-.7-3.4-.7l.2.1Z" fill="#b1b2b4"/>
      <polygon points="150.2 87.8 147.5 93 176.3 93 174.2 87.8 150.2 87.8" fill="#b1b2b4"/>
      <path d="M116.9,40.1c1.5-.9,2.8-2.2,2.8-3.6s-.3-1.2-.9-1.8c-1.1-1-2.5-1.5-3.8-1.5-2.8,0-4.3,2.6-4.3,5.1s.9,2.9,2.6,2.9c1.1,0,2.3-.4,3.5-1.1h.1Z" fill="#b1b2b4"/>
      <path d="M284.3,143.4l2.8,1.9c.4.3.7.4,1,.4.6,0,1-.6,1-1s-.1-.6-.4-.8c-8.2-7.5-17.1-16.6-25.4-25.4-6.5-6.9-13.1-14.2-19-21.6-.4-.5-.7-.7-1.2-.7-.7,0-1,.4-1,1,0,.8.6,1.7,2,4.1,4.3,7.3,9.6,14.6,16.1,21.5,7,7.5,15.3,14.5,24.2,20.7l-.1-.1Z" fill="#b1b2b4"/>
      <path d="M248.9,245.2h-6.7c-1.7,0-2.9.6-3.8,1.6-.7.8-1.1,1.9-1.1,3.4v73.7c0,1.5.4,2.5,1.1,3.4.8,1,2,1.6,3.8,1.6h6.7c1.7,0,2.9-.6,3.8-1.6.7-.8,1.1-1.9,1.1-3.4v-73.7c0-1.5-.4-2.5-1.1-3.4-.8-1-2-1.6-3.8-1.6Z" fill="#b1b2b4"/>
      <path d="M132.5,71.2c0-.7-.3-1.5-1.2-2-.9-.7-2.1-1-3.2-1-2.4,0-3.3,1.4-3.8,2.9-.2.7-.3,1.3-.3,1.9,0,2,.9,3.4,2.4,3.4s6.1-2.8,6.1-5.2Z" fill="#b1b2b4"/>
      <path d="M54.6,140.4l.4,2.4c.2,1,.6,1.9,1.4,2.3,1,.5,2.5.6,5,.6,6.4,0,11.1-.8,13.8-1.5,6.9,10.3,16.4,14.2,25.6,14.2s15.8-2.9,23.4-7l-1.4-5.1c-7.4,4.2-15.1,6.9-22,6.9s-14.4-3.3-20-11.8c-2.4-3.6-4.2-8.1-6.5-12.1-2.7-4.7-5.6-7.3-10.7-7.3s-9.2,1.9-14.1,4l.2,1.1c.4,1.7,1.1,3,2.7,3s1.5-.3,1.9-.4c2.7-.8,4.7-1.6,7.4-1.6,4.2,0,6.2,2.5,9.1,8.6l1.1,2.3c-2.9,1-9.8,1.5-14.9,1.5h-2.4v-.1Z" fill="#b1b2b4"/>
      <path d="M290,266.4c-19.5,0-30.5,15.3-30.5,31.4s11.8,32.3,30.6,32.3,18.7-3.6,23.9-9.8c2.3-2.7,4.2-6.5,4.2-8.8s-.2-1.5-.6-2c-.4-.6-1.1-.9-2.3-.9h-9.1c-1.8,0-3,.7-4,2-2.6,3.9-6.5,5.9-12.1,5.9-8.5,0-13.9-6.4-14.3-13.5h39.3c1.7,0,3-.4,3.8-1.2,1-.9,1.4-2.2,1.4-4.6,0-7.4-2.3-15-7.2-20.9-5-5.9-12.6-9.9-23.3-9.9h.2ZM275.9,291.1c.7-6.9,6-12.1,14.1-12.1s13.4,5.2,14.1,12.1h-28.2Z" fill="#b1b2b4"/>
      <path d="M266.9,29.7h.9v1.2c0,6.4,3.3,11.1,11.3,11.1s12.7-2.5,20-5c6.1-2.1,11.7-4.2,14.4-5v-6.8c-3.2,1-9.6,3.4-16.2,5.7-7,2.4-13.9,4.6-17.9,4.6s-5.6-2.4-5.6-5.9c0-7.1,4.5-17.3,7.3-23.1h-6.8c-3.5,6.9-17.5,28.9-25.1,38l4.3,4.7c4-4.5,8.5-12.2,13.3-19.7l.1.2Z" fill="#b1b2b4"/>
      <path d="M219.2,29.6c-5.7-5.5-10-11.7-12.8-14.6-6.1-6.7-14.1-15-27.1-15s-21,8.2-23.7,15.3c-.8,2-1.4,4.5-2,5.4-1.2,2-6.8,11.5-9.1,15.3h10.4l-5.1,9.6c5.9-1.3,10.1-2.3,15.8-2.3s8.6,1.2,10.2,4.3c2.9,5.9,2.9,23.6,7.9,37,4.6,12.6,15.9,24.8,28.6,34.2l.6.2c.6,0,1-.5,1-.9s-.1-.6-.4-.8c-10.6-10.6-19.2-22.3-23.8-35.1-4.6-12.5-3.8-30.1-7.8-37.9-2.6-5.2-8.3-6.5-13.5-6.5s-8.1.8-9.9,1.2l4.6-7.7h-7.7c1.6-2.9,3.3-5.5,4.2-7.1.7-1.4,1-3,1.9-5.3,2.9-7.4,9.4-12.1,17.9-12.1s16.8,6.8,22.9,13.6c2.8,3.1,7.4,9.7,12.8,14.6,3.7,3.4,10.6,7.1,21.4,18.3,6.2,6.4,13.4,14.8,21,25.9,27.2,39.8,45.1,74.9,55,102.3h-.2c-28.6-19.3-53.3-37.6-73.2-60.2-14.1-16.1-26.4-34.6-37.1-58.4-.7-1.6-1.4-3-2-4.6-.3-.6-.6-.8-1-.8s-1,.4-1,.9.3,2,.9,4.7c5.7,24.6,21.5,46.6,38.3,64.9,16.8,18.2,35.8,33.9,51.4,45.2l12.2,34.8c.3.8.6,1.7.6,2.6s-.2,1.1-.5,1.5c-.3.3-.8.5-1.8.5h-3.7c-1.6,0-2.2-.2-2.8-.7-.6-.4-1-1.1-1.2-1.9-1.1-3.3-7.5-21.6-8.7-25.3-.2-.7-.6-.9-1.1-.9s-.9.4-.9,1,.2,1,.4,2.5c1.6,8.3,3.5,17.7,4.3,21.2.3,1.6.7,3.2.7,4.3s-.2,1.6-1.1,2.4l-3.8,3.8c-.9.9-1.4,1.1-2.1,1.1s-1.6-.6-2-2.2c-4.3-20-10.8-44.8-12.4-51.7-.4-1.5-.7-2.4-1.6-2.4s-1.1.6-1.1,1.2.1,1.1.2,1.6c1,7.1,5.1,33,9.6,56.6.8,4.1,2.3,6.3,5.8,6.3s3.1-.6,4.5-2c2.3-2.3,3-2.9,5.7-5.6,2-1.9,3.3-2.7,6.7-2.7h8.3c2,0,3-.5,4-1.4.9-.8,1.5-2,1.5-3.7s-.4-3.2-1.1-4.9c-2.1-5.7-9-25.2-11-30.6h.2c7,5.2,17.3,12.1,21.8,12.1s2.2-.6,2.2-2.8c0-10.4-17.2-53-56.6-111.7-21-31.3-39.4-41.8-44.6-46.7v.1Z" fill="#b1b2b4"/>
      <path d="M268.7,68.7c7.1-2.9,13.5-4.8,19.2-4.8s14.6,0,25.7-2.6v-5.2c-6.2,1.1-12.8,2.5-17.1,2.5s-3.3-.3-3.3-1.2.3-.8,1.3-1.2c6.8-2.9,18.9-7.7,25.9-10.3v-6.9c-14,5.2-38.6,15.4-55.4,24.5.5.5,3.4,4.7,3.7,5.2h0Z" fill="#b1b2b4"/>
      <path d="M76.2,67.8c-7.9,9.4-12.1,17-19,33.9,1.1-.1,2.8-.2,4.6-.2h2.8l.8-1.8c3.9-8.3,9.1-19.6,16.5-28.3l2.5-3c7.6-8.9,12.2-14.1,15.2-26.1,1-4.3,1.9-8.1,4.7-10.9,2.6-2.5,5.9-3.6,9.2-3.6s4.9.7,7.9,2c2.8,1.2,3.8,1.4,6.7,1.4s1.7,0,2.4-.1l-3.9,5.3,5.3,3.8c-6.7,2-10.3,8.5-11.4,11.4-.2.6-.3,1-.3,1.4s.2.9.9.9,1.3-.6,2.3-1.7c3.3-4,5.9-6.6,17.9-10.4l-8.5-6.4,6.4-9.4h-6c-3.8,0-6.4,0-9.7-1.6-4.5-2.1-6.8-3-10.8-3s-9.3,1.7-13,5.1c-4.2,3.9-5.5,9.1-7,14.8-1.2,4.4-2.6,9.2-5.7,13.7-2.6,3.8-4.6,5.6-10.6,12.7l-.2.1Z" fill="#b1b2b4"/>
      <path d="M27.4,46.7c-13.8,0-19.7,6.6-19.7,11.1-4.1,1.7-6.8,6.3-6.8,10.5,0,8.4,6.1,14.4,14.2,14.4s5.5-1.1,7.4-2.5c1.4.5,3.2.8,5.1.8,3.9,0,8.2-1.4,11.3-5.8h1.3c4.9,0,9.2-3.3,11.5-7.6.6-1.1.8-1.9.8-2.5s-.3-1.1-.9-1.1-.9.7-2.3,2c-3.2,2.9-8,4-13,4-2.4,3.5-5.4,5.4-8.8,5.4s-4.5-.7-6.5-2c-1.6,1.8-3.7,2.5-5.6,2.5-4.5,0-7.6-3.1-7.6-7.6s2-6,4.8-7c.5-5.6,6.5-9.3,13.9-9.3s1.9,0,2.9.2c1.1-1.8,3.8-3.7,7.7-4.2.8-.1,1.4-.2,1.9-.4.4-.2.7-.7.7-1.2s-.2-.8-.6-1.1c-.4-.2-1.1-.3-1.9-.5-3.6-.7-7.8-2.9-9.9-8.2-8.5,0-14.7-6.8-14.7-14.5v-.5c-2.8-1.1-4.7-3.8-4.7-7s3.3-7.6,7.5-7.6,4.7,1.2,6.1,3.1c1.2-.3,2.5-.4,3.8-.4,6.3,0,13.1,4,14.4,11.8,8.1.7,10,7.6,10.5,10.5.3,1.5.5,2.7,1.5,2.7s1.2-1.1,1.6-2.6c.6-2.9,1.7-5.2,3.8-7,0-7.4,5.5-13.7,13.4-13.7,1.2-2.6,3.8-4.4,6.9-4.4s7.6,3.3,7.6,7.6-1.2,4.7-3,6.1c.4,1.5.7,2.8.7,4,0,4.7-2.8,8.1-8,9.8-.7,2.9-1.9,5.5-3.9,7.4-3.4,3.3-6.8,3.3-6.8,4.6s.5,1.2,1.9,1.2c6.3,0,12.4-3.5,13.1-9.3,6-2,9.6-8.1,9.6-12.8s-.1-2.3-.6-3.3c1.6-1.6,3.6-4.3,3.6-8.3s-1.5-7-4.2-9.6c-2.4-2.3-5.7-3.9-9.6-3.9-5.6,0-9.3,3-11.4,6-6.1,0-14.1,6.8-14.1,16.6h-.8c-.6-3.4-4.1-5.6-7-5.8-2.4-7.1-7.7-13.2-16.5-13.2s-2.2,0-3.3.2c-2.6-2.4-5.5-3.8-9.5-3.8C7.3,0,1,6.1,1,13.9s2.2,8.2,6.4,11.1v.9c0,6.2,6.7,15.9,16.7,15.9,0,1.6,2,3.7,4.2,4.1v.8h-.9Z" fill="#b1b2b4"/>
      <path d="M179,292.9l-12.8-3.3c-5.3-1.3-7.8-2.3-7.8-5.6s2.8-5.7,9.3-5.7,7.3.8,9.6,3.2c1.9,2,1.5,3,3,3.8.9.4,1.9.4,3.5.4h6.4c1,0,1.7-.2,2.3-.8.5-.5.7-1.3.7-2.6,0-2.9-1.9-6.7-5.3-9.6-4.5-3.9-11.6-6.5-20.2-6.5-15.4,0-25.6,7.3-25.6,19s1.5,7.5,4,10.2c2.9,3.1,7,5.2,13,6.8l12.9,3.3c3.5.9,6.7,2,6.7,5.1,0,4.8-5.1,6.4-10.5,6.4s-5.4-.5-7.7-1.6c-1.6-.8-2.9-1.9-3.9-3.4-.8-1.3-1.1-2.3-2.4-3-.8-.5-1.7-.5-3-.5h-7c-1.5,0-2.2.4-2.8,1.1s-.7,1.5-.7,2.4c0,2.2.8,5.1,2.6,7.6,4.3,5.7,13.2,10.4,24.7,10.4s26.9-4.7,26.9-19.8-1.1-7.2-3.2-9.9c-2.7-3.4-6.4-5.8-12.8-7.4h.1Z" fill="#b1b2b4"/>
      <path d="M50.3,47.5c3,4.3,8,12.7,12.7,23.9.8-1.4,3.4-4.8,4.4-5.9-4.3-8.8-11.4-17.2-14.5-20.5,0,0-2.6,2.5-2.6,2.5Z" fill="#b1b2b4"/>
      <path d="M189.5,111.8c-3.4,1.5-11.1,4.3-18.9,4.3s-7-.3-10.6-.8c-4.4-.6-8.6-1.1-12.1-1.1-5.9,0-13.2.6-20.3,5.6l3.1,4.1c4.8-2.3,12.7-3.4,16.6-3.4s7.2.4,10.6.8c3.8.5,8.3,1.1,13,1.1,10.6,0,21-5.6,22.6-6.6-1.3-1.1-2.9-2.7-3.9-3.9l-.1-.1Z" fill="#b1b2b4"/>
      <path d="M120.8,119.5l-3.3-4.2c-12.6,4.8-26.6,12.7-26.6,20.7s3.4,8.2,11,8.2c11.2,0,23-5.6,32.6-10.9l-1.4-1.9c-.8-1.1-1.5-1.5-2.5-1.5s-1.4.3-2,.6c-8.2,4-17,8-25.2,8s-5.9-1.5-5.9-3.5c0-5.7,15.7-12.4,23.4-15.5h-.1Z" fill="#b1b2b4"/>
      <path d="M229.2,268.6h-10.2v-18.4c0-1.5-.5-2.5-1.1-3.4-.8-1-2-1.6-3.8-1.6h-6.4c-1.7,0-2.9.6-3.8,1.6-.7.8-1.1,1.9-1.1,3.4v18.4h-3.2c-1.2,0-2.1.3-2.8.9-.7.7-1.1,1.6-1.1,2.9v3.9c0,1.4.3,2.3,1.1,2.9.7.6,1.6.9,2.8.9h3.2v28.1c0,7.2,2,11.7,5.6,15.3,3.4,3.3,7.8,5.4,15.4,5.4h4.8c1.2,0,2.1-.3,2.8-.9.7-.7,1.2-1.6,1.2-2.9v-4.9c0-1.3-.4-2.3-1.2-2.9-.7-.6-1.6-.9-2.8-.9h-.7c-3,0-5.1-.8-6.5-2.1-1.7-1.6-2.5-4-2.5-7.2v-27h10.3c1.2,0,2.1-.3,2.8-.9.7-.7,1.1-1.6,1.1-2.9v-3.9c0-1.4-.3-2.3-1.1-2.9-.7-.5-1.6-.9-2.8-.9Z" fill="#b1b2b4"/>
      <path d="M314.8,257.8c1.2,0,2.1-.3,2.8-.9.7-.7,1.1-1.6,1.1-2.9v-5.2c0-2-.4-3.1-1.1-3.8-.6-.7-1.6-1.1-2.8-1.1s-1.8.1-3.3.3l-45,4.5c-1.3.1-1.9.5-2.4,1-.5.6-.7,1.3-.7,2.3v2.9c0,1.1.2,1.6.6,2.1.5.6,1.2.8,2.2.8h48.6Z" fill="#b1b2b4"/>
      <path d="M59.6,203.6c-3.8,2.2-8.5,3.2-12.6,3.2s-2.5.3-3.2,1-1,1.7-1,3.1v2h1.4c7.5,0,14.5-1.2,22.2-7.2l24.9-19.5c3.6,4.1,12.5,9.7,23.1,9.7s9.8-1.5,15.3-2.9c4.3-1.1,8.5-2,17.6-2h26.4c13.5,0,20.1-2.8,27.3-6.9,15.7-8.8,29-23.7,36.6-40.7-2-1.2-3.8-2.4-5.4-3.4-8.5,17.8-21.3,30.8-34.5,38.2-6.2,3.6-11.9,5.9-24,5.9h-26.3c-9.4,0-15.3,1.2-19.9,2.4-5,1.3-8.1,2.6-13.1,2.6-7.4,0-14.3-3.7-17.6-7.2l6.2-4.9-3.1-4.1c-1.8,1.3-23.8,17.6-28.4,21.2l-.3-.2c.1-1.1.1-2.1.1-3.1,0-12.4-5.7-15.4-14.5-18.9l-5.9,3.5c12,4,15,7.2,15,16.2,0,7.1-2.5,9.9-6.2,12h-.1Z" fill="#b1b2b4"/>
      <path d="M3.3,194.9c4.2,0,4.7-2.5,4.7-5v-5.5c0-4.7.2-8.8,7.8-12.2,3-1.3,18-7.4,29.1-12.2,3.3-1.4,6.3-2.6,9.7-2.6s8.1,1.6,13.5,4.8c4.6,2.7,9.4,6.4,13.1,10.6l4.8-3.7c-4.1-4.8-9.8-9.2-15.5-12.6-5.7-3.4-10.8-5.4-15-5.4s-3.4.3-4.7.7c-1.5.4-2.9.8-4.7.8s-3.8-.5-6.4-3.4c-.9-1.1-7-8-8.3-10-.6-1-1.7-2.9-1.7-5.1s.2-2.1.7-3.1c5.2,4.1,11.7,6.5,19.6,7.5l-1.1-5.3c-11.3-3-23.4-13-23.4-19.4s.3-2.3.8-3.5c4.4,4.1,14.7,8.3,20.3,8.3s5.5-1,7.9-2c2.3-.9,4.5-1.8,7.5-1.8,7.2,0,16.1,3.5,23.9,6.8.5.2,1,.3,1.5.3,1.2,0,2.2-.6,2.8-1.8l1-1.9c-8.6-5-22.4-10.4-29.5-10.4s-5.6.8-7.9,1.7c-2.5,1-4.7,2.1-7,2.1-5.7,0-20.3-5.6-20.3-11.1s23.2-8.9,25.7-8.9l2.3-5.2c-16.8,0-36.9,5.9-36.9,13.7s1.3,3.4,1.3,5.5-1.3,4.7-1.3,7.9,1.2,4.7,2.7,7c1.6,2.4,3.4,4,3.4,6s-1,3.3-1,6.9c0,7.6,4.3,12.2,12.8,21.3l1.7,1.8c-7,2.7-20,8.3-23,9.6-10.5,4.4-13.1,9.7-13.1,18.2s0,7,.2,10.3h2v.3Z" fill="#b1b2b4"/>
      <path d="M74.3,19.5c0-.4-.4-.9-.9-.9s-.8.3-1.3.7c-2.1,1.9-4.1,3.7-6.1,6-2.9,3.2-5.3,7.5-7.3,12.2l3,1.9c2.1-3.1,8.8-13.7,12.2-19,.2-.3.3-.6.3-.8l.1-.1Z" fill="#b1b2b4"/>
      <path d="M191.6,256.9c.7-.7,1.1-1.6,1.1-2.9v-5c0-1.3-.3-2.3-1.1-2.9-.7-.6-1.6-.9-2.8-.9H60.4c-2.1,0-3.5.7-4.5,1.9-.8,1-1.2,2-1.2,3.9v51.2h-.3s-28-49.9-29.3-52.2c-1-1.6-2-2.8-3.4-3.6s-2.9-1.3-5.7-1.3H6.7c-2.1,0-3.5.7-4.5,1.9-.8,1-1.2,2-1.2,3.9v72.5c0,1.9.4,2.9,1.2,3.9,1,1.1,2.3,1.9,4.5,1.9h5.2c2.1,0,3.5-.7,4.5-1.9.8-1,1.2-2,1.2-3.9v-52.4h.3s29.1,51.5,30.2,53.4c1.6,2.7,4.4,4.7,8.3,4.7h9c2.1,0,3.5-.7,4.4-1.9.8-1,1.2-2,1.2-3.9v-65.4h117.7c1.2,0,2.1-.3,2.7-.9l.2-.1Z" fill="#b1b2b4"/>
      <path d="M107.3,266.4c-19.5,0-30.5,15.3-30.5,31.4s11.8,32.3,30.6,32.3,18.6-3.6,23.9-9.8c2.3-2.7,4.2-6.5,4.2-8.8s-.2-1.5-.6-2c-.4-.6-1.1-.9-2.3-.9h-9.1c-1.8,0-3,.7-3.9,2-2.6,3.9-6.5,5.9-12.1,5.9-8.4,0-13.9-6.4-14.3-13.5h39.2c1.7,0,3-.4,3.8-1.2,1-.9,1.4-2.2,1.4-4.6,0-7.4-2.3-15-7.2-20.9-5-5.9-12.5-9.9-23.2-9.9h.1ZM93.3,291.1c.7-6.9,6-12.1,14.1-12.1s13.4,5.2,14.1,12.1h-28.2Z" fill="#b1b2b4"/>
      <path d="M21.1,65.1c0,.4.3.9.9.9s.7-.2,1.5-.4l20.6-7-1-3.4c-8.4,1.4-14.5,3.6-21.4,9-.4.3-.6.6-.6,1v-.1Z" fill="#b1b2b4"/>
      <path d="M33.6,24.8c-3.2-2.4-6.7-4.4-10.9-6.1l-.7-.2c-.6,0-.9.4-.9.8s.1.6.6,1.1c4.9,4.2,14.4,12.1,17.3,14.5l2.4-2.7c-2.5-3-5.1-5.4-7.8-7.5v.1Z" fill="#b1b2b4"/>
    </g>
  </g>
</svg>