<?xml version="1.0" encoding="UTF-8"?>
<svg id="Capa_1" data-name="Capa 1" xmlns="http://www.w3.org/2000/svg" viewBox="0 0 183 36">
  <path d="M150.8,26.9v1.5c0,4.2,3.4,7.5,7.6,7.6h3.9c1.2,0,2.3-.9,2.3-2.1v-15.1c0-.7-.6-1.2-1.2-1.1-.3,0-.5,0-.7.3l-11.1,7.2c-.6.4-.9,1.1-.8,1.8" fill="#48494c"/>
  <path d="M152.4,21.2l10.7-6.9c2.2-1.4,4.5,0,4.5,2.2v8.3c0,.8.6,1.5,1.4,1.5h1.9c6.5,0,12.1-4.7,12.1-12.7,0-8.5-6.5-13.7-14.1-13.7h-15.9c-1.2,0-2.1,1-2.1,2.2v18.3c0,.6.5,1,1,.9.2,0,.4,0,.5-.2" fill="#b1b2b4"/>
  <path d="M10,19.7c0,2.6-1.4,3.7-4.7,3.7H0v-12.9h5c3.2,0,4.7,1.1,4.7,3.4,0,1.4-.9,2.5-2.2,2.8,1.5,0,2.7,1.4,2.6,3h0M2,12.6v3.3h3c1.5,0,2.5-.4,2.5-1.7s-1-1.6-2.5-1.6h-3ZM7.9,19.6c0-1.5-1-1.8-2.6-1.8H1.9v3.8h3.4c1.5,0,2.5-.4,2.5-1.9" fill="#b1b2b4"/>
  <path d="M19.9,16.7v6.8h-1.4l-.4-1.9c-.6,1.3-2,2.1-3.4,2-2.2,0-3.2-1.3-3.2-3,0-3,3.2-3.3,6.5-3.6v-.3c0-1.6-.9-2.3-2.5-2.3-1.1,0-2.2.5-2.9,1.3l-1-1.6c1.1-.9,2.6-1.5,4.1-1.5,3,0,4.3,1.4,4.4,4M18,19.5v-1c-2.4.2-4.5.5-4.5,2.1s.4,1.4,1.7,1.4c1.4,0,2.7-1,2.8-2.4" fill="#b1b2b4"/>
  <path d="M31.1,16.4v7h-2v-6.5c0-1.6-.7-2.4-2.1-2.4s-2.6,1-2.8,3v5.9h-1.9v-10.6h1.4l.4,1.8c.7-1.3,2-2.1,3.5-1.9,2.2,0,3.6,1.2,3.6,3.8" fill="#b1b2b4"/>
  <path d="M33,18.1c0-3.2,1.7-5.4,4.9-5.4,1.4,0,2.7.5,3.7,1.4l-1,1.6c-.6-.9-1.6-1.4-2.7-1.3-1.7,0-3,1.3-3,3.7s1.4,3.8,3,3.8c1.1,0,2.1-.5,2.7-1.4l1,1.6c-1,1-2.3,1.5-3.7,1.5-3.1,0-4.9-2.2-4.9-5.5" fill="#b1b2b4"/>
  <path d="M42.5,18.1c0-3.3,1.5-5.4,4.8-5.4s4.8,2.1,4.8,5.4-1.4,5.5-4.8,5.5-4.8-2.1-4.8-5.5M50.1,18.1c0-2.4-.9-3.7-2.8-3.7s-2.8,1.2-2.8,3.7.9,3.8,2.8,3.8,2.8-1.2,2.8-3.8" fill="#b1b2b4"/>
  <path d="M68.3,15c0,2.6-1.5,4.4-4.8,4.4h-2.3v4.1h-3.1v-12.9h5.4c3.4,0,4.9,1.7,4.9,4.4M65.1,15c0-1.2-.6-1.8-1.9-1.8h-2.1v3.6h2.1c.9.1,1.7-.5,1.9-1.3v-.4" fill="#b1b2b4"/>
  <path d="M76.3,12.7v3.1c-.4,0-.8-.1-1.1,0-1.5,0-2.2.9-2.2,2.6h0v5.1h-3v-10.7h2.2l.6,2.1c.4-1.3,1.5-2.2,2.9-2.3h.7" fill="#b1b2b4"/>
  <path d="M77,18.1c0-3.4,1.7-5.4,5.2-5.4s5.2,2.1,5.2,5.4-1.7,5.5-5.2,5.5-5.2-2.1-5.2-5.5M84.2,18.1c0-2-.6-3-2-3s-2.1,1-2.1,3,.6,3.1,2.1,3.1,2-1,2-3.1" fill="#b1b2b4"/>
  <path d="M98.1,12.8l-3.4,10.6h-3.4l-3.5-10.6h3l1.8,6.4c0,.5.2,1,.3,1.4,0-.5.1-1,.2-1.4l1.9-6.4s3.1,0,3.1,0Z" fill="#b1b2b4"/>
  <path d="M99.4,9.9h3v2h-3v-2ZM99.4,12.8h3v10.6h-3v-10.6Z" fill="#b1b2b4"/>
  <path d="M114.4,16.4v7.1h-3v-6.3c0-1.3-.5-1.9-1.6-1.9s-1.9.7-2,2.3v5.9h-3v-10.6h2.2l.6,1.9c.5-1.3,1.9-2.1,3.3-2,2.3,0,3.6,1.2,3.6,3.7" fill="#b1b2b4"/>
  <path d="M116.1,18.1c0-3.4,1.8-5.5,5.3-5.5,1.3,0,2.6.4,3.7,1.2l-1,2.5c-.6-.7-1.6-1.1-2.5-1.1-1.4,0-2.4.9-2.4,2.9s1.2,2.9,2.5,2.9c1,0,1.9-.4,2.5-1.1l1,2.5c-1.1.8-2.4,1.2-3.7,1.2-3.4,0-5.3-2.1-5.3-5.5" fill="#b1b2b4"/>
  <path d="M126.7,9.9h3v2h-3v-2ZM126.7,12.8h3v10.6h-3v-10.6Z" fill="#b1b2b4"/>
  <path d="M140.8,16.8v6.6h-2.2l-.6-2c-.5,1.4-1.9,2.2-3.4,2.1-2.3,0-3.2-1.3-3.2-3,0-3,2.9-3.3,6.3-3.6h0c0-1.3-.9-1.8-2.3-1.8-1.1,0-2.2.5-2.9,1.3l-1.2-2.3c1.3-1,2.8-1.5,4.4-1.4,3.4,0,4.9,1.5,4.9,4.1M137.8,19.4v-.8c-1.9.2-3.3.4-3.3,1.6s.3,1.1,1.2,1.1c1.1,0,2-.8,2.1-1.9h0" fill="#b1b2b4"/>
</svg>