<?xml version="1.0" encoding="UTF-8"?>
<svg id="Layer_1" data-name="Layer 1" xmlns="http://www.w3.org/2000/svg" viewBox="0 0 299.3 115.9">
  <path d="M68.5,5C68.6,1.7,65.2,1.1,63,0l-.2.5c-2-.6-2.5.8-3.8,1.6-.6-.5-1.1-1.1-1.7-1.2-1.8.1-4.4-.5-5.7,1.4.1.2.2.3.2.5-.2.4-.6,1.1-1.2.9-2.7,4.8,2.9,7.4,5.4,10.7,1.5,3.8-1.9,7.3-.7,10.9h1.6v-.9c-.2,0-.6.1-.7-.2l.9-.7c-.1-1.8.9-3.3,1.9-4.7,1.9-4.6,6.9-3.9,8.5-8.8.9,0,.2-1.4,1.2-1.4l-.2-3.6ZM65.9,9c-.3.5-1.7.7-1.7,1.6h-.4l-5.5,5c-.3-3.6-3.7-4.4-5.2-7.4-1.3-.2-1-1.8-.7-2.6.6-1,1.5-2.2,2.6-2.8,1.3-.5,2.7.7,3,2.2,1.4.2,1.1,2.7,2.6,1.9.8-.7.5-1.3.2-2.1-.3-.4-1-.9-.5-1.6,1.7-1.1,5.3-1.5,6,1.1.2,1.4.2,3.4-.4,4.7Z" fill="#48494c"/>
  <g>
    <path d="M84.9,100.2l-4.7,11.9h2.4l1.1-3h4.2l1.1,3h2.4l-4.5-11.9h-2ZM84.3,107.5l1.7-4.7,1.6,4.7h-3.3Z" fill="#b1b2b4"/>
    <path d="M97.7,103.3c-.2,0-.5,0-.7.1s-.5.2-.7.4c-.3.1-.5.4-.7.6-.3.2-.4.5-.6.8v-1.9h-2v8.8h2.2v-5.3c.3-.5.7-.8,1.2-1.1s1.1-.4,1.8-.4v-2h-.5Z" fill="#b1b2b4"/>
    <path d="M106.1,104.8c-.4-.5-.8-.9-1.3-1.2-.5-.3-1.1-.5-1.8-.5-.6,0-1.2.2-1.7.4-.5.3-.9.6-1.3,1-.3.4-.6.9-.8,1.4-.2.6-.3,1.2-.3,1.8s.1,1.2.3,1.7.4,1,.8,1.4c.4.4.8.8,1.3,1,.5.3,1,.4,1.6.4s1.2-.1,1.7-.4c.5-.3.9-.7,1.2-1.2v1.1c0,.4-.1.8-.2,1.1-.2.3-.4.6-.6.8s-.5.3-.8.4c-.3.1-.7.1-1,.1-.5,0-1.1-.2-1.6-.4-.5-.3-1-.6-1.3-1l-1.2,1.2c.5.6,1,1.1,1.7,1.4.6.3,1.4.5,2.4.5.7,0,1.4-.1,2-.3s1.1-.4,1.5-.8c.4-.3.8-.8,1-1.3.3-.5.4-1,.4-1.7v-8.4h-2v1.5ZM105.8,108.9c0,.2-.2.4-.3.6-.1.2-.3.4-.5.5-.2.1-.4.2-.6.3-.2.1-.5.1-.7.1-.4,0-.7-.1-1-.2-.3-.2-.6-.4-.8-.6-.2-.2-.4-.5-.5-.8-.1-.3-.2-.6-.2-1,0-.3.1-.7.2-1,.1-.4.3-.7.5-.9.2-.2.4-.4.7-.6.2-.1.6-.2.9-.2.5,0,1,.2,1.4.5.4.3.7.7.9,1.2v2.1Z" fill="#b1b2b4"/>
    <path d="M117.9,104.5c-.4-.4-.8-.8-1.4-1-.5-.3-1.2-.4-1.9-.4s-1.3.2-1.9.4c-.6.2-1.1.6-1.5,1-.4.5-.7.9-.9,1.5-.2.6-.3,1.2-.3,1.8s.1,1.2.3,1.7.5,1,.9,1.4c.4.4.9.8,1.5,1,.6.3,1.2.4,1.9.4,1,0,1.8-.2,2.4-.8.8-.5,1.3-1,1.6-1.7l-1.9-.5c-.1.4-.4.7-.8.9-.4.2-.9.3-1.3.3-.3,0-.5-.1-.8-.2-.2-.1-.5-.2-.7-.4-.2-.2-.4-.4-.5-.7-.2-.2-.3-.6-.3-.9h6.8v-.7c0-.6-.1-1.2-.3-1.7s-.5-1-.9-1.4ZM112.4,107c0-.3.1-.6.2-.9.1-.3.3-.5.5-.7.2-.1.4-.3.7-.4.2-.1.5-.2.8-.2.6,0,1.2.2,1.6.6.4.4.6.9.7,1.6h-4.5Z" fill="#b1b2b4"/>
    <path d="M129,105.3c-.1-.4-.2-.8-.4-1.1-.2-.3-.5-.6-.8-.8-.3-.2-.8-.3-1.3-.3-.8,0-1.5.2-2.1.5-.6.3-1.1.7-1.4,1.3v-1.6h-2v8.8h2.1v-5.1c.1-.2.2-.5.4-.7.2-.2.4-.4.6-.6.2-.2.5-.3.7-.4.2-.1.5-.1.7-.1.4,0,.8.2,1,.5.3.3.4.8.4,1.5v4.9h2.2v-5.5c0-.5,0-.9-.1-1.3Z" fill="#b1b2b4"/>
    <path d="M135.8,110.1c-.2.1-.5.1-.7.1s-.4-.1-.6-.2c-.1-.2-.2-.4-.2-.7v-4.3h1.8v-1.7h-1.8v-2.9h-2.3v2.9h-1.2v1.7h1.2v5.1c0,.4.1.7.2,1,.1.3.3.5.5.7.2.2.4.3.7.4s.6.1.9.1c.5,0,1-.1,1.4-.2.4-.1.8-.3,1.1-.4l-.5-1.8c-.1.1-.3.1-.5.2Z" fill="#b1b2b4"/>
    <rect x="138.4" y="99.9" width="2.3" height="2.2" fill="#b1b2b4"/>
    <rect x="138.4" y="103.3" width="2.3" height="8.8" fill="#b1b2b4"/>
    <path d="M150.9,105.3c-.1-.4-.2-.8-.4-1.1-.2-.3-.5-.6-.8-.8-.3-.2-.8-.3-1.3-.3-.8,0-1.5.2-2.1.5-.6.3-1.1.7-1.4,1.3v-1.6h-2v8.8h2.3v-5.1c.1-.2.2-.5.4-.7.2-.2.4-.4.6-.6s.5-.3.7-.4c.2-.1.5-.1.7-.1.4,0,.8.2,1,.5.3.3.4.8.4,1.5v4.9h2v-5.5c0-.5,0-.9-.1-1.3Z" fill="#b1b2b4"/>
    <path d="M161.2,109.5v-2.7c0-1.2-.4-2.1-1.1-2.7-.7-.6-1.6-.9-2.9-.9s-2.6.3-3.7,1.1l.7,1.4c.5-.3.9-.5,1.4-.7.5-.2.9-.3,1.4-.3.7,0,1.2.2,1.5.5.3.3.5.7.5,1.3v.5c-.3-.1-.6-.2-1-.3-.4-.1-.8-.1-1.2-.1-.5,0-1,.1-1.5.2-.5.2-.9.4-1.2.6-.4.2-.6.5-.8.9-.2.4-.3.8-.3,1.2s.1.8.2,1.1c.1.4.3.6.6.9s.6.5,1,.6c.4.1.8.2,1.2.2.7,0,1.3-.1,1.8-.5.5-.3,1-.7,1.4-1.2l.1.5c0,.4.2.6.4.8s.6.3,1,.3c.3,0,.6,0,1-.1v-1.9c-.2,0-.3-.1-.4-.2-.1-.1-.1-.3-.1-.5ZM159,109.4c0,.2-.2.4-.4.6s-.5.4-.8.5c-.4.1-.7.2-1.1.2s-.8-.2-1.1-.3c-.3-.2-.4-.5-.4-.9s.2-.7.6-1c.3-.3.8-.4,1.4-.4.3,0,.6,0,.9.1.3,0,.6.1.9.2v1Z" fill="#b1b2b4"/>
    <path d="M67.8,49.2c-4-3.3-8.6-5.9-11.8-9.9-.3-1.2.5-1.8.2-3,1.8-3.3.9-8.4,4.4-10.9,0-.5-.8-1-1.2-1.2-.7,1.3-2.6.5-3.9.7-1.4-.8-2.4-2.9-3.7-1.9-1.9,2.5-.4,6.6-2.5,8.8-2.8-1.9-5.3-4.2-8.3-6.2-2.2-1.8-5.2-3.6-6.2-6.4l1.7-2.7c-1.5-.4-1.6,1.4-2.8,1.4-.1-.1-.2-.3-.2-.5h-1.6c-.2,1-.8,2.2.7,2.3-.4,1.6-1,2.7-2.3,3.7-3.8,5.6-9.9,9.3-14.8,14.3-2.9,1.4-4,4.5-6.7,6.2-1.5,1.7-3.3,3.1-4.4,5.1-.5,0-1.2-.2-1.7.2.5,1.9-2.2,2.3-1.8,3.7-.2,1.1,1.2.6,1.6,1.3.5,4.3,1,8.2.5,12.3.5,4.7-1,8.4-1.2,13.1h-.2c-.6,7.1-.6,14.6-.7,21.3-1.4,3.2.8,6.1-.7,9,.8,1.4,1.6-.5,2.3.7.8-.1,1.9.5,2.3-.4,7.7,1.1,14.8.8,22.6.2,8.9,2.5,19.3,1.2,28.8.2,3.4.6,7.5.8,10.8.7-.2-.8.8-1.7.7-2.3-.5.7-1.4,0-1.6-.7,0-3.9.4-7.4.2-11.7.3-1,.5-2.1.2-2.8.9-2.8-.5-7,0-9.7-.3-.6.5-1.3.2-2.3-2.3-5.1.4-10.3-.5-15.4,0-.8,1.1-1.7,0-2.3,1.3-4.3.6-8.9,2.1-13.8.4.2.6-.3.9-.2-.2-.5-.7-1.2-1.4-.9ZM52.3,25.4c2.2-.3,3.2,2.5,5.4,1.2-.4,1.4-.2,3.9-1.6,5.1l-1.2,5.1c-.7.2-.5-.3-.9-.8-1-1.5-2.8-1.5-3.5-3.2.7-2.4,1-5,1.8-7.4ZM65.1,57.6c-.5.4,0,1.9-.5,2.5-.5.8-1,2.2-.4,3.2h-.5c.2,3.1,0,7.1-.9,9.7.6,2.2-.4,4.7.9,6.9.1,9.2-.1,18.6-.7,28.2-.3.6-1.4-.2-1.4.7h-.5c-.7-1.4-1.9-.2-3.2-.7-4.4.3-8.7,1.5-13.6,1.3-4.4.1-8.6-.1-12.7-.7v-.2c-3.1-.9-6.7-.2-9.9,0-3.8,1.1-8.2-.1-12.5.2v-.2c-.9-.3-2.1-.3-3,0v.2c-.2-.7-1.2-.4-1.8-.5.1.5-1.3-.1-1.9-.2.2-14,1.4-30.5,2.6-45.2-1-3.6-1.1-8.4,0-12,2.2-1.5,3-4.1,5.5-5.5,6.3-8.8,16.3-13,21.7-22.6,1.1-2.3,2.7.3,3.5.9,2,1.1,3.3,3.2,5.6,3.9,0,.9,1.2,1.4,1.6,1.8,1.2,1.5,3,2.5,3.9,3.7,3.2,2.2,5,4.8,6.7,7.8,4.3,2.9,7.3,6.5,11.5,9.2-.3,2.6-.3,5.2,0,7.6Z" fill="#b1b2b4"/>
    <path d="M59.6,53.7c-.8.1-1.6.2-2.4.2-5.6-.6-10.1-3.8-13.5-8.3-.2-.2-.6-.2-1.3,0-2.1,4.9-4.2,9.7-6.3,14.6-.3.7-.1,1.4.3,2l-.8,1.4c-1.7.5-4,1.3-4.2,3.4.6,1.9-.2,4-.7,5.8l-.2.3c-.8-.6.2-1.3-.1-2.1l-2.4-4.7c-.4-.5.3-.8.2-1.4l-7.4-13.4-.4-.4c-1.4-.7-2.4.8-3.3,1.6-2,2.3-4.7,2.9-7.3,3.3l-.8.5c-.2.4-.4.9-.2,1.3l7,12.8c.4.6,1.1.7,1.7,1l2.9,5.2c.4.6,1.2.5,1.8.6,1,1.9,2.2,3.7,3.1,5.6l-1.2,2.8c-1.1,2.8-1.6,6.8,1,9.1l.2,1.5c.3,1.3,1.4,2.7,2.8,2.8.2.5.5,1,.8,1.5.6.7,1.6,1.2,2.6,1.1.5.6,1.1.8,1.8,1.1,1.2.3,2.4.2,3.3-.7l1-.1c1-.4,1.6-1.3,1.7-2.4.7.1,1.4,0,1.9-.5.8-.5.7-1.5.7-2.2,1.1-.1,1.7-1,2-1.9.8-.1,1.6-.1,2.3-.6,1.1-.6,1.1-1.8,1.4-2.8,1.2-.7,2.8-1.4,3.5-2.7.4-.9.6-2.1-.1-2.9-.7-.9-2-.2-2.8.1,0-1.2-.2-2.3-.6-3.4-.5-1.5-1.5-2.8-1.7-4.4.7-2.2,2.5-3.5,3.7-5.4.5-1,.2-2.4-.3-3.4l.4-.8c.2-1,1.4-.3,1.8-1.2l8.5-12.7.2-.6c-.1-.4-.3-.6-.6-.6ZM48.3,88.1c.6-.3,1.2-.8,1.9-.8l.2.3c.1,1.2-1.2,1.8-2,2.2-.1,0-.3.1-.3-.1l.2-1.6ZM22,75.9c-1.2-1.9-2.1-3.8-3.3-5.7-.6-.1-1.2-.2-1.4-.9l-6.3-11.4c-.1-.4.4-.4.6-.6,3.1-.3,5.9-2.4,8.1-4.5l.4.1,6.4,11.9c.1,1.7-1.8,2.4-2.9,3.4l-2.5,1.3c-.2.3-.3.6-.1.9,1,1.1,2.1-.4,3-.7,1.1-.6,2.2-1.4,3.1-2.3l2.3,4.2c-.4,1.4-1.9,2.3-3,3-1.4.7-2.8,1.6-4.4,1.3ZM24.2,77.4c1.8-.9,3.8-1.7,5.4-3.2.2.1.3.5.5.8-1,2.3-2.3,4.4-3.5,6.6h-.1l-2.3-4.2ZM37.1,100.7c-1.3-.2-1.3-1.7-1.8-2.6-.2-.8-.2-1.9.3-2.7.6-.5,1.3.1,1.5.7.5,1.2.8,2.4.8,3.8-.1.3-.3.8-.8.8ZM40.2,98.5l-.8-.1c-.6-1.7-.9-4.2-3.1-4.7-.3-.5-.5-1.3-.2-1.9.3-.3.8-.3,1.1-.1.9.4,1.7,1.5,2.2,2.4.7,1.1,1.3,2.3,1.5,3.5,0,.4-.3.7-.7.9ZM41.9,95.9c-.9-2-2.3-3.7-4.2-5.5-.2-.3-.1-.8.1-1.1.2-.3.5-.4.7-.4,1.3.1,2,1.5,2.7,2.5.4,1.4,2.4,3.2.7,4.5ZM44.2,93.4c-.2,0-.2.2-.4.1-.7-1.9-1.7-3.7-3.3-5.3.1-.3.1-.7.5-.9,1.7.2,2.2,2.1,3,3.3.3.8,1.1,2,.2,2.8ZM48.2,72.4c-1.1,1.9-2.7,3.4-3.6,5.4-.4,3,2.4,5.2,2.1,8.3-.2,2.1-.3,4.2-.8,6.2-.2-2.4-1.9-5.1-4.2-6.3-.6-.2-1.1,0-1.6.2-.4.3-.7.8-.9,1.2-.6-.3-1.2,0-1.7.1-.9.5-1.4,1.4-1.4,2.5-.8.3-1.5,1.1-1.6,2,.1.6-.1,1.3.2,1.8-1.6,2-1,4.9,0,7l.6.7c-.4.3-1,.2-1.4,0-1.9-.9-1.8-3.3-1.7-5.2,0-1.2.8-2.7-.1-3.6-.4-.2-.8.1-.9.4-.6,2.3-1.1,5-.4,7.2-1.4-.9-1.5-2.7-1.4-4.2.1-2,.6-3.8,1-5.7,0-.3-.1-.6-.4-.8-.4-.2-.8.1-1,.4-.8,2.4-1.1,5-1.1,7.5-.8-.2-1-1.1-1.2-1.8-.3-2.3.5-4.6.9-6.7,0-.4,0-.9-.5-1-1.2.1-1.1,1.6-1.5,2.5l-.3,2.3c-1-1.4-.5-3.6-.2-5.3,1.6-4.3,4.1-8,6.2-12,.9-2.3,2.3-4.5,2.2-7.2-.2-.6-.1-1.5.3-2.1.5-.4,1-.6,1.6-.8l.1.7c-.3,1.9.9,3.8,2.5,4.8,2.4,1.8,6.3,2.6,9,1.1l1-.6c.2.2.3.7.2,1ZM46.5,70.4c-1.9,1-4.3.7-6.2-.2-1.4-.9-2.9-1.9-3-3.7-.1-1,.4-2,.9-2.8,2.9,2.2,6.3,3.8,10.1,4.4-.2.9-.8,1.9-1.8,2.3ZM50.3,66.5c-4.8,0-8.7-2.2-12.2-5.1-.2-.4.1-.9.3-1.2,3.5,2.9,7.5,5.3,12.5,5.4,0,.4-.4.6-.6.9ZM51.9,64.3c-5.1.1-9.2-2.4-12.7-5.7,0-.5.3-1,.5-1.5,3.6,3.3,7.7,6,12.9,6-.1.4-.4.8-.7,1.2ZM53.3,61.8c-5.3,0-9.4-2.6-12.9-6,.1-.5.3-1,.6-1.4,3.6,3.4,7.8,6.5,13.3,6.3-.2.3-.4,1.1-1,1.1ZM55.4,59.2c-5.5.2-10-2.7-13.7-6.6.2-.4.2-.9.5-1.2,3.7,3.9,8.1,7,13.8,6.8-.1.4-.4.7-.6,1ZM57.3,56.5c-5.7.8-10.6-2.6-14.3-6.7.1-.5.3-1,.6-1.5,3.7,4,8.3,7.6,14.3,7.1-.1.4-.4.7-.6,1.1Z" fill="#b1b2b4"/>
    <path d="M36.8,78.3c-1.2.6-2,2-2.8,3.1.1-.7.4-1.4.4-2.2,0-.6.2-1.5-.1-2.2-.2-.2-.3-.2-.6-.2-2.3,1.3-3.4,3.6-4.7,5.7l.9.7c1-1.9,2-3.8,3.6-5.4.1-.1.3-.1.4,0-.1,2.1-.9,4.1-1.7,5.9-.7.8.7,1,1,1.4.6-1.2,1.2-2.4,1.8-3.6.6-.8,1-1.8,1.9-2.3.5.3.1,1.1.1,1.6-.3,2.2-1.2,4.1-1.8,6.1.3.2.6.5.9.6.9-2.6,1.8-5.6,1.4-8.5-.1-.3-.3-.7-.7-.7Z" fill="#b1b2b4"/>
    <path d="M71.8,107.1c-1.4,0-2.5,1.1-2.4,2.4,0,1.4,1.1,2.5,2.4,2.5s2.4-1.1,2.4-2.5c0-1.3-1.1-2.4-2.4-2.4ZM71.7,111.7c-1.1,0-2-.9-2-2.1s.9-2.1,2-2.1,2,.9,2,2.1-.9,2.1-2,2.1Z" fill="#b1b2b4"/>
    <path d="M72.3,109.7c.3-.1.5-.3.5-.7,0-.3-.1-.5-.3-.6-.1-.1-.4-.2-.8-.2s-.6.1-.8.1v2.7h.5v-1.1h.3c.4,0,.5.2.6.5.1.4.1.6.2.7h.5c-.1-.1-.1-.3-.2-.7-.1-.4-.3-.7-.5-.7ZM71.6,109.4h-.3v-1h.3c.5,0,.7.3.7.5,0,.4-.3.5-.7.5Z" fill="#b1b2b4"/>
    <polygon points="94.4 65 85.1 65 85.1 50.1 82.3 50.1 82.3 67.4 94.4 67.4 94.4 65" fill="#b1b2b4"/>
    <path d="M96.8,66.6c.4.3.9.6,1.4.8s1.1.3,1.7.3c1,0,1.9-.2,2.8-.6.8-.4,1.5-.9,2.1-1.7l.1.8c0,.4.2.7.5,1,.3.3.7.4,1.2.4h.6c.2,0,.4-.1.7-.1v-2.3c-.5,0-.7-.3-.7-.9v-4.6c0-1.7-.5-3-1.5-3.9-1-.9-2.3-1.3-4.1-1.3-1.7,0-3.5.6-5.1,1.7l.8,1.7c.7-.5,1.3-.8,2-1.1.6-.3,1.3-.4,2-.4,1,0,1.8.3,2.3.8s.8,1.3.8,2.2v.9c-.5-.2-1-.3-1.6-.4-.6-.1-1.2-.2-1.8-.2-.8,0-1.5.1-2.2.3-.6.2-1.2.4-1.7.8-.5.4-.8.8-1.1,1.3-.3.4-.4,1-.4,1.6s.1,1.1.3,1.6.5.9.9,1.3ZM99,61.8c.6-.4,1.4-.6,2.4-.6.5,0,1,0,1.5.1.6.1,1,.2,1.5.4v1.7c0,.3-.2.6-.5.9-.4.4-.8.8-1.4,1-.5.3-1.1.4-1.8.4-.8,0-1.4-.2-1.9-.6-.5-.4-.7-1-.7-1.6,0-.7.3-1.3.9-1.7Z" fill="#b1b2b4"/>
    <path d="M118.5,64.7c.7.8,1.6,1.5,2.6,2,1.1.5,2.2.8,3.4.8.7,0,1.4-.1,2.1-.3.7-.2,1.4-.5,2-.8.6-.4,1.2-.8,1.7-1.3s.9-1,1.2-1.7l-2.3-1.3c-.3.5-.5.9-.9,1.3-.3.4-.7.7-1.1.9-.4.2-.9.4-1.3.5-.4.1-.9.2-1.3.2-.9,0-1.6-.1-2.3-.5-.7-.3-1.3-.8-1.8-1.4-.5-.6-.9-1.2-1.2-2-.3-.7-.4-1.5-.4-2.4,0-.8.2-1.5.4-2.3.3-.7.6-1.4,1.1-2,.4-.6,1-1.1,1.7-1.5.7-.4,1.5-.6,2.4-.6.4,0,.9,0,1.3.1.5.1.9.3,1.3.5.4.3.8.5,1.1.9.4.3.7.8.9,1.3l2.2-1.4c-.5-1.1-1.4-2-2.5-2.7-1.2-.7-2.5-1.1-4.1-1.1-1.4,0-2.6.3-3.6.8-1.1.5-2,1.2-2.7,2-.8.8-1.3,1.8-1.7,2.8-.4,1-.6,2.1-.6,3.1,0,1.1.2,2.2.7,3.2.4,1.1,1,2.1,1.7,2.9Z" fill="#b1b2b4"/>
    <path d="M142.3,66.2c0,.4.2.7.5,1,.3.3.7.4,1.2.4h.6c.2,0,.4-.1.7-.1v-2.3c-.5,0-.7-.3-.7-.9v-4.6c0-1.7-.5-3-1.5-3.9-1-.9-2.3-1.3-4.1-1.3-1.7,0-3.5.6-5.1,1.7l.8,1.7c.7-.5,1.3-.8,2-1.1.6-.3,1.3-.4,2-.4,1,0,1.8.3,2.3.8s.8,1.3.8,2.2v.9c-.5-.2-1-.3-1.6-.4-.6-.1-1.2-.2-1.8-.2-.8,0-1.5.1-2.2.3-.6.2-1.2.4-1.7.8-.5.4-.8.8-1.1,1.3-.3.4-.4,1-.4,1.6s.1,1.1.3,1.6c.2.5.5.9.9,1.3.4.3.9.6,1.4.8s1.1.3,1.7.3c.9,0,1.8-.2,2.8-.6.8-.4,1.5-.9,2.1-1.7l.1.8ZM141.7,63.4c0,.3-.2.6-.5.9-.4.4-.8.8-1.4,1-.5.3-1.1.4-1.8.4s-1.3-.2-1.9-.6c-.5-.4-.7-1-.7-1.6,0-.7.3-1.3.9-1.7.6-.4,1.4-.6,2.4-.6.5,0,1,0,1.5.1.6.1,1,.2,1.5.4v1.7Z" fill="#b1b2b4"/>
    <path d="M154.5,65.3c-.5.3-1.1.5-1.9.5s-1.5-.1-2.3-.4c-.8-.3-1.5-.7-2.3-1.3l-1.1,1.7c.7.6,1.6,1.1,2.6,1.4s2.1.5,3.1.5c1.6,0,2.8-.4,3.9-.9.9-.7,1.4-1.7,1.4-2.9,0-.6-.1-1-.3-1.4-.2-.4-.5-.7-.9-1-.5-.2-1-.5-1.6-.7-.6-.2-1.3-.4-2.2-.6-.5-.2-.9-.3-1.3-.4-.4-.2-.7-.3-.9-.4-.2-.2-.4-.3-.5-.5,0-.2-.1-.4-.1-.7,0-.7.2-1.1.7-1.4.4-.3,1-.4,1.7-.4,1.3,0,2.6.5,3.8,1.4l1.2-1.6c-.6-.6-1.4-1-2.2-1.3-.8-.3-1.7-.4-2.7-.4-.7,0-1.4.1-2,.3-.6.2-1.2.5-1.6.8-.5.4-.8.8-1.1,1.3s-.4,1-.4,1.7c0,.4,0,.9.2,1.2.2.3.4.6.8.9.4.3.8.5,1.4.7.6.2,1.3.4,2.1.6,1.1.3,1.9.6,2.4.8.5.3.8.7.8,1.2s-.2,1-.7,1.3Z" fill="#b1b2b4"/>
    <path d="M171,64.3v-4.6c0-1.7-.5-3-1.5-3.9-1-.9-2.3-1.3-4.1-1.3-1.7,0-3.5.6-5.1,1.7l.8,1.7c.7-.5,1.3-.8,2-1.1.6-.3,1.3-.4,2-.4,1,0,1.8.3,2.3.8s.8,1.3.8,2.2v.9c-.5-.2-1-.3-1.6-.4-.6-.1-1.2-.2-1.8-.2-.8,0-1.5.1-2.2.3-.6.2-1.2.4-1.7.8-.5.4-.8.8-1.1,1.3-.3.4-.4,1-.4,1.6s.1,1.1.3,1.6.5.9.9,1.3c.4.3.9.6,1.4.8s1.1.3,1.7.3c1,0,1.9-.2,2.8-.6.8-.4,1.5-.9,2.1-1.7l.1.8c0,.4.2.7.5,1s.7.4,1.2.4h.6c.2,0,.4-.1.7-.1v-2.3c-.5,0-.7-.3-.7-.9ZM168.1,63.4c0,.3-.2.6-.5.9-.4.4-.8.8-1.4,1-.5.3-1.1.4-1.8.4s-1.3-.2-1.9-.6c-.5-.4-.7-1-.7-1.6,0-.7.3-1.3.9-1.7.6-.4,1.4-.6,2.4-.6.5,0,1,0,1.5.1.6.1,1,.2,1.5.4v1.7Z" fill="#b1b2b4"/>
    <path d="M192.8,67.7c.2,0,.4-.1.7-.1v-2.3c-.3,0-.5-.1-.6-.2-.1-.2-.2-.4-.2-.7v-14.7h-2.7v7.5c-.4-.8-1-1.4-1.8-1.9s-1.7-.7-2.7-.7c-.8,0-1.6.1-2.3.5-.7.3-1.3.8-1.8,1.4-.5.6-.9,1.3-1.2,2.1s-.4,1.6-.4,2.5.2,1.8.5,2.6c.3.8.8,1.5,1.3,2.1.5.6,1.2,1.1,1.9,1.4s1.5.5,2.4.5c1,0,1.9-.2,2.7-.6.8-.5,1.4-1.1,1.9-1.9v1c.1.5.3.8.6,1.1.3.3.8.4,1.3.4h.4ZM190.1,62.9c-.1.4-.3.7-.5,1-.2.3-.5.6-.8.8-.3.2-.7.4-1.1.5-.4.1-.8.2-1.2.2-.5,0-1-.1-1.7-.3-.4-.2-.8-.5-1.2-.9-.3-.4-.6-.9-.8-1.4-.2-.6-.3-1.1-.3-1.7,0-.5.1-1.1.3-1.6.2-.5.5-1,.8-1.4.4-.4.8-.8,1.2-1,.5-.3,1-.4,1.5-.4.4,0,.8.1,1.2.2.4.2.8.4,1.1.6.3.3.6.6.9.9.2.3.5.7.6,1.1v3.4Z" fill="#b1b2b4"/>
    <path d="M208.2,64.7l-2.3-.7c-.1.3-.3.6-.5.8-.2.2-.5.4-.8.6-.3.2-.7.3-1,.4-.4.1-.7.1-1.1.1-.5,0-1-.1-1.4-.3-.4-.2-.8-.5-1.2-.8-.4-.3-.7-.7-.9-1.2-.2-.4-.4-.9-.4-1.5h10.3v-1c0-.9-.2-1.7-.5-2.5s-.7-1.5-1.3-2.1c-.6-.6-1.3-1-2.1-1.4-.8-.3-1.7-.5-2.7-.5s-1.9.1-2.7.5c-.8.3-1.5.8-2.1,1.4-.5.6-1,1.3-1.3,2.1s-.5,1.7-.5,2.6.2,1.7.5,2.5.7,1.5,1.3,2.1,1.3,1,2.1,1.4c.8.3,1.7.5,2.7.5,1.4,0,2.5-.3,3.7-.6,1-.6,1.8-1.4,2.2-2.4ZM199,58.6c.2-.5.5-.9.8-1.2.4-.3.8-.5,1.2-.7.4-.2.9-.3,1.4-.3s.9.1,1.4.3c.5.1.9.4,1.2.7.3.4.6.7.8,1.2.2.5.4,1,.4,1.5h-7.6c.1-.5.2-1,.4-1.5Z" fill="#b1b2b4"/>
    <path d="M91.9,85.3c.5-.1,1-.4,1.4-.7.4-.3.8-.7,1.1-1.2.3-.5.5-1,.7-1.5.1-.5.2-1.1.2-1.7,0-.7-.1-1.4-.4-2.1-.3-.7-.6-1.3-1.1-1.8s-1-1-1.7-1.3c-.7-.3-1.4-.5-2.2-.5h-7.6v17.4h2.8v-6h4l3.8,6h3.1l-4.1-6.6ZM91,83.1c-.4.2-.7.3-1.1.3h-4.8s0-6.4,0-6.4h4.7c.3,0,.7.1,1,.3.4.2.6.4.9.7.2.3.4.6.6,1,.1.3.2.8.2,1.2s-.1.8-.2,1.2c-.1.4-.3.7-.5,1s-.5.5-.8.7Z" fill="#b1b2b4"/>
    <path d="M109.9,83.2c-.3-.8-.7-1.5-1.3-2.1-.6-.6-1.3-1-2.1-1.4-.8-.3-1.7-.5-2.7-.5s-1.9.1-2.7.5c-.8.3-1.5.8-2.1,1.4-.5.6-1,1.3-1.3,2.1s-.5,1.6-.5,2.5c0,.8.2,1.7.5,2.5s.7,1.5,1.3,2.1,1.3,1,2.1,1.4c.8.3,1.7.5,2.7.5s1.9-.2,2.7-.5,1.5-.8,2.1-1.4c.5-.6,1-1.3,1.3-2.1.3-.8.5-1.6.5-2.5,0-.8-.2-1.7-.5-2.5ZM107.3,87.3c-.2.6-.5,1-.8,1.4s-.7.7-1.2.9-1,.3-1.5.3-1-.1-1.5-.3c-.5-.2-.9-.5-1.2-.9-.3-.4-.6-.9-.8-1.4s-.3-1.1-.3-1.7c0-.7.1-1.2.3-1.7s.5-1,.8-1.4c.3-.4.7-.7,1.2-.9.5-.2,1-.3,1.5-.3s1,.1,1.5.3.9.5,1.2.9c.3.4.6.9.8,1.4.2.5.3,1.1.3,1.7s-.1,1.2-.3,1.7Z" fill="#b1b2b4"/>
    <path d="M121.8,84.7v7.2h2.7v-7.7c0-.7-.1-1.4-.2-2-.1-.7-.3-1.2-.6-1.7-.3-.4-.7-.8-1.2-1.1s-1.1-.4-1.9-.4c-1.1,0-2.2.2-3.1.7s-1.6,1.1-2.1,2v-2.6h-2.4v12.8h2.7v-7.6c.1-.4.3-.8.6-1.2.3-.4.6-.7.9-1,.3-.2.7-.5,1.1-.6.4-.1.8-.2,1.2-.2.7,0,1.3.3,1.7.8s.6,1.4.6,2.6Z" fill="#b1b2b4"/>
    <path d="M139.3,92v-2.3c-.5,0-.7-.3-.7-.9v-4.6c0-1.7-.5-3-1.5-3.9-1-.9-2.3-1.3-4.1-1.3-1.7,0-3.5.6-5.1,1.7l.8,1.7c.7-.5,1.3-.8,2-1.1.6-.3,1.3-.4,2-.4,1,0,1.8.3,2.3.8s.8,1.3.8,2.2v.9c-.5-.2-1-.3-1.6-.4-.6-.1-1.2-.2-1.8-.2-.8,0-1.5.1-2.2.3-.6.2-1.2.4-1.7.8-.5.4-.8.9-1.1,1.3-.3.4-.4,1-.4,1.6s.1,1.1.3,1.6c.2.5.5.9.9,1.3.4.3.9.6,1.4.8s1.1.3,1.7.3c1,0,1.9-.2,2.8-.6.8-.4,1.5-.9,2.1-1.7l.1.8c0,.4.2.7.5,1,.3.3.7.4,1.2.4h.6c.2,0,.4-.1.7-.1ZM135.7,87.9c0,.3-.2.6-.5.9-.4.4-.8.8-1.4,1-.5.3-1.1.4-1.8.4s-1.3-.2-1.9-.6c-.5-.4-.7-1-.7-1.6,0-.7.3-1.3.9-1.7.6-.4,1.4-.6,2.4-.6.5,0,1,0,1.5.1.6.1,1,.2,1.5.4v1.7Z" fill="#b1b2b4"/>
    <path d="M146.4,91.9c.5-.1,1-.2,1.4-.4l-.4-2.1c-.2.1-.5.1-.7.2-.2.1-.4.1-.6.1-.4,0-.8-.1-1-.4-.3-.3-.4-.6-.4-1.1v-14.2h-2.7v15.1c0,1,.3,1.7.8,2.2s1.3.8,2.2.8c.4,0,.9-.1,1.4-.2Z" fill="#b1b2b4"/>
    <path d="M161.6,88.7v-14.7h-2.7v7.7c-.4-.8-1-1.4-1.8-1.9-.8-.5-1.7-.7-2.7-.7-.8,0-1.6.1-2.3.5-.7.3-1.3.8-1.8,1.4-.5.6-.9,1.3-1.2,2.1-.3.8-.4,1.6-.4,2.5s.2,1.8.5,2.6.8,1.5,1.3,2.1c.5.6,1.2,1.1,1.9,1.4s1.5.5,2.4.5c1,0,1.9-.3,2.7-.8s1.4-1.1,1.9-1.9v1c.1.5.3.8.6,1.1.3.3.8.4,1.3.4h.4c.2,0,.4-.1.7-.1v-2.3c-.3,0-.5-.1-.6-.2-.1-.2-.2-.4-.2-.7ZM159,87.4c-.1.4-.3.7-.5,1s-.5.6-.8.8-.7.4-1.1.5c-.4.1-.8.2-1.2.2-.5,0-1-.2-1.7-.3-.4-.2-.8-.5-1.2-.9-.3-.4-.6-.9-.8-1.4-.2-.6-.3-1.1-.3-1.7,0-.5.1-1.1.3-1.6s.5-1,.8-1.4c.4-.4.8-.8,1.2-1,.5-.3,1-.4,1.5-.4.4,0,.8.1,1.2.2.4.2.8.4,1.1.6.3.3.6.6.9.9.2.3.5.7.6,1.1v3.4Z" fill="#b1b2b4"/>
    <polygon points="180.7 85.2 175 74.5 172 74.5 172 91.9 174.8 91.9 174.8 79.4 180 88.9 181.5 88.9 186.7 79.4 186.7 91.9 189.4 91.9 189.4 74.5 186.5 74.5 180.7 85.2" fill="#b1b2b4"/>
    <path d="M201.4,88.7c-.2.3-.4.4-.7.6s-.6.3-.9.4c-.3.1-.7.1-1,.1-.5,0-1-.1-1.5-.3-.4-.2-.8-.5-1.2-.9-.3-.4-.6-.9-.8-1.4-.2-.5-.3-1.1-.3-1.7s.1-1.2.3-1.7c.2-.6.5-1,.8-1.4.3-.4.7-.7,1.2-.9.5-.2,1-.3,1.5-.3.6,0,1.2.2,1.7.5s.9.8,1.2,1.3l2.6-.8c-.4-.9-1.1-1.7-2.1-2.3-.9-.6-2.1-.9-3.4-.9-1,0-1.9.1-2.7.5-.8.3-1.5.8-2.1,1.4-.5.6-1,1.3-1.3,2.1-.3.8-.5,1.6-.5,2.5s.2,1.8.6,2.5c.3.8.7,1.5,1.3,2.1.6.7,1.3,1.1,2.1,1.5.8.3,1.7.5,2.7.5,1.3,0,2.5-.3,3.5-.9,1-.6,1.7-1.4,2.1-2.4l-2.6-.8c-.1.3-.3.5-.5.7Z" fill="#b1b2b4"/>
    <path d="M219.8,77.1c-.7-.8-1.5-1.4-2.6-1.9s-2.3-.7-3.7-.7h-6.2v17.5h6.1c1.3,0,2.5-.2,3.5-.6,1.1-.5,2-1,2.7-1.8.7-.7,1.3-1.6,1.7-2.7.4-1.1.6-2.3.6-3.6,0-1.2-.1-2.3-.5-3.4-.4-1.1-.9-2-1.6-2.8ZM218.8,85.6c-.3.8-.6,1.4-1.1,2-.5.5-1.1,1-1.8,1.3-.7.3-1.5.5-2.4.5h-3.4v-12.5h3.4c.9,0,1.7.2,2.4.5.7.3,1.3.8,1.8,1.3.5.6.8,1.2,1.1,2,.3.7.4,1.6.4,2.5s-.1,1.7-.4,2.4Z" fill="#b1b2b4"/>
    <path d="M235.3,81.1c-.6-.6-1.3-1-2.1-1.4-.8-.3-1.7-.5-2.7-.5s-1.9.1-2.7.5c-.8.3-1.5.8-2.1,1.4-.5.6-1,1.3-1.3,2.1-.3.8-.5,1.6-.5,2.5,0,.8.2,1.7.5,2.5.3.8.7,1.5,1.3,2.1.6.6,1.3,1,2.1,1.4.8.3,1.7.5,2.7.5s1.9-.2,2.7-.5,1.5-.8,2.1-1.4c.5-.6,1-1.3,1.3-2.1.3-.8.5-1.6.5-2.5,0-.8-.2-1.7-.5-2.5-.3-.8-.7-1.5-1.3-2.1ZM234,87.3c-.2.6-.5,1-.8,1.4s-.7.7-1.2.9-1,.3-1.5.3-1-.1-1.5-.3c-.5-.2-.9-.5-1.2-.9-.3-.4-.6-.9-.8-1.4s-.3-1.1-.3-1.7c0-.7.1-1.2.3-1.7s.5-1,.8-1.4c.3-.4.7-.7,1.2-.9.5-.2,1-.3,1.5-.3s1,.1,1.5.3.9.5,1.2.9c.3.4.6.9.8,1.4s.3,1.1.3,1.7-.1,1.2-.3,1.7Z" fill="#b1b2b4"/>
    <path d="M250.4,80.5c-.3-.4-.7-.8-1.2-1.1s-1.1-.4-1.9-.4c-1.1,0-2.2.2-3.1.7-.9.5-1.6,1.1-2.1,2v-2.6h-2.4v12.8h2.7v-7.6c.1-.4.3-.8.6-1.2.3-.4.6-.7.9-1,.3-.2.7-.5,1.1-.6.4-.1.8-.2,1.2-.2.7,0,1.3.3,1.7.8.4.5.6,1.4.6,2.6v7.2h2.7v-7.7c0-.7-.1-1.4-.2-2-.1-.7-.3-1.2-.6-1.7Z" fill="#b1b2b4"/>
    <path d="M265.3,88.8v-4.6c0-1.7-.5-3-1.5-3.9-1-.9-2.3-1.3-4.1-1.3-1.7,0-3.5.6-5.1,1.7l.8,1.7c.7-.5,1.3-.8,2-1.1.6-.3,1.3-.4,2-.4,1,0,1.8.3,2.3.8s.8,1.3.8,2.2v.9c-.5-.2-1-.3-1.6-.4-.6-.1-1.2-.2-1.8-.2-.8,0-1.5.1-2.2.3-.6.2-1.2.4-1.7.8-.5.4-.8.8-1.1,1.3-.3.4-.4,1-.4,1.6s.1,1.1.3,1.6.5.9.9,1.3c.4.3.9.6,1.4.8s1.1.3,1.7.3c1,0,1.9-.2,2.8-.6.8-.4,1.5-.9,2.1-1.7l.1.8c0,.4.2.7.5,1,.3.3.7.4,1.2.4h.6c.2,0,.4-.1.7-.1v-2.3c-.5,0-.7-.3-.7-.9ZM262.5,87.9c0,.3-.2.6-.5.9-.4.4-.8.8-1.4,1-.5.3-1.1.4-1.8.4-.8,0-1.4-.2-1.9-.6-.5-.4-.7-1-.7-1.6,0-.7.3-1.3.9-1.7.6-.4,1.4-.6,2.4-.6.5,0,1,0,1.5.1.6.1,1,.2,1.5.4v1.7Z" fill="#b1b2b4"/>
    <path d="M273.4,89.6c-.2.1-.4.1-.6.1-.4,0-.8-.1-1-.4-.3-.3-.4-.6-.4-1.1v-14.2h-2.7v15.1c0,1,.3,1.7.8,2.2s1.3.8,2.2.8c.4,0,.9-.1,1.4-.2s1-.2,1.4-.4l-.4-2.1c-.2.1-.5.1-.7.2Z" fill="#b1b2b4"/>
    <path d="M288.3,88.7v-14.7h-2.7v7.7c-.4-.8-1-1.4-1.8-1.9-.8-.5-1.7-.7-2.7-.7-.8,0-1.6.1-2.3.5-.7.3-1.3.8-1.8,1.4-.5.6-.9,1.3-1.2,2.1-.3.8-.4,1.6-.4,2.5s.2,1.8.5,2.6.8,1.5,1.3,2.1c.5.6,1.2,1.1,1.9,1.4.7.3,1.5.5,2.4.5,1,0,1.9-.3,2.7-.8.8-.5,1.4-1.1,1.9-1.9v1c.1.5.3.8.6,1.1.3.3.8.4,1.3.4h.4c.2,0,.4-.1.7-.1v-2.3c-.3,0-.5-.1-.6-.2-.1-.2-.2-.4-.2-.7ZM285.8,87.4c-.1.4-.3.7-.5,1s-.5.6-.8.8c-.3.2-.7.4-1.1.5-.4.1-.8.2-1.2.2-.6,0-1.1-.2-1.7-.3-.4-.2-.8-.5-1.2-.9-.3-.4-.6-.9-.8-1.4-.2-.6-.3-1.1-.3-1.7,0-.5.1-1.1.3-1.6s.5-1,.8-1.4c.4-.4.8-.8,1.2-1,.5-.3,1-.4,1.5-.4.4,0,.8.1,1.2.2.4.2.8.4,1.1.6.3.3.6.6.9.9.2.3.5.7.6,1.1v3.4Z" fill="#b1b2b4"/>
    <polygon points="291.4 73.9 291.4 74.7 292.6 74.7 292.6 77.6 293.4 77.6 293.4 74.7 294.5 74.7 294.5 73.9 291.4 73.9" fill="#b1b2b4"/>
    <polygon points="298.2 74 297.3 76.2 296.3 74 295.2 74 295.2 77.6 296 77.6 296 75 297 77.1 297.5 77.1 298.5 75 298.5 77.6 299.3 77.6 299.3 74 298.2 74" fill="#b1b2b4"/>
  </g>
</svg>