<?xml version="1.0" encoding="UTF-8"?>
<svg id="Layer_1" data-name="Layer 1" xmlns="http://www.w3.org/2000/svg" viewBox="0 0 111 45">
  <path d="M110.7,42.6h-5.2v-3.1h4.4v-.1l-.3-1.8s0-.1-.1-.1h-4v-2.6h5.1s.1,0,.1-.1v-1.8s0-.1-.1-.1h-7.3s-.1,0-.1.1v11.7s0,.1.1.1h7.4s.1,0,.1-.1v-1.8s0-.1-.1-.1v-.2Z" fill="#b1b2b4" fill-rule="evenodd"/>
  <path d="M80.7,28.6c6.5-4.2,12.1-12.4,14-19-6.4-3.3-10.3-6.7-12.7-8.9-.3-.3-.7,0-.6.4,2,5.2,4.3,15.8-1.1,27.4,0,.2.1.3.3.2l.1-.1Z" fill="#b1b2b4" fill-rule="evenodd"/>
  <path d="M42.1,42.6h-5.2v-3.1h4.4v-.1l-.3-1.8s0-.1-.1-.1h-4v-2.6h5.1s.1,0,.1-.1v-1.8s0-.1-.1-.1h-7.3s-.1,0-.1.1v11.7s0,.1.1.1h7.4s.1,0,.1-.1v-1.8s0-.1-.1-.1v-.2Z" fill="#b1b2b4" fill-rule="evenodd"/>
  <path d="M5,37.5c-1.8-.6-2.4-.9-2.4-1.7s.8-1.3,1.8-1.3,2,.3,3.1.9h0v-.1l.3-1.9v-.1c-1-.5-2.2-.7-3.5-.7-2.4,0-4.1,1.4-4.1,3.5s1.3,2.7,3.8,3.6c1.7.6,2.2.9,2.2,1.8s-.8,1.5-2.1,1.5-2.6-.4-3.7-1H.4v.1l-.4,1.7v.1c1.4.6,2.8.9,4.1.9,2.7,0,4.4-1.5,4.4-3.7s-1.3-2.8-3.6-3.6h.1Z" fill="#b1b2b4" fill-rule="evenodd"/>
  <path d="M27.9,32.6h-3.8s-.1,0-.1.1v11.7s0,.1.1.1h2.1s.1,0,.1-.1v-4.4h1.3c2.9,0,4.6-1.4,4.6-3.8s-1.7-3.7-4.3-3.7v.1ZM27.6,38.2h-1.3v-3.5h1.4c1,0,2.2.3,2.2,1.7s-.7,1.7-2.3,1.7v.1Z" fill="#b1b2b4" fill-rule="evenodd"/>
  <path d="M20.6,32.6h-2.1s-.1,0-.1.1v7.1c0,1.9-.9,2.9-2.6,2.9s-2.6-1.1-2.6-3v-7.1s0-.1-.1-.1h-2.1s-.1,0-.1.1v7.2c0,3.1,1.8,4.9,4.9,4.9s5-1.9,5-5v-7.1s0-.1-.1-.1l-.1.1Z" fill="#b1b2b4" fill-rule="evenodd"/>
  <path d="M70.2,32.6h-2.1s-.1,0-.1.1v11.7s0,.1.1.1h2.1s.1,0,.1-.1v-11.7s0-.1-.1-.1Z" fill="#b1b2b4" fill-rule="evenodd"/>
  <path d="M50.7,39.8c1.5-.6,2.4-1.8,2.4-3.4,0-2.4-1.7-3.8-4.6-3.8h-3.6s-.1,0-.1.1v11.7s0,.1.1.1h2.1s.1,0,.1-.1v-4.4h1.1l3.2,4.6h.1l2.2-.5h0v-.1l-3.1-4.3.1.1ZM48.5,38.2h-1.4v-3.5h1.4c1,0,2.2.3,2.2,1.7s-.8,1.8-2.2,1.8Z" fill="#b1b2b4" fill-rule="evenodd"/>
  <path d="M100.8,42.6h-4.3v-9.8s0-.1-.1-.1h-2.1s-.1,0-.1.1v11.7s0,.1.1.1h6.9v-.1l-.3-1.8s0-.1-.1-.1Z" fill="#b1b2b4" fill-rule="evenodd"/>
  <path d="M81.8,42.6h-5.2v-3.1h4.4v-.1l-.3-1.8s0-.1-.1-.1h-4v-2.6h5.1s.1,0,.1-.1v-1.8s0-.1-.1-.1h-7.3s-.1,0-.1.1v11.7s0,.1.1.1h7.4s.1,0,.1-.1v-1.8s0-.1-.1-.1v-.2Z" fill="#b1b2b4" fill-rule="evenodd"/>
  <path d="M65.7,32.7h-2.2l-3.3,8.8-3.2-8.8h-2.4v.1l4.6,11.7h2.1l4.6-11.7v-.1h-.2Z" fill="#b1b2b4" fill-rule="evenodd"/>
  <path d="M87.2,25.2c8.5-5.9,17.3-8.7,23.4-9.9.3,0,.3-.6,0-.7-5.4-.8-10.6-2.6-14-4.2-2,5.2-5.8,10.7-9.7,14.5-.2.2,0,.5.3.3Z" fill="#b1b2b4" fill-rule="evenodd"/>
  <path d="M91.7,42.6h-4.3v-9.8s0-.1-.1-.1h-2.1s-.1,0-.1.1v11.7s0,.1.1.1h6.9v-.1l-.3-1.8s0-.1-.1-.1Z" fill="#b1b2b4" fill-rule="evenodd"/>
</svg>