<?xml version="1.0" encoding="UTF-8"?>
<svg id="Livello_1" data-name="Livello 1" xmlns="http://www.w3.org/2000/svg" viewBox="0 0 1041.7 250">
  <g>
    <path d="M74.6,37.3C74.6,16.7,57.9,0,37.3,0S0,16.7,0,37.3s16.7,37.3,37.3,37.3,37.3-16.7,37.3-37.3" fill="#b1b2b4"/>
    <path d="M162.3,37.3c0-20.6-16.7-37.3-37.3-37.3s-37.3,16.7-37.3,37.3,16.7,37.3,37.3,37.3,37.3-16.7,37.3-37.3" fill="#b1b2b4"/>
    <path d="M250,37.3c0-20.6-16.7-37.3-37.3-37.3s-37.3,16.7-37.3,37.3,16.7,37.3,37.3,37.3,37.3-16.7,37.3-37.3" fill="#b1b2b4"/>
    <path d="M162.3,125c0-20.6-16.7-37.3-37.3-37.3s-37.3,16.7-37.3,37.3,16.7,37.3,37.3,37.3,37.3-16.7,37.3-37.3" fill="#b1b2b4"/>
    <path d="M162.3,212.7c0-20.6-16.7-37.3-37.3-37.3s-37.3,16.7-37.3,37.3,16.7,37.3,37.3,37.3,37.3-16.7,37.3-37.3" fill="#b1b2b4"/>
  </g>
  <g>
    <polygon points="329.5 95.9 294.8 95.9 294.8 75.2 385.8 75.2 385.8 95.9 351 95.9 351 191.1 329.5 191.1 329.5 95.9" fill="#b1b2b4"/>
    <path d="M440.3,141.5c-1.8-10.8-8.9-19-20.7-19-12.6,0-19.9,8.3-22.4,19h43.1ZM458.5,166.3c-1.8,6.6-12.3,26.5-38.9,26.5-24.8,0-43-18.2-43-43.9s18.2-43.9,43-43.9c23.2,0,41.4,18.2,41.4,42.2,0,2.5-.3,4.5-.5,6l-.3,2.3h-62.9c1.8,11.8,10.6,19.9,22.4,19.9,9.8,0,15.7-5.6,17.4-9.1h21.4Z" fill="#b1b2b4"/>
    <rect x="473.4" y="75.2" width="20.7" height="115.9" fill="#b1b2b4"/>
    <path d="M570.2,141.5c-1.8-10.8-8.9-19-20.7-19-12.6,0-19.9,8.3-22.4,19h43.1ZM588.5,166.3c-1.8,6.6-12.3,26.5-38.9,26.5-24.8,0-43-18.2-43-43.9s18.2-43.9,43-43.9c23.2,0,41.4,18.2,41.4,42.2,0,2.5-.3,4.5-.5,6l-.3,2.3h-62.9c1.8,11.8,10.6,19.9,22.4,19.9,9.8,0,15.7-5.6,17.4-9.1h21.4Z" fill="#b1b2b4"/>
    <path d="M610,126.6h-14.1v-19.9h14.1v-12.4c0-12.6,8.1-20.7,20.7-20.7h18.2v18.2h-12.4c-3.3,0-5.8,2.5-5.8,5.8v9.1h18.2v19.9h-18.2v64.6h-20.7v-64.6Z" fill="#b1b2b4"/>
    <path d="M750.5,106.7h19l1.7,8.3h.8c1.5-1.8,3.5-3.5,5.6-5,3.8-2.5,9.6-5,17.6-5,19,0,33.1,14.1,33.1,35.6v50.5h-20.7v-48.8c0-10.8-7.5-18.2-18.2-18.2s-18.2,7.5-18.2,18.2v48.8h-20.7v-84.4h0Z" fill="#b1b2b4"/>
    <path d="M960.1,159.7c-2.7,13.2-13.1,33.1-39.7,33.1-24.8,0-43-18.2-43-43.9s18.2-43.9,43-43.9c26.7,0,37.1,19.9,39.7,32.3h-20.7c-1.8-4.8-6.6-13.2-19-13.2s-22.4,9.9-22.4,24.8,9.9,24.8,22.4,24.8,17.2-8.3,19-14.1h20.7v.1Z" fill="#b1b2b4"/>
    <path d="M1021,154.7h-17.4c-10.8,0-15.7,4.1-15.7,10.8s4.8,10.8,13.2,10.8c12.6,0,19.9-7.3,19.9-19v-2.6ZM1022.6,182.9h-.8c-1.5,1.8-3.5,3.5-5.8,5-4,2.5-9.8,5-18.2,5-19.2,0-30.6-11.8-30.6-25.7,0-16.6,11.6-28.2,34.8-28.2h19v-1.7c0-9.3-5.6-15.7-14.9-15.7s-14.1,6-14.9,10.8h-20.7c1.8-13.9,13.1-27.3,35.6-27.3s35.6,14.2,35.6,32.3v53.8h-17.4l-1.7-8.3Z" fill="#b1b2b4"/>
    <path d="M844.2,106.7h20.7v84.4h-20.7v-84.4ZM866.8,82.3c0-6.8-5.5-12.3-12.3-12.3s-12.3,5.5-12.3,12.3,5.5,12.3,12.3,12.3c6.8-.1,12.3-5.5,12.3-12.3" fill="#b1b2b4"/>
    <path d="M717.4,148.9c0-14.9-9.9-24.8-22.4-24.8s-22.4,9.9-22.4,24.8,9.9,24.8,22.4,24.8,22.4-9.9,22.4-24.8M738.1,148.9c0,25.7-18.2,43.9-43.1,43.9s-43-18.2-43-43.9,18.2-43.9,43-43.9c24.9,0,43.1,18.2,43.1,43.9M702.5,71.1h21.5l-19.9,24h-17.4l15.8-24Z" fill="#b1b2b4"/>
  </g>
</svg>