<?xml version="1.0" encoding="UTF-8"?>
<svg id="Capa_1" data-name="Capa 1" xmlns="http://www.w3.org/2000/svg" viewBox="0 0 74 20">
  <path d="M19.7,4.8l-2.4,3.7h-.1l-2.4-3.7c-.8-1.2-1-1.9-1-1.9h-7.2s.8.4,1.8,1.7l5.7,7.1v4.3c0,1-.4,1.6-.4,1.6h7.2s-.4-.5-.4-1.6v-4.4l5.8-7.2c.78-.92,1.35-1.33,1.62-1.5h-7.22s-.2.8-1,1.9Z" fill="#b1b2b4"/>
  <path d="M28.1,2.9v-.1s-.07.03-.18.1h.18Z" fill="#b1b2b4"/>
  <path d="M42.5,2.8h-12s.5.6.5,1.6v11.6c0,1.1-.5,1.6-.5,1.6h7.2s-.4-.6-.4-1.6v-3.6h5.2c3.3,0,5.8-1.7,5.8-4.8s-2.4-4.8-5.8-4.8ZM39.3,9.8h-2v-4.2h2c1.5,0,2.6.6,2.6,2s-1.1,2.2-2.6,2.2Z" fill="#b1b2b4"/>
  <path d="M66.8,6.3s-.04-.02-.1-.05v.05h.1Z" fill="#b1b2b4"/>
  <path d="M51,2.8s.5.5.5,1.6v11.8c0,1.1-.4,1.6-.4,1.6h7.2s-.4-.5-.4-1.6v-3.6h5.7c1.2,0,2,.3,2,.3v-3.6s-.9.2-2,.2h-5.8v-3.6h7.2c.86,0,1.47.24,1.7.35v-3.45h-15.7Z" fill="#b1b2b4"/>
</svg>