<?xml version="1.0" encoding="UTF-8"?>
<svg id="Layer_1" data-name="Layer 1" xmlns="http://www.w3.org/2000/svg" viewBox="0 0 205.18 205.18">
  <path d="M102.58,33.38c-38.16,0-69.21,31.05-69.21,69.22s31.05,69.22,69.21,69.22,69.22-31.05,69.22-69.22-31.04-69.22-69.22-69.22ZM67.79,109.41c1.82,1.82,4.24,2.82,6.81,2.82s4.99-1,6.81-2.82c3.26-3.26,8.54-3.26,11.8,0,3.26,3.26,3.26,8.54,0,11.8-4.97,4.97-11.58,7.71-18.61,7.71s-13.64-2.74-18.61-7.71c-10.26-10.26-10.26-26.96,0-37.23,4.97-4.97,11.58-7.71,18.62-7.71s13.64,2.74,18.61,7.71c3.26,3.26,3.26,8.54,0,11.8-3.26,3.26-8.54,3.26-11.8,0-1.82-1.82-4.24-2.82-6.81-2.82s-4.99,1-6.82,2.82c-3.76,3.76-3.76,9.87,0,13.63ZM151.27,125.94c-1.64,1.55-3.75,2.33-5.86,2.33s-4.38-.84-6.05-2.5l-.29-.29c-5.96-5.96-15.62-5.96-21.59,0l-.29.29c-1.67,1.67-3.86,2.5-6.05,2.5s-4.22-.78-5.86-2.33c-3.52-3.32-3.32-9.13.11-12.55,5.96-5.96,5.96-15.62,0-21.59-.19-.19-.29-.3-.29-.3-3.39-3.39-3.34-8.93.16-12.25,3.41-3.24,8.88-2.89,12.21.44h.01c5.97,5.96,15.63,5.96,21.59.01l.29-.29c3.39-3.39,8.93-3.34,12.25.16,3.24,3.41,2.89,8.88-.44,12.21h0c-5.95,5.98-5.95,15.64,0,21.6,3.43,3.42,3.64,9.23.11,12.56Z" fill="#54585c"/>
  <path d="M138.4,188.5h-71.61c-4.61,0-8.34,3.74-8.34,8.34s3.74,8.34,8.34,8.34h71.62c4.61,0,8.34-3.74,8.34-8.34s-3.74-8.34-8.35-8.34Z" fill="#54585c"/>
</svg>