<?xml version="1.0" encoding="UTF-8"?>
<svg id="Layer_1" xmlns="http://www.w3.org/2000/svg" version="1.1" viewBox="0 0 24 24">
  <!-- Generator: Adobe Illustrator 29.0.1, SVG Export Plug-In . SVG Version: 2.1.0 Build 192)  -->
  <defs>
    <style>
      .st0 {
        fill: #54585c;
      }
    </style>
  </defs>
  <circle class="st0" cx="10" cy="8" r="4"/>
  <path class="st0" d="M10.4,14c-2.7-.1-8.4,1.3-8.4,4v2h9.5c-2.5-2.8-1.2-5.9-1.2-6Z"/>
  <path class="st0" d="M19.4,18c.4-.6.6-1.3.6-2,0-2.2-1.8-4-4-4s-4,1.8-4,4,1.8,4,4,4,1.4-.2,2-.6l2.6,2.6,1.4-1.4-2.6-2.6ZM16,18c-1.1,0-2-.9-2-2s.9-2,2-2,2,.9,2,2-.9,2-2,2Z"/>
</svg>