<?xml version="1.0" encoding="UTF-8"?>
<svg id="Layer_1" xmlns="http://www.w3.org/2000/svg" version="1.1" viewBox="0 0 24 24">
  <!-- Generator: Adobe Illustrator 29.0.1, SVG Export Plug-In . SVG Version: 2.1.0 Build 192)  -->
  <defs>
    <style>
      .st0 {
        fill: #54585c;
      }
    </style>
  </defs>
  <circle class="st0" cx="13" cy="10" r="1.4"/>
  <path class="st0" d="M13,3c-3.8,0-6.8,2.9-7,6.6l-1.9,2.6c-.2.3,0,.8.4.8h1.5v3c0,1.1.9,2,2,2h1v3h7v-4.7c2.4-1.1,4-3.5,4-6.3s-3.1-7-7-7ZM16,10c0,.1,0,.3,0,.4l.8.7c0,0,0,.2,0,.2l-.8,1.4c0,0-.2.1-.2,0l-1-.4c-.2.2-.4.3-.7.4l-.2,1.1c0,0,0,.2-.2.2h-1.6c-.1,0-.2,0-.2-.2l-.2-1.1c-.2-.1-.5-.2-.7-.4l-1,.4c0,0-.2,0-.2,0l-.8-1.4c0,0,0-.2,0-.2l.8-.7c0-.1,0-.3,0-.4s0-.3,0-.4l-.8-.7c0,0,0-.2,0-.3l.8-1.4c0,0,.2-.1.2,0l1,.4c.2-.2.4-.3.7-.4l.2-1.1c0,0,0-.2.2-.2h1.6c.1,0,.2,0,.2.2l.2,1.1c.2.1.5.2.7.4l1-.4c0,0,.2,0,.2,0l.8,1.4c0,0,0,.2,0,.3l-.8.7c0,.1,0,.2,0,.4Z"/>
</svg>