<?xml version="1.0" encoding="UTF-8"?>
<svg id="Layer_1" data-name="Layer 1" xmlns="http://www.w3.org/2000/svg" viewBox="0 0 500 205.18">
  <g>
    <path d="M0,72.77C0,68.07,3.71,64.36,8.41,64.36h42.82c4.26,0,7.65,3.39,7.65,7.65s-3.39,7.65-7.65,7.65H16.82v16.28h29.49c4.26,0,7.65,3.39,7.65,7.65s-3.39,7.65-7.65,7.65h-29.49v21.85c0,4.7-3.71,8.41-8.41,8.41S0,137.77,0,133.07v-60.3Z" fill="#54585c"/>
    <path d="M58.87,102.81v-.22c0-21.74,17.15-39.55,40.75-39.55s40.53,17.59,40.53,39.33v.22c0,21.74-17.15,39.55-40.75,39.55s-40.53-17.59-40.53-39.33ZM122.55,102.81v-.22c0-13.11-9.61-24.03-23.16-24.03s-22.94,10.71-22.94,23.81v.22c0,13.11,9.61,24.03,23.16,24.03s22.94-10.71,22.94-23.81Z" fill="#54585c"/>
    <path d="M183.98,142.14c-10.13,0-20.26-3.86-27.98-11.57-7.47-7.47-11.59-17.41-11.59-27.98s4.12-20.5,11.59-27.98c15.43-15.43,40.53-15.43,55.95,0,3.04,3.04,3.04,7.96,0,11-3.04,3.04-7.96,3.04-11,0-9.36-9.36-24.6-9.36-33.96,0-4.54,4.54-7.03,10.57-7.03,16.98s2.5,12.45,7.03,16.98c9.36,9.36,24.6,9.36,33.96,0,3.04-3.04,7.96-3.04,11,0,3.04,3.04,3.04,7.96,0,11-7.71,7.71-17.84,11.57-27.98,11.57Z" fill="#54585c"/>
    <path d="M219.37,108.05v-35.94c0-4.7,3.71-8.41,8.41-8.41s8.41,3.71,8.41,8.41v35.5c0,12.45,6.23,18.9,16.5,18.9s16.49-6.23,16.49-18.35v-36.05c0-4.7,3.71-8.41,8.41-8.41s8.41,3.71,8.41,8.41v35.39c0,23.16-13,34.52-33.54,34.52s-33.1-11.47-33.1-33.97Z" fill="#54585c"/>
    <path d="M291.85,132.74c-1.86-1.31-3.17-3.71-3.17-6.34,0-4.37,3.5-7.76,7.87-7.76,2.19,0,3.71.76,4.81,1.53,5.79,4.26,12.13,6.88,19.55,6.88,6.88,0,11.03-2.73,11.03-7.21v-.22c0-4.26-2.62-6.45-15.4-9.72-15.4-3.93-25.34-8.19-25.34-23.38v-.22c0-13.87,11.14-23.05,26.76-23.05,9.28,0,17.37,2.4,24.25,6.77,1.86,1.09,3.71,3.39,3.71,6.66,0,4.37-3.5,7.76-7.87,7.76-1.64,0-2.95-.44-4.26-1.2-5.57-3.28-10.81-5.13-16.06-5.13-6.44,0-9.83,2.95-9.83,6.66v.22c0,5.03,3.28,6.66,16.5,10.05,15.51,4.04,24.25,9.61,24.25,22.94v.22c0,15.18-11.58,23.71-28.07,23.71-10.05,0-20.21-3.06-28.73-9.18Z" fill="#54585c"/>
  </g>
  <g>
    <path d="M430.78,33.38c-38.16,0-69.21,31.05-69.21,69.22s31.05,69.22,69.21,69.22,69.22-31.05,69.22-69.22-31.05-69.22-69.22-69.22ZM395.99,109.41c1.82,1.82,4.24,2.82,6.81,2.82s4.99-1,6.81-2.82c3.26-3.26,8.54-3.26,11.8,0,3.26,3.26,3.26,8.54,0,11.8-4.97,4.97-11.58,7.71-18.61,7.71s-13.64-2.74-18.61-7.71c-10.26-10.26-10.26-26.96,0-37.23,4.97-4.97,11.58-7.71,18.62-7.71s13.64,2.74,18.61,7.71c3.26,3.26,3.26,8.54,0,11.8-3.26,3.26-8.54,3.26-11.8,0-1.82-1.82-4.24-2.82-6.81-2.82s-4.99,1-6.82,2.82c-3.76,3.76-3.76,9.87,0,13.63ZM479.47,125.94c-1.64,1.55-3.75,2.33-5.86,2.33s-4.38-.84-6.05-2.5l-.29-.29c-5.96-5.96-15.62-5.96-21.59,0-.19.19-.29.29-.29.29-1.67,1.67-3.86,2.5-6.05,2.5s-4.22-.78-5.86-2.33c-3.52-3.32-3.32-9.13.11-12.55,5.96-5.96,5.96-15.62,0-21.59-.19-.19-.29-.3-.29-.3-3.39-3.39-3.34-8.93.16-12.25,3.41-3.24,8.88-2.89,12.21.44,0,0,0,0,.01.01,5.97,5.95,15.63,5.95,21.59,0l.29-.29c3.39-3.39,8.93-3.34,12.25.16,3.24,3.41,2.89,8.88-.44,12.21,0,0,0,0-.01.01-5.95,5.97-5.95,15.63,0,21.59h0c3.42,3.42,3.63,9.23.11,12.55Z" fill="#ef4147"/>
    <path d="M466.6,188.5h-71.62c-4.61,0-8.34,3.74-8.34,8.34s3.74,8.34,8.34,8.34h71.62c4.61,0,8.34-3.74,8.34-8.34s-3.74-8.34-8.34-8.34Z" fill="#ef4147"/>
  </g>
</svg>