<?xml version="1.0" encoding="utf-8"?>
<!-- Generator: Adobe Illustrator 29.0.1, SVG Export Plug-In . SVG Version: 9.03 Build 54978)  -->
<svg version="1.1" id="Layer_1" xmlns="http://www.w3.org/2000/svg" xmlns:xlink="http://www.w3.org/1999/xlink" x="0px" y="0px"
	 viewBox="0 0 205.18 205.18" enable-background="new 0 0 205.18 205.18" xml:space="preserve">
<g>
	<path fill="#EF4147" d="M102.58,33.38c-38.16,0-69.21,31.05-69.21,69.22s31.05,69.22,69.21,69.22s69.22-31.05,69.22-69.22
		S140.76,33.38,102.58,33.38z M67.79,109.41c1.82,1.82,4.24,2.82,6.81,2.82s4.99-1,6.81-2.82c3.26-3.26,8.54-3.26,11.8,0
		c3.26,3.26,3.26,8.54,0,11.8c-4.97,4.97-11.58,7.71-18.61,7.71s-13.64-2.74-18.61-7.71c-10.26-10.26-10.26-26.96,0-37.23
		c4.97-4.97,11.58-7.71,18.62-7.71s13.64,2.74,18.61,7.71c3.26,3.26,3.26,8.54,0,11.8s-8.54,3.26-11.8,0
		c-1.82-1.82-4.24-2.82-6.81-2.82s-4.99,1-6.82,2.82C64.03,99.54,64.03,105.65,67.79,109.41z M151.27,125.94
		c-1.64,1.55-3.75,2.33-5.86,2.33s-4.38-0.84-6.05-2.5l-0.29-0.29c-5.96-5.96-15.62-5.96-21.59,0c-0.19,0.19-0.29,0.29-0.29,0.29
		c-1.67,1.67-3.86,2.5-6.05,2.5s-4.22-0.78-5.86-2.33c-3.52-3.32-3.32-9.13,0.11-12.55c5.96-5.96,5.96-15.62,0-21.59
		c-0.19-0.19-0.29-0.3-0.29-0.3c-3.39-3.39-3.34-8.93,0.16-12.25c3.41-3.24,8.88-2.89,12.21,0.44c0,0,0,0,0.01,0.01
		c5.97,5.95,15.63,5.95,21.59,0l0.29-0.29c3.39-3.39,8.93-3.34,12.25,0.16c3.24,3.41,2.89,8.88-0.44,12.21c0,0,0,0-0.01,0.01
		c-5.95,5.97-5.95,15.63,0,21.59l0,0C154.59,116.8,154.8,122.61,151.27,125.94L151.27,125.94z"/>
	<path fill="#EF4147" d="M138.4,188.5H66.79c-4.61,0-8.34,3.74-8.34,8.34s3.74,8.34,8.34,8.34h71.62c4.61,0,8.34-3.74,8.34-8.34
		S143.01,188.5,138.4,188.5z"/>
</g>
</svg>
