<?xml version="1.0" encoding="UTF-8"?>
<svg id="Layer_1" xmlns="http://www.w3.org/2000/svg" version="1.1" viewBox="0 0 205.2 205.2">
  <!-- Generator: Adobe Illustrator 29.0.1, SVG Export Plug-In . SVG Version: 2.1.0 Build 192)  -->
  <defs>
    <style>
      .st0 {
        fill: #fff;
      }

      .st1 {
        fill: #ef4147;
      }
    </style>
  </defs>
  <path class="st1" d="M102.6,33.4c-38.2,0-69.2,31-69.2,69.2s31,69.2,69.2,69.2,69.2-31.1,69.2-69.2-31-69.2-69.2-69.2Z"/>
  <path class="st1" d="M138.4,188.5h-71.6c-4.6,0-8.3,3.7-8.3,8.3s3.7,8.3,8.3,8.3h71.6c4.6,0,8.3-3.7,8.3-8.3s-3.7-8.3-8.4-8.3Z"/>
  <path class="st0" d="M67.8,109.4c1.8,1.8,4.2,2.8,6.8,2.8s5-1,6.8-2.8c3.3-3.3,8.5-3.3,11.8,0s3.3,8.5,0,11.8c-5,5-11.6,7.7-18.6,7.7s-13.6-2.7-18.6-7.7c-10.3-10.3-10.3-27,0-37.2,5-5,11.6-7.7,18.6-7.7s13.6,2.7,18.6,7.7,3.3,8.5,0,11.8-8.5,3.3-11.8,0-4.2-2.8-6.8-2.8-5,1-6.8,2.8c-3.8,3.8-3.8,9.9,0,13.6Z"/>
  <path class="st0" d="M151.3,125.9c-1.6,1.6-3.8,2.3-5.9,2.3s-4.4-.8-6.1-2.5l-.3-.3c-6-6-15.6-6-21.6,0l-.3.3c-1.7,1.7-3.9,2.5-6.1,2.5s-4.2-.8-5.9-2.3c-3.5-3.3-3.3-9.1.1-12.6,6-6,6-15.6,0-21.6-.2-.2-.3-.3-.3-.3-3.4-3.4-3.3-8.9.2-12.2,3.4-3.2,8.9-2.9,12.2.4h0c6,6,15.6,6,21.6,0l.3-.3c3.4-3.4,8.9-3.3,12.2.2,3.2,3.4,2.9,8.9-.4,12.2h0c-5.9,6-5.9,15.6,0,21.6h0c3.4,3.4,3.6,9.2.1,12.6h0Z"/>
</svg>